<?xml version="1.0" encoding="UTF-8" standalone="no"?>
<!DOCTYPE svg PUBLIC "-//W3C//DTD SVG 1.1//EN" "http://www.w3.org/Graphics/SVG/1.1/DTD/svg11.dtd">
<svg xmlns="http://www.w3.org/2000/svg" version="1.1" viewBox="0.00 0.00 666.00 133.00">
<g stroke-width="2.00" fill="none" stroke-linecap="butt">
<path stroke="#7f8b70" vector-effect="non-scaling-stroke" d="
  M 92.61 17.24
  Q 101.88 32.51 94.16 47.67
  Q 76.45 82.43 58.62 117.04"
/>
<path stroke="#7f8b70" vector-effect="non-scaling-stroke" d="
  M 145.42 17.30
  Q 151.53 27.50 149.81 38.40
  Q 149.06 43.17 144.64 51.97
  Q 128.17 84.70 111.39 117.02"
/>
</g>
<path fill="#0049e0" d="
  M 92.61 17.24
  Q 101.88 32.51 94.16 47.67
  Q 76.45 82.43 58.62 117.04
  Q 49.54 130.10 34.62 131.39
  C 14.40 133.14 -2.22 114.59 1.71 94.69
  Q 2.70 89.69 7.22 80.87
  Q 22.06 51.91 36.87 22.96
  Q 40.57 15.73 43.78 12.38
  C 57.63 -2.09 81.18 0.34 92.61 17.24
  Z"
/>
<path fill="#fecc00" d="
  M 145.42 17.30
  Q 151.53 27.50 149.81 38.40
  Q 149.06 43.17 144.64 51.97
  Q 128.17 84.70 111.39 117.02
  C 98.18 136.30 71.68 136.04 58.62 117.04
  Q 76.45 82.43 94.16 47.67
  Q 101.88 32.51 92.61 17.24
  Q 104.92 0.04 125.00 3.51
  Q 137.85 5.73 145.42 17.30
  Z"
/>
<path fill="#0049e0" d="
  M 111.39 117.02
  Q 128.17 84.70 144.64 51.97
  Q 149.06 43.17 149.81 38.40
  Q 151.53 27.50 145.42 17.30
  Q 152.17 7.37 162.65 4.27
  C 188.83 -3.46 212.19 23.12 199.55 47.84
  Q 183.71 78.83 167.93 109.85
  Q 163.57 118.43 160.32 121.78
  C 145.98 136.58 122.72 133.80 111.39 117.02
  Z"
/>
<path fill="#1d1d1b" d="
  M 391.79 83.65
  Q 388.06 87.78 383.25 88.26
  Q 365.84 89.99 359.42 74.74
  C 356.33 67.39 356.74 57.48 360.52 50.52
  C 366.21 40.06 382.15 35.66 391.77 44.22
  Q 392.28 44.67 392.28 43.99
  L 392.25 26.88
  A 0.63 0.62 90.0 0 1 392.87 26.25
  L 405.46 26.21
  Q 405.96 26.21 405.96 26.71
  L 405.96 87.32
  A 0.53 0.52 -0.0 0 1 405.43 87.84
  L 392.77 87.85
  A 0.57 0.56 1.0 0 1 392.20 87.27
  L 392.32 83.87
  Q 392.34 83.04 391.79 83.65
  Z
  M 381.8292 75.2879
  A 11.42 10.59 88.9 0 0 392.1980 63.6667
  A 11.42 10.59 88.9 0 0 381.3908 52.4521
  A 11.42 10.59 88.9 0 0 371.0220 64.0733
  A 11.42 10.59 88.9 0 0 381.8292 75.2879
  Z"
/>
<path fill="#1d1d1b" d="
  M 259.62 58.48
  L 259.61 87.25
  Q 259.61 87.85 259.01 87.85
  L 245.16 87.85
  A 0.41 0.40 -0.0 0 1 244.75 87.45
  L 244.75 27.22
  Q 244.75 26.69 245.28 26.69
  L 255.96 26.68
  Q 256.60 26.68 256.95 27.21
  L 272.14 49.77
  A 0.48 0.48 0.0 0 0 272.94 49.77
  L 288.20 27.12
  Q 288.50 26.68 289.04 26.68
  L 299.67 26.69
  Q 300.15 26.69 300.15 27.17
  L 300.14 87.23
  A 0.62 0.61 -0.0 0 1 299.52 87.84
  L 285.88 87.86
  A 0.48 0.48 0.0 0 1 285.40 87.38
  L 285.40 58.52
  A 0.28 0.28 0.0 0 0 284.88 58.36
  L 276.92 70.24
  A 1.01 0.99 -72.8 0 1 276.09 70.69
  L 268.95 70.71
  A 1.15 1.14 73.1 0 1 268.00 70.20
  L 260.20 58.31
  Q 259.62 57.43 259.62 58.48
  Z"
/>
<path fill="#1d1d1b" d="
  M 654.3270 44.9034
  A 8.68 8.57 98.1 0 1 647.0655 35.1025
  A 8.68 8.57 98.1 0 1 656.7730 27.7166
  A 8.68 8.57 98.1 0 1 664.0345 37.5175
  A 8.68 8.57 98.1 0 1 654.3270 44.9034
  Z
  M 663.39 36.33
  A 7.82 7.82 0.0 0 0 655.57 28.51
  A 7.82 7.82 0.0 0 0 647.75 36.33
  A 7.82 7.82 0.0 0 0 655.57 44.15
  A 7.82 7.82 0.0 0 0 663.39 36.33
  Z"
/>
<path fill="#1d1d1b" d="
  M 574.25 40.44
  L 574.24 32.56
  A 0.49 0.48 -2.6 0 1 574.69 32.08
  L 587.31 30.94
  A 0.63 0.62 87.0 0 1 587.99 31.56
  L 588.00 40.70
  A 0.44 0.44 0.0 0 0 588.44 41.14
  L 597.02 41.05
  Q 597.74 41.05 597.74 41.77
  L 597.74 52.51
  Q 597.74 53.02 597.24 53.02
  L 588.52 52.90
  Q 588.12 52.90 588.11 53.29
  Q 587.69 68.58 588.09 73.05
  C 588.45 77.21 594.26 77.22 597.67 76.68
  Q 598.31 76.58 598.33 77.23
  L 598.65 87.47
  Q 598.67 87.99 598.15 88.07
  C 570.24 91.99 574.16 73.13 574.27 53.45
  A 0.53 0.53 0.0 0 0 573.73 52.92
  L 568.74 53.00
  Q 568.21 53.01 568.21 52.49
  L 568.20 41.68
  Q 568.20 41.05 568.82 41.06
  L 573.56 41.12
  Q 574.26 41.13 574.25 40.44
  Z"
/>
<path fill="#1d1d1b" d="
  M 653.26 38.51
  L 653.22 41.17
  A 0.25 0.25 0.0 0 1 652.86 41.39
  L 652.52 41.24
  A 0.52 0.52 0.0 0 1 652.22 40.77
  L 652.24 32.00
  Q 652.24 31.36 652.87 31.29
  Q 655.34 31.02 657.26 31.44
  C 660.13 32.06 660.89 35.59 658.20 37.37
  A 0.67 0.66 -32.1 0 0 657.99 38.26
  L 659.51 40.82
  Q 659.94 41.55 659.16 41.25
  L 658.70 41.07
  Q 658.33 40.93 658.23 40.56
  Q 657.34 37.42 653.74 37.96
  Q 653.27 38.03 653.26 38.51
  Z
  M 653.26 32.54
  L 653.26 36.60
  A 0.41 0.41 0.0 0 0 653.67 37.01
  L 656.09 37.01
  A 2.73 2.36 0.0 0 0 658.82 34.65
  L 658.82 34.49
  A 2.73 2.36 0.0 0 0 656.09 32.13
  L 653.67 32.13
  A 0.41 0.41 0.0 0 0 653.26 32.54
  Z"
/>
<path fill="#1d1d1b" d="
  M 549.43 44.85
  L 549.50 41.02
  A 0.49 0.48 -89.4 0 1 549.98 40.54
  L 562.45 40.54
  Q 563.11 40.54 563.11 41.20
  L 563.09 87.25
  A 0.60 0.60 0.0 0 1 562.49 87.85
  L 550.05 87.86
  Q 549.48 87.86 549.48 87.29
  L 549.48 84.03
  Q 549.48 83.33 548.97 83.82
  Q 544.06 88.66 536.49 88.45
  C 517.99 87.93 510.31 68.21 516.57 52.80
  Q 521.98 39.49 538.38 39.81
  Q 544.74 39.93 548.91 45.03
  Q 549.42 45.65 549.43 44.85
  Z
  M 538.9093 75.2689
  A 11.41 10.62 89.2 0 0 549.3690 63.7117
  A 11.41 10.62 89.2 0 0 538.5907 52.4511
  A 11.41 10.62 89.2 0 0 528.1310 64.0083
  A 11.41 10.62 89.2 0 0 538.9093 75.2689
  Z"
/>
<path fill="#1d1d1b" d="
  M 319.06 69.53
  A 0.51 0.50 -17.9 0 0 318.65 70.33
  Q 326.05 80.34 336.53 73.17
  A 1.64 1.64 0.0 0 1 337.46 72.88
  L 350.51 72.87
  A 0.56 0.56 0.0 0 1 351.04 73.62
  C 346.37 86.22 331.78 91.12 319.61 86.83
  Q 304.30 81.44 304.17 63.50
  C 304.03 44.75 323.66 34.87 339.59 42.42
  C 350.08 47.38 354.28 57.86 352.24 69.11
  Q 352.17 69.54 351.73 69.54
  L 319.06 69.53
  Z
  M 319.42 58.80
  L 337.48 58.80
  A 0.06 0.06 0.0 0 0 337.54 58.74
  L 337.54 58.69
  A 8.96 6.63 -0.0 0 0 328.58 52.06
  L 328.32 52.06
  A 8.96 6.63 0.0 0 0 319.36 58.69
  L 319.36 58.74
  A 0.06 0.06 0.0 0 0 319.42 58.80
  Z"
/>
<path fill="#1d1d1b" d="
  M 496.54 60.25
  C 493.99 54.23 488.19 51.14 482.47 53.88
  C 473.60 58.14 474.35 73.44 484.40 75.27
  C 489.78 76.25 494.58 73.48 496.48 68.29
  Q 496.68 67.75 497.27 67.75
  L 509.70 67.75
  Q 510.28 67.75 510.18 68.33
  C 507.22 85.41 488.97 93.71 474.10 85.11
  C 458.03 75.82 459.31 49.38 476.59 41.99
  Q 482.02 39.67 488.63 40.18
  Q 505.70 41.47 510.32 59.71
  A 0.85 0.84 -7.2 0 1 509.50 60.76
  L 497.24 60.72
  A 0.78 0.78 0.0 0 1 496.54 60.25
  Z"
/>
<path fill="#1d1d1b" d="
  M 615.33 70.18
  C 618.46 76.82 627.39 77.86 632.69 73.20
  Q 633.05 72.88 633.53 72.88
  L 647.29 72.87
  Q 647.98 72.87 647.70 73.51
  Q 641.53 87.65 625.74 88.22
  C 605.94 88.94 594.37 68.92 603.74 51.87
  C 610.52 39.52 626.31 36.77 637.94 43.30
  Q 648.67 49.33 649.29 64.24
  Q 649.39 66.70 648.72 69.00
  A 0.74 0.73 7.8 0 1 648.01 69.53
  L 615.75 69.53
  Q 615.02 69.53 615.33 70.18
  Z
  M 615.95 58.88
  L 633.93 58.82
  A 0.19 0.19 0.0 0 0 634.12 58.63
  L 634.12 58.58
  A 9.03 6.58 -0.2 0 0 625.07 52.03
  L 624.77 52.03
  A 9.03 6.58 -0.2 0 0 615.76 58.64
  L 615.76 58.69
  A 0.19 0.19 0.0 0 0 615.95 58.88
  Z"
/>
<path fill="#1d1d1b" d="
  M 443.15 83.77
  C 438.38 88.57 431.41 89.38 425.12 87.88
  C 416.54 85.84 413.33 76.40 413.36 68.25
  Q 413.40 54.56 413.51 41.01
  A 0.55 0.55 0.0 0 1 414.07 40.46
  L 425.94 40.63
  A 1.31 1.30 0.4 0 1 427.23 41.93
  Q 427.23 53.87 427.32 65.62
  Q 427.35 69.91 428.23 71.73
  C 431.18 77.84 438.89 76.98 441.71 71.59
  Q 442.83 69.47 442.84 64.71
  Q 442.86 52.93 442.89 41.15
  Q 442.89 40.53 443.51 40.53
  L 456.87 40.58
  A 0.65 0.64 0.0 0 1 457.52 41.22
  L 457.51 87.17
  Q 457.51 87.85 456.83 87.85
  L 444.29 87.85
  Q 443.73 87.85 443.72 87.29
  L 443.70 83.99
  Q 443.69 83.22 443.15 83.77
  Z"
/>
<ellipse fill="#1d1d1b" cx="0.00" cy="0.00" transform="translate(338.58,110.43) rotate(-35.2)" rx="2.27" ry="0.71"/>
<ellipse fill="#1d1d1b" cx="0.00" cy="0.00" transform="translate(486.73,110.41) rotate(-34.4)" rx="2.29" ry="0.72"/>
<path fill="#1d1d1b" d="
  M 266.20 123.09
  L 260.32 123.06
  A 0.79 0.78 14.0 0 0 259.63 123.47
  L 258.23 126.08
  A 0.87 0.87 0.0 0 1 256.67 125.31
  L 262.03 113.74
  A 1.28 1.28 0.0 0 1 263.40 113.02
  Q 264.52 113.20 264.95 114.35
  C 266.42 118.24 268.47 122.07 270.18 125.81
  A 0.53 0.53 0.0 0 1 269.80 126.56
  C 268.21 126.85 267.65 124.50 266.98 123.51
  Q 266.70 123.10 266.20 123.09
  Z
  M 260.70 120.75
  A 0.38 0.38 0.0 0 0 261.05 121.29
  L 265.58 121.25
  A 0.38 0.38 0.0 0 0 265.92 120.71
  L 263.62 115.86
  A 0.38 0.38 0.0 0 0 262.93 115.86
  L 260.70 120.75
  Z"
/>
<path fill="#1d1d1b" d="
  M 286.86 123.77
  Q 287.55 123.52 287.59 124.26
  Q 287.65 125.41 286.11 125.94
  C 281.36 127.59 276.15 125.60 275.47 120.34
  C 274.65 113.96 282.68 111.25 287.46 114.72
  Q 287.83 114.99 287.65 115.40
  Q 287.43 115.90 286.94 116.00
  Q 286.59 116.07 286.11 115.78
  C 279.58 111.81 273.98 120.66 279.92 123.91
  Q 282.49 125.32 286.86 123.77
  Z"
/>
<path fill="#1d1d1b" d="
  M 302.28 123.07
  L 296.25 123.08
  A 0.79 0.78 14.0 0 0 295.56 123.49
  L 294.15 126.13
  A 0.89 0.82 -45.8 0 1 292.64 126.22
  Q 292.51 125.97 292.81 125.26
  Q 295.36 119.27 298.06 113.70
  A 1.38 1.38 0.0 0 1 300.56 113.72
  L 306.18 125.89
  A 0.47 0.47 0.0 0 1 305.71 126.56
  L 305.28 126.52
  Q 304.53 126.46 304.19 125.79
  L 303.03 123.52
  A 0.85 0.85 0.0 0 0 302.28 123.07
  Z
  M 296.70 120.74
  A 0.38 0.38 0.0 0 0 297.05 121.27
  L 301.56 121.24
  A 0.38 0.38 0.0 0 0 301.90 120.70
  L 299.61 115.76
  A 0.38 0.38 0.0 0 0 298.92 115.76
  L 296.70 120.74
  Z"
/>
<path fill="#1d1d1b" d="
  M 312.63 113.66
  A 0.60 0.60 0.0 0 1 313.23 113.06
  L 318.85 113.06
  A 6.82 6.45 -0.0 0 1 325.67 119.51
  L 325.67 120.05
  A 6.82 6.45 -0.0 0 1 318.85 126.50
  L 313.23 126.50
  A 0.60 0.60 0.0 0 1 312.63 125.90
  L 312.63 113.66
  Z
  M 314.58 115.50
  L 314.54 124.06
  A 0.71 0.71 0.0 0 0 315.24 124.77
  L 318.69 124.79
  A 5.04 4.79 0.3 0 0 323.76 120.02
  L 323.76 119.62
  A 5.04 4.79 0.3 0 0 318.75 114.81
  L 315.30 114.79
  A 0.71 0.71 0.0 0 0 314.58 115.50
  Z"
/>
<path fill="#1d1d1b" d="
  M 334.75 120.83
  L 334.76 124.42
  A 0.34 0.34 0.0 0 0 335.10 124.76
  L 342.30 124.76
  A 0.34 0.34 0.0 0 1 342.64 125.10
  L 342.63 126.13
  A 0.34 0.34 0.0 0 1 342.29 126.47
  L 333.09 126.47
  A 0.34 0.34 0.0 0 1 332.75 126.13
  L 332.74 113.44
  A 0.34 0.34 0.0 0 1 333.08 113.10
  L 341.93 113.00
  A 0.34 0.34 0.0 0 1 342.28 113.34
  L 342.30 114.58
  A 0.34 0.34 0.0 0 1 341.96 114.92
  L 335.10 114.80
  A 0.34 0.34 0.0 0 0 334.75 115.14
  L 334.76 118.41
  A 0.34 0.34 0.0 0 0 335.10 118.75
  L 341.19 118.74
  A 0.34 0.34 0.0 0 1 341.53 119.06
  L 341.61 120.16
  A 0.34 0.34 0.0 0 1 341.26 120.52
  L 335.09 120.49
  A 0.34 0.34 0.0 0 0 334.75 120.83
  Z"
/>
<path fill="#1d1d1b" d="
  M 361.74 118.02
  L 357.90 124.24
  A 0.99 0.99 0.0 0 1 356.20 124.23
  L 352.41 117.85
  A 0.32 0.32 0.0 0 0 351.81 118.01
  L 351.75 125.89
  A 0.64 0.64 0.0 0 1 351.11 126.52
  L 350.56 126.52
  Q 349.87 126.51 349.87 125.82
  L 349.85 114.03
  A 1.02 1.02 0.0 0 1 351.75 113.50
  L 356.74 121.88
  A 0.47 0.47 0.0 0 0 357.54 121.88
  L 362.59 113.37
  A 0.95 0.95 0.0 0 1 364.35 113.85
  L 364.38 125.79
  Q 364.38 126.45 363.72 126.47
  L 363.11 126.48
  Q 362.47 126.49 362.47 125.86
  L 362.47 118.23
  Q 362.47 116.84 361.74 118.02
  Z"
/>
<rect fill="#1d1d1b" x="-0.93" y="-6.83" transform="translate(373.47,119.76) rotate(-0.2)" width="1.86" height="13.66" rx="0.83"/>
<path fill="#1d1d1b" d="
  M 384.73 120.55
  L 384.54 124.52
  A 0.30 0.30 0.0 0 0 384.84 124.83
  L 392.39 124.89
  A 0.30 0.30 0.0 0 1 392.68 125.15
  L 392.78 125.90
  A 0.30 0.30 0.0 0 1 392.49 126.24
  L 383.12 126.47
  A 0.30 0.30 0.0 0 1 382.81 126.17
  L 382.93 113.39
  A 0.30 0.30 0.0 0 1 383.23 113.09
  L 391.87 113.24
  A 0.30 0.30 0.0 0 1 392.14 113.42
  L 392.53 114.38
  A 0.30 0.30 0.0 0 1 392.24 114.79
  L 384.67 114.58
  A 0.30 0.30 0.0 0 0 384.36 114.90
  L 384.57 118.37
  A 0.30 0.30 0.0 0 0 384.86 118.65
  L 391.12 118.91
  A 0.30 0.30 0.0 0 1 391.39 119.11
  L 391.68 119.93
  A 0.30 0.30 0.0 0 1 391.39 120.33
  L 385.03 120.26
  A 0.30 0.30 0.0 0 0 384.73 120.55
  Z"
/>
<path fill="#1d1d1b" d="
  M 409.34 113.70
  A 0.61 0.61 0.0 0 1 409.95 113.09
  L 415.59 113.07
  A 6.81 6.40 -0.2 0 1 422.42 119.45
  L 422.42 120.05
  A 6.81 6.40 -0.2 0 1 415.63 126.47
  L 409.99 126.49
  A 0.61 0.61 0.0 0 1 409.38 125.88
  L 409.34 113.70
  Z
  M 411.40 115.33
  L 411.36 124.19
  A 0.57 0.57 0.0 0 0 411.93 124.77
  L 415.55 124.78
  A 4.91 4.68 0.2 0 0 420.48 120.12
  L 420.48 119.48
  A 4.91 4.68 0.2 0 0 415.59 114.78
  L 411.97 114.77
  A 0.57 0.57 0.0 0 0 411.40 115.33
  Z"
/>
<path fill="#1d1d1b" d="
  M 432.06 123.43
  C 433.44 125.43 436.81 125.30 438.14 123.52
  C 439.58 121.58 438.88 116.40 438.98 113.89
  Q 438.99 113.44 439.40 113.25
  Q 440.87 112.54 440.90 113.74
  C 441.05 118.92 442.14 126.11 435.77 126.55
  C 428.10 127.07 429.05 119.27 429.45 113.39
  Q 429.49 112.80 430.05 112.95
  L 430.75 113.13
  A 0.68 0.67 7.2 0 1 431.26 113.78
  C 431.30 116.24 430.71 121.45 432.06 123.43
  Z"
/>
<path fill="#1d1d1b" d="
  M 460.01 117.79
  L 460.01 125.87
  Q 460.01 126.50 459.38 126.49
  L 458.63 126.48
  A 0.60 0.59 -89.5 0 1 458.05 125.88
  L 458.07 114.03
  A 1.06 1.05 -60.4 0 1 460.03 113.49
  L 465.07 121.90
  Q 465.45 122.53 465.83 121.90
  L 470.91 113.34
  A 0.97 0.97 0.0 0 1 472.71 113.83
  L 472.73 125.89
  Q 472.73 126.51 472.11 126.48
  L 471.34 126.44
  Q 470.77 126.40 470.77 125.83
  L 470.81 117.97
  A 0.35 0.34 60.6 0 0 470.17 117.79
  L 466.18 124.39
  A 0.90 0.89 44.9 0 1 464.65 124.39
  L 460.55 117.64
  A 0.29 0.29 0.0 0 0 460.01 117.79
  Z"
/>
<path fill="#1d1d1b" d="
  M 482.84 120.86
  L 482.91 124.43
  A 0.34 0.34 0.0 0 0 483.25 124.76
  L 490.44 124.77
  A 0.34 0.34 0.0 0 1 490.78 125.12
  L 490.74 126.14
  A 0.34 0.34 0.0 0 1 490.40 126.47
  L 481.19 126.47
  A 0.34 0.34 0.0 0 1 480.85 126.13
  L 480.85 113.44
  A 0.34 0.34 0.0 0 1 481.19 113.10
  L 490.07 113.01
  A 0.34 0.34 0.0 0 1 490.41 113.33
  L 490.48 114.55
  A 0.34 0.34 0.0 0 1 490.13 114.91
  L 483.18 114.81
  A 0.34 0.34 0.0 0 0 482.83 115.16
  L 482.92 118.40
  A 0.34 0.34 0.0 0 0 483.26 118.73
  L 489.16 118.75
  A 0.34 0.34 0.0 0 1 489.47 118.95
  L 489.92 120.00
  A 0.34 0.34 0.0 0 1 489.61 120.47
  L 483.17 120.52
  A 0.34 0.34 0.0 0 0 482.84 120.86
  Z"
/>
<path fill="#1d1d1b" d="
  M 497.93 113.91
  A 0.85 0.85 0.0 0 1 498.78 113.06
  L 504.08 113.06
  A 7.03 6.53 0.0 0 1 511.11 119.59
  L 511.11 119.95
  A 7.03 6.53 -0.0 0 1 504.08 126.48
  L 498.78 126.48
  A 0.85 0.85 0.0 0 1 497.93 125.63
  L 497.93 113.91
  Z
  M 499.95 115.24
  L 499.99 124.34
  A 0.45 0.45 0.0 0 0 500.45 124.79
  L 504.16 124.77
  A 4.94 4.73 -0.3 0 0 509.07 120.02
  L 509.07 119.48
  A 4.94 4.73 -0.3 0 0 504.10 114.77
  L 500.39 114.79
  A 0.45 0.45 0.0 0 0 499.95 115.24
  Z"
/>
<rect fill="#1d1d1b" x="518.05" y="113.04" width="2.10" height="13.44" rx="0.67"/>
<path fill="#1d1d1b" d="
  M 536.81 115.31
  Q 533.12 113.87 530.81 116.05
  C 525.77 120.80 532.53 127.63 538.44 123.48
  A 0.50 0.50 0.0 0 1 539.14 123.61
  Q 539.85 124.65 539.11 125.11
  C 534.96 127.72 528.90 126.69 527.53 121.58
  C 525.64 114.53 533.63 111.10 539.01 114.47
  A 0.88 0.88 0.0 0 1 538.81 116.05
  Q 538.15 116.25 537.61 115.79
  Q 537.25 115.48 536.81 115.31
  Z"
/>
<path fill="#1d1d1b" d="
  M 551.99 113.16
  Q 552.53 113.30 552.76 113.81
  L 558.24 125.74
  A 0.71 0.71 0.0 0 1 557.11 126.56
  Q 555.81 125.34 555.26 123.61
  A 0.71 0.70 82.0 0 0 554.60 123.11
  L 548.40 123.06
  A 0.76 0.76 0.0 0 0 547.68 123.57
  Q 547.04 125.38 545.59 126.62
  A 0.66 0.66 0.0 0 1 544.56 125.84
  Q 547.40 119.65 550.06 113.76
  Q 550.51 112.77 551.99 113.16
  Z
  M 548.84 120.79
  A 0.38 0.38 0.0 0 0 549.20 121.32
  L 553.67 121.27
  A 0.38 0.38 0.0 0 0 554.01 120.73
  L 551.71 115.85
  A 0.38 0.38 0.0 0 0 551.02 115.86
  L 548.84 120.79
  Z"
/>
<path fill="#1d1d1b" d="
  M 576.64 117.92
  L 572.94 124.19
  A 1.05 1.05 0.0 0 1 571.14 124.20
  L 567.34 118.00
  A 0.39 0.39 0.0 0 0 566.62 118.21
  L 566.64 125.75
  Q 566.64 126.37 566.04 126.53
  Q 564.98 126.83 564.94 125.99
  Q 564.62 119.56 564.71 113.79
  A 0.95 0.95 0.0 0 1 566.48 113.31
  L 571.57 121.74
  Q 572.06 122.55 572.55 121.73
  L 577.54 113.28
  A 0.91 0.91 0.0 0 1 579.23 113.75
  L 579.17 126.00
  A 0.63 0.63 0.0 0 1 578.37 126.61
  Q 577.01 126.22 577.19 124.82
  C 577.46 122.67 577.36 120.25 577.26 118.07
  Q 577.21 116.94 576.64 117.92
  Z"
/>
<path fill="#1d1d1b" d="
  M 589.35 115.17
  L 589.49 118.39
  A 0.34 0.34 0.0 0 0 589.83 118.72
  L 595.87 118.73
  A 0.34 0.34 0.0 0 1 596.21 119.07
  L 596.22 120.18
  A 0.34 0.34 0.0 0 1 595.88 120.52
  L 589.72 120.50
  A 0.34 0.34 0.0 0 0 589.38 120.84
  L 589.35 124.47
  A 0.34 0.34 0.0 0 0 589.69 124.81
  L 596.98 124.76
  A 0.34 0.34 0.0 0 1 597.32 125.12
  L 597.28 126.16
  A 0.34 0.34 0.0 0 1 596.94 126.48
  L 587.66 126.49
  A 0.34 0.34 0.0 0 1 587.32 126.15
  L 587.40 113.42
  A 0.34 0.34 0.0 0 1 587.73 113.09
  L 596.78 112.98
  A 0.34 0.34 0.0 0 1 597.13 113.35
  L 597.04 114.61
  A 0.34 0.34 0.0 0 1 596.70 114.92
  L 589.70 114.82
  A 0.34 0.34 0.0 0 0 589.35 115.17
  Z"
/>
<path fill="#1d1d1b" d="
  M 614.34 121.94
  L 614.35 113.67
  Q 614.35 113.22 614.78 113.13
  L 615.39 112.99
  Q 616.21 112.81 616.21 113.65
  L 616.22 125.79
  A 0.92 0.92 0.0 0 1 614.59 126.37
  L 607.03 117.15
  A 0.27 0.26 -64.6 0 0 606.56 117.32
  L 606.52 125.76
  A 0.78 0.78 0.0 0 1 605.99 126.50
  Q 605.22 126.77 604.81 126.35
  Q 604.56 126.09 604.54 125.45
  Q 604.40 119.42 604.56 113.97
  A 1.03 1.02 26.4 0 1 606.38 113.36
  L 613.60 122.20
  A 0.42 0.42 0.0 0 0 614.34 121.94
  Z"
/>
<path fill="#1d1d1b" d="
  M 629.01 115.27
  Q 628.90 120.39 628.98 125.51
  Q 629.00 126.59 627.59 126.48
  Q 626.91 126.44 626.91 125.76
  L 626.91 115.27
  A 0.50 0.49 -3.1 0 0 626.36 114.78
  Q 624.68 114.96 622.99 114.90
  A 0.93 0.93 0.0 0 1 623.02 113.04
  L 632.87 113.03
  Q 633.46 113.03 633.48 113.62
  L 633.51 114.19
  Q 633.54 114.93 632.81 114.90
  L 629.51 114.79
  Q 629.02 114.78 629.01 115.27
  Z"
/>
</svg>
