<svg width="160" height="32" viewBox="0 0 160 32" fill="none" xmlns="http://www.w3.org/2000/svg">
<g clip-path="url(#clip0_5418_111101)">
<path d="M47.6331 1.00472C51.2238 3.07105 52.4546 7.66668 50.3769 11.2574L40.5647 28.251C38.4983 31.8417 33.9027 33.0725 30.312 30.9948C26.7213 28.9285 25.4906 24.3329 27.5682 20.7422L37.3805 3.74854C39.4468 0.157855 44.0424 -1.07291 47.6331 1.00472Z" fill="#0049E0"/>
<path d="M34.7606 1.00456C38.3512 3.0709 39.582 7.66652 37.5044 11.2572L27.6921 28.2509C25.6258 31.8415 21.0301 33.0723 17.4395 30.9947C13.8488 28.9283 12.618 24.3327 14.6956 20.742L24.5079 3.74838C26.5743 0.16899 31.1699 -1.06178 34.7606 1.00456Z" fill="#FECC00"/>
<path d="M21.8771 1.00456C25.4678 3.0709 26.6986 7.66652 24.6209 11.2572L14.8086 28.2509C12.7423 31.8415 8.14669 33.0723 4.556 30.9947C0.976607 28.9283 -0.254162 24.3327 1.81218 20.742L11.6245 3.74838C13.7021 0.16899 18.2864 -1.06178 21.8771 1.00456Z" fill="#0049E0"/>
<path d="M159.147 19.0257H150.566C150.667 19.8387 150.972 20.4597 151.469 20.9001C151.966 21.3179 152.621 21.5324 153.434 21.5324C153.942 21.5324 154.405 21.4308 154.811 21.2163C155.229 20.9904 155.534 20.663 155.714 20.2452H158.944C158.594 21.4534 157.916 22.4245 156.889 23.181C155.884 23.9149 154.698 24.2875 153.343 24.2875C151.593 24.2875 150.17 23.7117 149.052 22.5487C147.935 21.3856 147.381 19.8952 147.381 18.0772C147.381 16.2593 147.935 14.8479 149.052 13.6736C150.17 12.4993 151.593 11.9121 153.321 11.9121C155.048 11.9121 156.46 12.4993 157.544 13.6736C158.639 14.8366 159.192 16.3045 159.192 18.0772L159.147 19.0257ZM153.298 14.4866C152.575 14.4866 151.977 14.6898 151.514 15.0963C151.051 15.4915 150.746 16.0335 150.611 16.7223H155.985C155.861 16.0448 155.568 15.5028 155.105 15.0963C154.642 14.6898 154.032 14.4866 153.298 14.4866Z" fill="#101828"/>
<path d="M145.631 14.7126V24.0168H142.425V14.7126H140.821V12.1833H142.425V9.24756H145.631V12.1833H147.37V14.7126H145.631Z" fill="#101828"/>
<path d="M136.802 12.1831H139.76V24.0166H136.802V22.5712C136.022 23.7117 134.769 24.2875 133.053 24.2875C131.337 24.2875 130.061 23.7004 129.078 22.5261C128.096 21.3518 127.61 19.8726 127.61 18.0998C127.61 16.3271 128.096 14.8479 129.078 13.6736C130.061 12.4993 131.382 11.9121 133.053 11.9121C134.724 11.9121 136.022 12.488 136.802 13.6284V12.1831ZM135.831 20.5162C136.373 19.8839 136.644 19.0822 136.644 18.0998C136.644 17.1175 136.373 16.3158 135.831 15.6835C135.3 15.0511 134.6 14.735 133.73 14.735C132.861 14.735 132.15 15.0511 131.608 15.6835C131.077 16.3158 130.817 17.1175 130.817 18.0998C130.817 19.0822 131.077 19.8839 131.608 20.5162C132.15 21.1485 132.861 21.4647 133.73 21.4647C134.6 21.4647 135.3 21.1485 135.831 20.5162Z" fill="#101828"/>
<path d="M117.233 22.5261C116.115 21.3405 115.562 19.8613 115.562 18.0998C115.562 16.3384 116.115 14.8705 117.233 13.6962C118.362 12.5106 119.785 11.9121 121.501 11.9121C123.218 11.9121 124.516 12.3864 125.476 13.3348C126.458 14.2833 127.012 15.3447 127.147 16.519H123.85C123.726 16.0109 123.455 15.5818 123.014 15.2544C122.574 14.9269 122.066 14.7576 121.479 14.7576C120.632 14.7576 119.977 15.0624 119.491 15.6835C119.006 16.2819 118.769 17.0949 118.769 18.0998C118.769 19.1048 119.006 19.9178 119.491 20.5388C119.977 21.1372 120.632 21.4421 121.479 21.4421C122.066 21.4421 122.574 21.2727 123.014 20.9453C123.455 20.6178 123.726 20.1887 123.85 19.6806H127.147C127.012 20.8549 126.458 21.9163 125.476 22.8648C124.516 23.8133 123.184 24.2875 121.501 24.2875C119.819 24.2875 118.362 23.7004 117.233 22.5261Z" fill="#101828"/>
<path d="M112.818 23.0229C111.915 23.8698 110.571 24.2876 108.799 24.2876C107.026 24.2876 105.682 23.8698 104.779 23.0229C103.875 22.176 103.424 20.8211 103.424 18.958V12.1831H106.631V19.0031C106.631 20.6178 107.353 21.4195 108.799 21.4195C110.244 21.4195 110.967 20.6178 110.967 19.0031V12.1831H114.173V18.958C114.173 20.8211 113.722 22.176 112.818 23.0229Z" fill="#101828"/>
<path d="M98.0717 13.448V7.07959H101.279V24.0168H98.3202V22.5715C97.541 23.7119 96.2877 24.2878 94.5714 24.2878C92.8551 24.2878 91.5791 23.7006 90.5968 22.5263C89.6144 21.352 89.1289 19.8728 89.1289 18.1001C89.1289 16.3273 89.6144 14.8481 90.5968 13.6738C91.5791 12.4995 92.9003 11.9123 94.5714 11.9123C95.3505 11.9123 96.0506 12.0591 96.649 12.364C97.27 12.6463 97.7443 13.0076 98.0717 13.448ZM97.3491 20.5164C97.8911 19.8841 98.1621 19.0824 98.1621 18.1001C98.1621 17.1177 97.8911 16.316 97.3491 15.6837C96.8184 15.0514 96.1183 14.7352 95.2489 14.7352C94.3794 14.7352 93.6681 15.0514 93.1261 15.6837C92.5954 16.316 92.3357 17.1177 92.3357 18.1001C92.3357 19.0824 92.5954 19.8841 93.1261 20.5164C93.6681 21.1487 94.3794 21.4649 95.2489 21.4649C96.1183 21.4649 96.8184 21.1487 97.3491 20.5164Z" fill="#101828"/>
<path d="M88.3385 19.0257H79.7569C79.8586 19.8387 80.1634 20.4597 80.6603 20.9001C81.1571 21.3179 81.812 21.5324 82.625 21.5324C83.1331 21.5324 83.596 21.4308 84.0025 21.2163C84.4203 20.9904 84.7252 20.663 84.9059 20.2452H88.1352C87.7852 21.4534 87.1077 22.4245 86.0802 23.181C85.0752 23.9149 83.8896 24.2875 82.5346 24.2875C80.7845 24.2875 79.3617 23.7117 78.2439 22.5487C77.126 21.3856 76.5728 19.8952 76.5728 18.0772C76.5728 16.2593 77.126 14.8479 78.2439 13.6736C79.3617 12.4993 80.7845 11.9121 82.5121 11.9121C84.2397 11.9121 85.6511 12.4993 86.7351 13.6736C87.8303 14.8366 88.3836 16.3045 88.3836 18.0772L88.3385 19.0257ZM82.4895 14.4866C81.7668 14.4866 81.1684 14.6898 80.7054 15.0963C80.2425 15.4915 79.9376 16.0335 79.8021 16.7223H85.1769C85.0526 16.0448 84.7591 15.5028 84.2961 15.0963C83.8332 14.6898 83.2234 14.4866 82.4895 14.4866Z" fill="#101828"/>
<path d="M62.4133 7.98291L67.1106 14.1932L71.8078 7.98291H74.8339V24.0168H71.6723V13.0866L67.1557 18.8905H67.0654L62.5488 13.0866V24.0168H59.3872V7.98291H62.4133Z" fill="#101828"/>
</g>
<defs>
<clipPath id="clip0_5418_111101">
<rect width="158.385" height="32" fill="white" transform="translate(0.807129)"/>
</clipPath>
</defs>
</svg>
