<svg xmlns="http://www.w3.org/2000/svg" version="1.1" viewBox="87.03 100.06 732.93 427.03"> <g stroke-width="2.00" fill="none" stroke-linecap="butt"> <path stroke="#7f8b70" vector-effect="non-scaling-stroke" d="M 426.83 123.40   Q 441.50 148.44 428.92 173.19   Q 400.62 228.84 372.24 284.55"></path> <path stroke="#7f8b70" vector-effect="non-scaling-stroke" d="M 511.70 123.51   Q 522.59 142.07 517.96 161.56   Q 516.51 167.63 510.56 179.33   Q 484.73 230.15 458.85 280.95   Q 457.85 282.90 456.85 284.59"></path> </g> <path fill="#0049e0" d="M 426.83 123.40   Q 441.50 148.44 428.92 173.19   Q 400.62 228.84 372.24 284.55   Q 361.38 300.56 343.77 305.79   C 306.44 316.87 271.38 282.66 281.33 245.15   Q 282.88 239.30 289.22 226.84   Q 312.74 180.64 336.19 134.41   Q 342.26 122.44 346.32 117.67   C 368.66 91.46 408.00 95.49 426.83 123.40   Z"></path> <path fill="#fecc00" d="M 511.70 123.51   Q 522.59 142.07 517.96 161.56   Q 516.51 167.63 510.56 179.33   Q 484.73 230.15 458.85 280.95   Q 457.85 282.90 456.85 284.59   C 436.82 315.14 391.76 315.95 372.24 284.55   Q 400.62 228.84 428.92 173.19   Q 441.50 148.44 426.83 123.40   C 440.64 103.17 464.17 94.78 487.11 103.48   Q 502.44 109.29 511.70 123.51   Z"></path> <path fill="#0049e0" d="M 456.85 284.59   Q 457.85 282.90 458.85 280.95   Q 484.73 230.15 510.56 179.33   Q 516.51 167.63 517.96 161.56   Q 522.59 142.07 511.70 123.51   Q 518.29 113.06 528.69 106.96   C 559.92 88.67 599.33 108.68 603.81 143.99   Q 605.75 159.28 598.43 173.62   Q 572.05 225.30 545.71 277.02   Q 541.24 285.81 537.56 290.10   C 515.08 316.34 475.95 312.73 456.85 284.59   Z"></path> <path fill="#fff" d="M 344.86 384.30   L 344.86 353.52   Q 344.86 352.91 345.47 352.91   L 368.04 352.94   A 0.69 0.68 0.0 0 1 368.73 353.62   L 368.73 459.02   A 0.75 0.75 0.0 0 1 367.98 459.77   L 345.42 459.71   A 0.55 0.54 89.5 0 1 344.88 459.17   L 344.83 452.31   Q 344.82 451.86 344.51 452.18   Q 336.29 460.76 322.75 460.73   Q 304.40 460.68 293.58 447.41   C 280.23 431.04 279.90 400.90 296.52 385.99   C 308.77 375.00 331.62 371.88 344.38 384.50   Q 344.86 384.97 344.86 384.30   Z   M 326.5457 437.9470   A 19.81 18.54 89.0 0 0 344.7372 417.8164   A 19.81 18.54 89.0 0 0 325.8543 398.3330   A 19.81 18.54 89.0 0 0 307.6628 418.4636   A 19.81 18.54 89.0 0 0 326.5457 437.9470   Z"></path> <path fill="#fff" d="M 157.59 407.96   L 142.91 429.59   Q 142.60 430.05 142.04 430.05   L 128.88 430.02   Q 128.32 430.02 128.01 429.55   L 113.51 407.87   A 0.28 0.27 -62.2 0 0 113.01 408.03   L 113.00 459.00   A 0.75 0.74 0.0 0 1 112.25 459.74   L 87.75 459.73   Q 87.03 459.73 87.03 459.00   L 87.03 354.20   A 0.53 0.52 -90.0 0 1 87.55 353.67   L 107.08 353.66   Q 107.64 353.66 107.95 354.12   L 135.17 394.13   Q 135.55 394.69 135.93 394.13   L 163.16 354.11   Q 163.46 353.66 164.01 353.66   L 183.21 353.67   Q 183.75 353.67 183.75 354.21   L 183.75 458.98   A 0.74 0.73 90.0 0 1 183.02 459.72   L 158.99 459.72   A 0.98 0.98 0.0 0 1 158.01 458.74   L 158.01 408.09   Q 158.01 407.35 157.59 407.96   Z"></path> <path fill="#fff" d="M 819.96 370.35   A 14.99 14.99 0.0 0 1 804.97 385.34   A 14.99 14.99 0.0 0 1 789.98 370.35   A 14.99 14.99 0.0 0 1 804.97 355.36   A 14.99 14.99 0.0 0 1 819.96 370.35   Z   M 818.64 370.32   A 13.64 13.64 0.0 0 0 805.00 356.68   A 13.64 13.64 0.0 0 0 791.36 370.32   A 13.64 13.64 0.0 0 0 805.00 383.96   A 13.64 13.64 0.0 0 0 818.64 370.32   Z"></path> <path fill="#fff" d="M 663.00 378.25   L 663.00 363.50   Q 663.00 363.01 663.50 362.96   L 686.51 361.07   Q 686.99 361.03 686.99 361.50   L 686.99 378.25   Q 686.99 378.76 687.50 378.76   L 703.50 378.74   Q 704.00 378.74 704.00 379.25   L 704.00 398.75   Q 704.00 399.24 703.50 399.24   L 687.49 399.19   Q 687.04 399.19 687.03 399.64   Q 686.87 415.11 687.03 430.56   C 687.14 441.13 696.03 442.22 704.13 440.15   Q 704.86 439.96 704.89 440.72   L 705.58 459.28   Q 705.60 459.77 705.12 459.85   Q 691.75 462.28 682.38 460.16   C 667.64 456.83 663.17 445.11 663.12 431.50   Q 663.07 415.56 662.94 399.61   Q 662.94 399.18 662.50 399.18   L 652.77 399.25   Q 652.28 399.26 652.28 398.77   L 652.29 379.23   Q 652.29 378.75 652.77 378.75   L 662.50 378.75   Q 663.00 378.75 663.00 378.25   Z"></path> <path fill="#fff" d="M 800.99 373.74   L 801.08 378.29   Q 801.09 379.06 800.33 379.14   L 799.84 379.19   A 0.62 0.61 87.0 0 1 799.17 378.58   L 799.16 362.27   Q 799.16 361.81 799.63 361.79   C 803.75 361.66 809.34 360.90 811.29 363.97   Q 814.61 369.21 809.10 372.56   Q 808.61 372.85 808.92 373.33   L 812.28 378.56   Q 812.75 379.29 811.89 379.17   L 811.24 379.09   A 1.16 1.15 77.3 0 1 810.42 378.57   L 807.18 373.55   A 0.81 0.81 0.0 0 0 806.50 373.18   L 801.50 373.22   A 0.51 0.51 0.0 0 0 800.99 373.74   Z   M 800.98 363.47   L 801.00 371.27   A 0.29 0.29 0.0 0 0 801.29 371.56   L 806.25 371.55   A 4.47 3.92 -0.1 0 0 810.71 367.62   L 810.71 367.08   A 4.47 3.92 -0.1 0 0 806.23 363.17   L 801.27 363.18   A 0.29 0.29 0.0 0 0 800.98 363.47   Z"></path> <path fill="#fff" d="M 619.55 385.24   L 619.50 378.24   Q 619.50 377.72 620.01 377.72   L 642.84 377.73   Q 643.45 377.73 643.45 378.34   L 643.44 458.80   A 0.91 0.91 0.0 0 1 642.53 459.71   L 620.36 459.72   A 0.86 0.86 0.0 0 1 619.50 458.85   L 619.53 452.49   Q 619.53 451.52 618.89 452.24   C 611.26 460.80 599.54 462.22 588.75 459.79   C 571.06 455.80 561.32 441.86 559.00 424.25   C 557.07 409.66 561.36 392.79 573.56 383.82   C 586.45 374.34 607.44 372.74 618.96 385.47   Q 619.55 386.13 619.55 385.24   Z   M 601.2456 437.9270   A 19.80 18.54 89.0 0 0 619.4372 417.8064   A 19.80 18.54 89.0 0 0 600.5544 398.3330   A 19.80 18.54 89.0 0 0 582.3628 418.4536   A 19.80 18.54 89.0 0 0 601.2456 437.9270   Z"></path> <path fill="#fff" d="M 216.28 428.51   C 221.70 440.70 237.52 442.58 247.06 434.11   A 1.44 1.41 23.9 0 1 248.00 433.76   L 272.50 433.75   Q 273.17 433.75 272.94 434.37   C 262.51 463.46 222.24 469.16 201.87 447.79   C 185.02 430.11 187.51 397.61 208.30 383.79   C 228.85 370.13 259.25 375.89 271.06 398.18   C 275.77 407.08 276.33 417.08 275.04 427.05   A 1.02 1.02 0.0 0 1 274.03 427.93   L 216.70 427.87   Q 215.99 427.86 216.28 428.51   Z   M 217.46 409.31   L 248.84 409.27   Q 249.32 409.27 249.20 408.80   Q 246.88 400.10 238.76 398.17   Q 223.08 394.44 216.99 408.58   A 0.53 0.52 -78.3 0 0 217.46 409.31   Z"></path> <path fill="#fff" d="M 551.00 425.37   C 548.55 440.61 539.98 452.12 525.57 457.75   C 496.52 469.10 465.42 447.47 468.29 415.23   Q 470.51 390.39 491.05 380.93   C 517.16 368.91 546.77 383.19 550.97 412.09   A 0.50 0.50 0.0 0 1 550.48 412.66   L 527.93 412.66   Q 527.33 412.66 527.14 412.09   C 522.94 399.69 508.01 394.84 497.90 403.63   C 487.46 412.70 490.42 434.01 504.80 437.56   C 514.67 439.99 523.64 435.20 527.12 425.41   Q 527.34 424.81 527.97 424.81   L 550.51 424.81   A 0.49 0.48 4.5 0 1 551.00 425.37   Z"></path> <path fill="#fff" d="M 734.60 428.43   C 739.73 440.66 755.84 442.63 765.28 434.12   A 1.44 1.43 -65.9 0 1 766.24 433.75   L 791.00 433.75   Q 791.64 433.75 791.40 434.35   Q 783.49 454.24 762.49 459.31   C 730.45 467.04 703.70 441.94 709.90 409.43   C 713.66 389.66 729.82 377.31 749.99 376.64   C 779.24 375.66 798.48 399.00 793.12 427.42   Q 793.03 427.92 792.52 427.92   L 734.98 427.87   Q 734.37 427.87 734.60 428.43   Z   M 767.57 409.30   A 0.19 0.19 0.0 0 0 767.75 409.06   C 765.93 402.75 761.50 399.04 755.00 397.78   Q 741.97 395.25 735.36 407.86   A 0.97 0.96 -76.1 0 0 736.21 409.28   L 767.57 409.30   Z"></path> <path fill="#fff" d="M 434.11 452.03   Q 429.55 457.33 423.49 459.20   C 409.63 463.47 392.08 460.31 385.70 445.53   C 382.52 438.16 381.89 431.30 381.86 422.35   Q 381.76 400.27 381.84 378.19   Q 381.84 377.73 382.30 377.73   L 405.47 377.72   Q 406.00 377.72 406.00 378.25   Q 406.00 400.77 406.04 423.23   C 406.08 446.21 433.71 442.75 433.50 422.24   Q 433.27 400.24 433.25 378.23   Q 433.25 377.72 433.76 377.72   L 458.28 377.72   A 0.56 0.55 90.0 0 1 458.83 378.28   L 458.84 459.06   A 0.65 0.65 0.0 0 1 458.19 459.71   L 435.24 459.75   Q 434.74 459.75 434.74 459.24   L 434.72 452.25   Q 434.72 451.32 434.11 452.03   Z"></path> <path fill="#fff" d="M 250.65 500.66   Q 249.12 501.89 247.23 501.13   Q 246.89 501.00 247.16 500.75   C 249.60 498.51 250.92 496.03 254.73 496.86   Q 255.24 496.97 254.84 497.30   Q 252.73 498.99 250.65 500.66   Z"></path> <path fill="#fff" d="M 509.63 500.64   Q 508.08 501.89 506.09 501.15   Q 505.68 501.00 506.02 500.72   C 508.53 498.66 509.78 495.97 513.54 496.87   Q 514.07 496.99 513.65 497.34   Q 511.64 499.01 509.63 500.64   Z"></path> <path fill="#fff" d="M 125.18 520.68   L 113.64 520.67   Q 113.03 520.67 112.79 521.24   L 110.76 526.20   Q 110.57 526.67 110.06 526.68   L 107.66 526.72   A 0.44 0.44 0.0 0 1 107.26 526.10   L 117.31 504.50   A 2.36 2.36 0.0 0 1 121.59 504.50   L 131.66 526.02   Q 131.95 526.66 131.25 526.67   L 129.01 526.70   A 0.92 0.91 -11.9 0 1 128.15 526.15   L 125.95 521.19   A 0.84 0.84 0.0 0 0 125.18 520.68   Z   M 114.61 517.20   A 0.34 0.34 0.0 0 0 114.92 517.68   L 123.96 517.68   A 0.34 0.34 0.0 0 0 124.27 517.20   L 119.75 507.59   A 0.34 0.34 0.0 0 0 119.13 507.59   L 114.61 517.20   Z"></path> <path fill="#fff" d="M 160.00 508.81   C 157.20 506.66 153.88 505.60 150.38 506.82   C 144.53 508.86 142.30 515.24 145.94 520.26   C 148.79 524.18 156.23 525.34 159.92 521.38   Q 160.29 520.99 160.66 521.37   L 162.00 522.74   Q 162.39 523.13 162.02 523.53   C 157.32 528.73 147.97 527.02 143.99 522.85   C 138.96 517.59 139.99 509.24 146.27 505.49   Q 154.12 500.80 162.15 506.45   Q 162.66 506.81 162.23 507.26   L 160.80 508.75   Q 160.43 509.13 160.00 508.81   Z"></path> <path fill="#fff" d="M 188.00 520.70   L 176.57 520.67   Q 175.95 520.66 175.71 521.23   L 173.59 526.11   A 0.95 0.95 0.0 0 1 172.72 526.68   L 170.57 526.70   A 0.48 0.48 0.0 0 1 170.14 526.02   L 180.15 504.53   A 2.38 2.38 0.0 0 1 184.46 504.52   L 194.49 525.96   Q 194.82 526.67 194.04 526.67   L 191.76 526.67   Q 191.27 526.67 191.07 526.23   L 188.79 521.21   A 0.87 0.87 0.0 0 0 188.00 520.70   Z   M 177.49 517.20   A 0.34 0.34 0.0 0 0 177.80 517.69   L 186.80 517.69   A 0.34 0.34 0.0 0 0 187.11 517.20   L 182.61 507.53   A 0.34 0.34 0.0 0 0 181.99 507.53   L 177.49 517.20   Z"></path> <path fill="#fff" d="M 205.68 503.87   A 0.38 0.38 0.0 0 1 206.06 503.49   L 216.49 503.49   A 12.01 11.25 0.0 0 1 228.50 514.74   L 228.50 515.42   A 12.01 11.25 -0.0 0 1 216.49 526.67   L 206.06 526.67   A 0.38 0.38 0.0 0 1 205.68 526.29   L 205.68 503.87   Z   M 209.12 506.89   L 209.06 523.27   A 0.45 0.45 0.0 0 0 209.51 523.72   L 216.66 523.75   A 8.34 8.15 0.2 0 0 225.03 515.63   L 225.03 514.65   A 8.34 8.15 0.2 0 0 216.72 506.47   L 209.57 506.44   A 0.45 0.45 0.0 0 0 209.12 506.89   Z"></path> <path fill="#fff" d="M 244.66 513.27   L 255.78 513.26   A 0.40 0.40 0.0 0 1 256.18 513.66   L 256.18 515.86   A 0.40 0.40 0.0 0 1 255.78 516.26   L 244.66 516.26   A 0.40 0.40 0.0 0 0 244.26 516.66   L 244.26 523.27   A 0.40 0.40 0.0 0 0 244.66 523.67   L 257.61 523.66   A 0.40 0.40 0.0 0 1 258.01 524.06   L 258.00 526.25   A 0.40 0.40 0.0 0 1 257.60 526.65   L 241.17 526.65   A 0.40 0.40 0.0 0 1 240.77 526.25   L 240.76 503.90   A 0.40 0.40 0.0 0 1 241.16 503.50   L 257.12 503.50   A 0.40 0.40 0.0 0 1 257.52 503.89   L 257.58 506.07   A 0.40 0.40 0.0 0 1 257.18 506.48   L 244.66 506.49   A 0.40 0.40 0.0 0 0 244.26 506.89   L 244.26 512.87   A 0.40 0.40 0.0 0 0 244.66 513.27   Z"></path> <path fill="#fff" d="M 274.07 511.08   L 273.99 526.10   Q 273.98 526.68 273.40 526.68   L 271.33 526.67   Q 270.75 526.66 270.75 526.08   L 270.74 504.78   A 1.63 1.63 0.0 0 1 273.76 503.94   L 283.10 519.25   Q 283.46 519.84 283.82 519.25   L 293.04 503.87   A 1.60 1.60 0.0 0 1 296.01 504.69   L 296.02 526.11   A 0.56 0.55 -0.0 0 1 295.46 526.66   L 293.31 526.64   Q 292.75 526.63 292.75 526.06   L 292.76 511.47   Q 292.76 509.89 291.93 511.24   L 284.62 523.13   A 1.48 1.48 0.0 0 1 282.09 523.12   L 274.64 510.92   Q 274.07 509.99 274.07 511.08   Z"></path> <rect fill="#fff" x="-1.68" y="-11.59" transform="translate(312.09,515.08) rotate(0.1)" width="3.36" height="23.18" rx="0.88"></rect> <path fill="#fff" d="M 332.15 513.23   L 343.21 513.42   A 0.57 0.57 0.0 0 1 343.77 514.01   L 343.73 515.64   A 0.57 0.57 0.0 0 1 343.16 516.19   L 332.29 516.29   A 0.57 0.57 0.0 0 0 331.72 516.86   L 331.76 523.11   A 0.57 0.57 0.0 0 0 332.32 523.67   L 345.14 523.77   A 0.57 0.57 0.0 0 1 345.71 524.33   L 345.72 525.94   A 0.57 0.57 0.0 0 1 345.16 526.52   L 328.78 526.71   A 0.57 0.57 0.0 0 1 328.20 526.13   L 328.58 504.20   A 0.57 0.57 0.0 0 1 329.16 503.64   L 344.61 503.80   A 0.57 0.57 0.0 0 1 345.18 504.38   L 345.16 505.78   A 0.57 0.57 0.0 0 1 344.60 506.34   L 332.09 506.44   A 0.57 0.57 0.0 0 0 331.53 507.01   L 331.59 512.67   A 0.57 0.57 0.0 0 0 332.15 513.23   Z"></path> <path fill="#fff" d="M 374.74 503.79   A 0.28 0.28 0.0 0 1 375.02 503.51   L 385.59 503.51   A 11.97 10.92 -0.0 0 1 397.56 514.43   L 397.56 515.77   A 11.97 10.92 -0.0 0 1 385.59 526.69   L 375.02 526.69   A 0.28 0.28 0.0 0 1 374.74 526.41   L 374.74 503.79   Z   M 378.18 507.14   L 378.20 522.98   A 0.70 0.70 0.0 0 0 378.91 523.68   L 385.82 523.67   A 8.41 8.25 -0.1 0 0 394.21 515.41   L 394.21 514.67   A 8.41 8.25 -0.1 0 0 385.78 506.43   L 378.87 506.44   A 0.70 0.70 0.0 0 0 378.18 507.14   Z"></path> <path fill="#fff" d="M 413.14 517.00   C 413.17 521.87 415.94 524.22 420.78 523.70   Q 426.34 523.09 426.42 517.47   Q 426.52 510.77 426.54 503.99   Q 426.54 503.48 427.05 503.48   L 429.25 503.52   Q 429.87 503.53 429.86 504.15   Q 429.80 510.98 429.71 517.75   C 429.57 527.98 414.52 529.94 410.70 521.78   C 408.77 517.67 409.64 508.79 409.71 504.03   Q 409.72 503.50 410.25 503.50   L 412.51 503.49   Q 413.04 503.49 413.04 504.02   Q 413.11 510.52 413.14 517.00   Z"></path> <path fill="#fff" d="M 481.61 510.59   L 474.08 522.93   A 1.62 1.62 0.0 0 1 471.32 522.93   L 463.76 510.65   Q 463.21 509.77 463.21 510.80   L 463.20 526.14   Q 463.20 526.73 462.61 526.71   L 460.49 526.61   Q 459.93 526.59 459.93 526.03   L 459.93 504.79   A 1.69 1.69 0.0 0 1 463.07 503.91   L 472.45 519.34   Q 472.76 519.85 473.08 519.33   L 482.35 503.88   A 1.66 1.66 0.0 0 1 485.43 504.73   L 485.42 526.04   A 0.60 0.60 0.0 0 1 484.83 526.64   L 482.81 526.69   A 0.63 0.63 0.0 0 1 482.16 526.06   L 482.16 510.75   Q 482.16 509.69 481.61 510.59   Z"></path> <path fill="#fff" d="M 503.23 516.66   L 503.22 523.26   A 0.40 0.40 0.0 0 0 503.62 523.66   L 516.60 523.65   A 0.40 0.40 0.0 0 1 517.00 524.06   L 516.95 526.26   A 0.40 0.40 0.0 0 1 516.55 526.65   L 500.14 526.65   A 0.40 0.40 0.0 0 1 499.74 526.25   L 499.73 503.90   A 0.40 0.40 0.0 0 1 500.13 503.50   L 516.05 503.49   A 0.40 0.40 0.0 0 1 516.45 503.88   L 516.48 506.08   A 0.40 0.40 0.0 0 1 516.08 506.49   L 503.63 506.49   A 0.40 0.40 0.0 0 0 503.23 506.89   L 503.22 512.87   A 0.40 0.40 0.0 0 0 503.62 513.27   L 514.70 513.27   A 0.40 0.40 0.0 0 1 515.10 513.67   L 515.10 515.86   A 0.40 0.40 0.0 0 1 514.70 516.26   L 503.63 516.26   A 0.40 0.40 0.0 0 0 503.23 516.66   Z"></path> <path fill="#fff" d="M 529.69 503.76   A 0.27 0.27 0.0 0 1 529.96 503.49   L 540.49 503.49   A 12.02 11.24 -0.0 0 1 552.51 514.73   L 552.51 515.43   A 12.02 11.24 -0.0 0 1 540.49 526.67   L 529.96 526.67   A 0.27 0.27 0.0 0 1 529.69 526.40   L 529.69 503.76   Z   M 533.13 506.84   L 533.19 523.38   A 0.33 0.33 0.0 0 0 533.52 523.71   L 540.78 523.68   A 8.29 8.10 -0.2 0 0 549.04 515.55   L 549.04 514.55   A 8.29 8.10 -0.2 0 0 540.72 506.48   L 533.46 506.51   A 0.33 0.33 0.0 0 0 533.13 506.84   Z"></path> <rect fill="#fff" x="564.77" y="503.49" width="3.50" height="23.20" rx="0.37"></rect> <path fill="#fff" d="M 597.65 507.28   C 595.85 506.23 592.32 506.14 590.39 506.82   C 581.90 509.81 582.15 521.40 591.00 523.53   Q 596.08 524.75 599.99 521.46   Q 600.41 521.10 600.80 521.50   L 602.01 522.75   Q 602.38 523.14 602.02 523.54   C 597.29 528.73 587.95 527.03 583.96 522.83   C 579.01 517.63 579.96 509.40 586.09 505.60   Q 593.96 500.72 602.15 506.45   Q 602.66 506.81 602.23 507.26   L 600.79 508.75   Q 600.45 509.11 600.04 508.82   Q 598.89 507.99 597.65 507.28   Z"></path> <path fill="#fff" d="M 616.62 521.07   L 614.21 526.24   Q 614.00 526.70 613.49 526.69   L 611.24 526.66   A 0.44 0.44 0.0 0 1 610.85 526.03   L 620.81 504.75   A 2.48 2.48 0.0 0 1 625.30 504.75   L 635.24 525.99   A 0.52 0.52 0.0 0 1 634.75 526.73   L 632.58 526.64   Q 632.02 526.62 631.79 526.11   L 629.55 521.21   A 0.92 0.91 77.2 0 0 628.72 520.68   L 617.23 520.68   Q 616.80 520.68 616.62 521.07   Z   M 618.23 517.19   A 0.34 0.34 0.0 0 0 618.54 517.68   L 627.51 517.69   A 0.34 0.34 0.0 0 0 627.82 517.21   L 623.35 507.54   A 0.34 0.34 0.0 0 0 622.73 507.54   L 618.23 517.19   Z"></path> <path fill="#fff" d="M 649.59 510.84   L 649.59 526.06   A 0.64 0.64 0.0 0 1 648.94 526.70   L 646.92 526.65   A 0.61 0.61 0.0 0 1 646.32 526.04   L 646.36 504.73   A 1.62 1.62 0.0 0 1 649.37 503.89   L 658.76 519.30   Q 659.09 519.83 659.41 519.30   L 668.67 503.90   A 1.62 1.62 0.0 0 1 671.68 504.74   L 671.67 526.16   A 0.56 0.56 0.0 0 1 671.09 526.72   L 669.10 526.64   A 0.79 0.79 0.0 0 1 668.34 525.85   L 668.30 510.59   Q 668.30 509.97 667.98 510.50   L 660.24 523.22   A 1.41 1.41 0.0 0 1 657.84 523.23   L 650.08 510.69   Q 649.58 509.89 649.59 510.84   Z"></path> <path fill="#fff" d="M 689.46 516.60   L 689.44 523.33   A 0.34 0.34 0.0 0 0 689.78 523.67   L 702.92 523.66   A 0.34 0.34 0.0 0 1 703.26 524.00   L 703.26 526.31   A 0.34 0.34 0.0 0 1 702.92 526.65   L 686.27 526.64   A 0.34 0.34 0.0 0 1 685.93 526.30   L 685.92 503.84   A 0.34 0.34 0.0 0 1 686.26 503.50   L 702.63 503.51   A 0.34 0.34 0.0 0 1 702.97 503.85   L 702.94 506.13   A 0.34 0.34 0.0 0 1 702.60 506.47   L 689.80 506.49   A 0.34 0.34 0.0 0 0 689.46 506.83   L 689.45 512.93   A 0.34 0.34 0.0 0 0 689.79 513.27   L 700.91 513.26   A 0.34 0.34 0.0 0 1 701.25 513.60   L 701.28 515.92   A 0.34 0.34 0.0 0 1 700.94 516.26   L 689.80 516.26   A 0.34 0.34 0.0 0 0 689.46 516.60   Z"></path> <path fill="#fff" d="M 733.00 520.03   L 732.93 504.12   Q 732.93 503.53 733.51 503.52   L 735.64 503.49   Q 736.30 503.47 736.30 504.14   L 736.30 525.49   A 1.60 1.60 0.0 0 1 733.47 526.51   L 719.84 510.03   Q 719.39 509.48 719.39 510.19   L 719.38 526.17   A 0.53 0.53 0.0 0 1 718.83 526.70   L 716.49 526.64   Q 715.86 526.62 715.86 525.99   L 715.85 504.83   A 1.73 1.73 0.0 0 1 718.91 503.73   L 732.54 520.20   Q 733.01 520.76 733.00 520.03   Z"></path> <path fill="#fff" d="M 758.51 506.97   L 758.51 526.15   A 0.49 0.49 0.0 0 1 758.03 526.64   L 755.56 526.70   A 0.49 0.49 0.0 0 1 755.06 526.21   L 755.05 506.97   A 0.49 0.49 0.0 0 0 754.56 506.48   L 747.45 506.49   A 0.49 0.49 0.0 0 1 746.96 506.00   L 746.97 503.98   A 0.49 0.49 0.0 0 1 747.46 503.49   L 766.06 503.54   A 0.49 0.49 0.0 0 1 766.55 504.03   L 766.56 506.00   A 0.49 0.49 0.0 0 1 766.07 506.49   L 759.00 506.48   A 0.49 0.49 0.0 0 0 758.51 506.97   Z"></path> </svg>