<svg xmlns="http://www.w3.org/2000/svg"  viewBox="0 0 49 32" fill="none"><path d="M13.531.483a7.594 7.594 0 0 0-4.41 3.79L.817 20.616a7.598 7.598 0 0 0 13.561 6.856l8.304-16.343A7.598 7.598 0 0 0 13.532.483Z" fill="url(#a)"/><path d="M26.254.483a7.595 7.595 0 0 0-4.41 3.79l-8.303 16.344a7.597 7.597 0 1 0 13.56 6.855l8.304-16.343a7.587 7.587 0 0 0 .438-5.798A7.6 7.6 0 0 0 28.625.104a7.55 7.55 0 0 0-2.37.38Z" fill="url(#b)"/><path d="M38.98.397a7.607 7.607 0 0 0-4.407 3.876l-8.304 16.344h.027a7.597 7.597 0 1 0 13.56 6.855L48.13 11.13a7.595 7.595 0 0 0 .51-5.846A7.605 7.605 0 0 0 44.833.818a7.596 7.596 0 0 0-5.852-.42Z" fill="url(#c)"/><defs><linearGradient id="a" x1="16.819" y1="4.778" x2="7.056" y2="26.146" gradientUnits="userSpaceOnUse"><stop stop-color="#00F"/></linearGradient><linearGradient id="b" x1="31.468" y1=".647" x2="17.477" y2="31.099" gradientUnits="userSpaceOnUse"><stop stop-color="#FC0"/></linearGradient><linearGradient id="c" x1="41.662" y1="6.119" x2="31.887" y2="27.513" gradientUnits="userSpaceOnUse"><stop stop-color="#00F"/></linearGradient></defs></svg>