<svg width="380" height="520" viewBox="0 0 380 520" fill="none" xmlns="http://www.w3.org/2000/svg"><g style="mix-blend-mode:overlay" stroke="#fff" stroke-width="2" stroke-linecap="round"><path transform="rotate(-70.035 141.752 -177.024) skewX(-.07)" d="M1-1h13.871"/><path transform="rotate(-60.047 160.735 -245.868) skewX(-.094)" d="M1-1h13.867"/><path transform="rotate(-50.054 180.504 -342.867) skewX(-.107)" d="M1-1h13.863"/><path transform="rotate(-40.053 200.946 -488.753) skewX(-.107)" d="M1-1h13.857"/><path transform="rotate(-139.947 14.346 3.08) skewX(.107)" d="M1-1h13.857"/><path transform="rotate(-129.946 32.422 -5.6) skewX(.107)" d="M1-1h13.863"/><path transform="rotate(-119.953 50.412 -18.356) skewX(.094)" d="M1-1h13.867"/><path transform="rotate(-109.965 68.465 -35.556) skewX(.07)" d="M1-1h13.871"/><path transform="rotate(-99.981 86.654 -58.118) skewX(.037)" d="M1-1h13.874"/><path d="M191.499 16.15V2.275"/><path transform="rotate(-80.019 123.258 -126.1) skewX(-.037)" d="M1-1h13.874"/><path transform="rotate(-70.035 143.753 -137.693) skewX(-.07)" d="M1-1h13.871"/><path transform="rotate(-60.047 166.944 -201.13) skewX(-.094)" d="M1-1h13.867"/><path transform="rotate(-50.053 192.43 -290.793) skewX(-.107)" d="M1-1h13.863"/><path transform="rotate(-40.053 221.23 -425.962) skewX(-.107)" d="M1-1h13.857"/><path transform="rotate(-30.047 256.541 -651.042) skewX(-.094)" d="M1-1h13.852"/><path transform="rotate(-129.946 21.083 16.613) skewX(.107)" d="M1-1h13.863"/><path transform="rotate(-119.953 40.615 5.835) skewX(.094)" d="M1-1h13.867"/><path transform="rotate(-109.965 60.371 -9.175) skewX(.07)" d="M1-1h13.871"/><path transform="rotate(-99.981 80.486 -29.265) skewX(.037)" d="M1-1h13.874"/><path d="M155.845 43.93V30.055"/><path transform="rotate(-80.019 121.982 -90.974) skewX(-.037)" d="M1-1h13.874"/><path transform="rotate(-70.035 145.751 -98.36) skewX(-.07)" d="M1-1h13.871"/><path transform="rotate(-60.047 173.157 -156.397) skewX(-.094)" d="M1-1h13.867"/><path transform="rotate(-50.054 204.357 -238.726) skewX(-.107)" d="M1-1h13.863"/><path transform="rotate(-40.053 241.514 -363.17) skewX(-.107)" d="M1-1h13.857"/><path transform="rotate(-30.047 290.47 -570.739) skewX(-.094)" d="M1-1h13.852"/><path transform="rotate(-20.035 371.567 -983.964) skewX(-.07)" d="M1-1h13.848"/><path transform="rotate(-119.953 30.816 30.028) skewX(.094)" d="M1-1h13.867"/><path transform="rotate(-109.965 52.28 17.204) skewX(.07)" d="M1-1h13.871"/><path transform="rotate(-99.981 74.322 -.413) skewX(.037)" d="M1-1h13.874"/><path d="M120.197 71.712V57.837"/><path transform="rotate(-80.019 120.705 -55.845) skewX(-.037)" d="M1-1h13.874"/><path transform="rotate(-70.035 147.751 -59.03) skewX(-.07)" d="M1-1h13.871"/><path transform="rotate(-60.047 179.367 -111.658) skewX(-.094)" d="M1-1h13.867"/><path transform="rotate(-50.054 216.284 -186.652) skewX(-.107)" d="M1-1h13.863"/><path transform="rotate(-40.054 261.797 -300.372) skewX(-.107)" d="M1-1h13.857"/><path transform="rotate(-30.047 324.403 -490.437) skewX(-.094)" d="M1-1h13.852"/><path transform="rotate(-20.035 432.381 -869.168) skewX(-.07)" d="M1-1h13.848"/><path transform="rotate(-10.019 715.988 -2001.143) skewX(-.037)" d="M1-1h13.846"/><path transform="rotate(-109.965 44.185 43.585) skewX(.07)" d="M1-1h13.871"/><path transform="rotate(-99.981 68.154 28.44) skewX(.037)" d="M1-1h13.874"/><path d="M84.543 99.493V85.618"/><path transform="rotate(-80.019 119.43 -20.72) skewX(-.037)" d="M1-1h13.874"/><path transform="rotate(-70.035 149.75 -19.698) skewX(-.07)" d="M1-1h13.871"/><path transform="rotate(-60.047 185.578 -66.925) skewX(-.094)" d="M1-1h13.867"/><path transform="rotate(-50.054 228.212 -134.583) skewX(-.107)" d="M1-1h13.863"/><path transform="rotate(-40.053 282.08 -237.583) skewX(-.107)" d="M1-1h13.857"/><path transform="rotate(-30.047 358.332 -410.124) skewX(-.094)" d="M1-1h13.852"/><path transform="rotate(-20.035 493.186 -754.355) skewX(-.07)" d="M1-1h13.848"/><path transform="rotate(-10.019 856.636 -1783.875) skewX(-.037)" d="M1-1h13.846"/><path transform="rotate(-99.981 61.989 57.292) skewX(.037)" d="M1-1h13.874"/><path d="M48.895 127.273v-13.874"/><path transform="rotate(-80.019 118.15 14.408) skewX(-.037)" d="M1-1h13.874"/><path d="M377.677 121.336h-13.845"/><path transform="rotate(-70.035 151.75 19.632) skewX(-.07)" d="M1-1h13.871"/><path transform="rotate(-60.047 191.788 -22.187) skewX(-.094)" d="M1-1h13.867"/><path transform="rotate(-50.054 240.137 -82.51) skewX(-.107)" d="M1-1h13.863"/><path transform="rotate(-40.053 302.363 -174.784) skewX(-.107)" d="M1-1h13.857"/><path transform="rotate(-30.047 392.26 -329.824) skewX(-.094)" d="M1-1h13.852"/><path transform="rotate(-20.035 554.003 -639.56) skewX(-.07)" d="M1-1h13.848"/><path transform="rotate(-10.019 997.279 -1566.636) skewX(-.037)" d="M1-1h13.846"/><path d="M13.242 155.055V141.18"/><path transform="rotate(-80.019 116.875 49.534) skewX(-.037)" d="M1-1h13.874"/><path d="M342.023 149.118h-13.845"/><path transform="rotate(-169.981 195.806 58.214) skewX(.037)" d="M1-1h13.846"/><path transform="rotate(-70.035 153.748 58.965) skewX(-.07)" d="M1-1h13.871"/><path transform="rotate(-60.047 198 22.547) skewX(-.094)" d="M1-1h13.867"/><path transform="rotate(-50.054 252.064 -30.442) skewX(-.107)" d="M1-1h13.863"/><path transform="rotate(-40.053 322.648 -111.993) skewX(-.107)" d="M1-1h13.857"/><path transform="rotate(-30.047 426.191 -249.512) skewX(-.094)" d="M1-1h13.852"/><path transform="rotate(-20.035 614.813 -524.748) skewX(-.07)" d="M1-1h13.848"/><path transform="rotate(-10.019 1137.937 -1349.369) skewX(-.037)" d="M1-1h13.846"/><path transform="rotate(-80.019 115.598 84.664) skewX(-.037)" d="M1-1h13.874"/><path d="M306.375 176.898H292.53"/><path transform="rotate(-169.981 179.196 73.668) skewX(.037)" d="M1-1h13.846"/><path transform="rotate(-159.965 204.779 56.056) skewX(.07)" d="M1-1h13.848"/><path transform="rotate(-70.035 155.75 98.295) skewX(-.07)" d="M1-1h13.871"/><path transform="rotate(-60.047 204.21 67.285) skewX(-.094)" d="M1-1h13.867"/><path transform="rotate(-50.054 263.989 21.631) skewX(-.107)" d="M1-1h13.863"/><path transform="rotate(-40.053 342.93 -49.195) skewX(-.107)" d="M1-1h13.857"/><path transform="rotate(-30.047 460.12 -169.21) skewX(-.094)" d="M1-1h13.852"/><path transform="rotate(-20.035 675.626 -409.952) skewX(-.07)" d="M1-1h13.848"/><path transform="rotate(-10.019 1278.584 -1132.121) skewX(-.037)" d="M1-1h13.846"/><path transform="rotate(-149.953 216.408 53.221) skewX(.094)" d="M1-1h13.852"/><path d="M270.726 204.68h-13.845"/><path transform="rotate(-169.981 162.59 89.121) skewX(.037)" d="M1-1h13.846"/><path transform="rotate(-159.965 189.406 73.095) skewX(.07)" d="M1-1h13.848"/><path transform="rotate(-60.047 210.422 112.02) skewX(-.094)" d="M1-1h13.867"/><path transform="rotate(-50.054 275.918 73.7) skewX(-.107)" d="M1-1h13.863"/><path transform="rotate(-40.053 363.214 13.596) skewX(-.107)" d="M1-1h13.857"/><path transform="rotate(-30.047 494.05 -88.899) skewX(-.094)" d="M1-1h13.852"/><path transform="rotate(-20.035 736.437 -295.14) skewX(-.07)" d="M1-1h13.848"/><path transform="rotate(-10.019 1419.232 -914.852) skewX(-.037)" d="M1-1h13.846"/><path transform="rotate(-149.953 202.31 71.896) skewX(.094)" d="M1-1h13.852"/><path transform="rotate(-139.946 231.128 49.951) skewX(.107)" d="M1-1h13.857"/><path d="M235.073 232.46h-13.845"/><path transform="rotate(-169.981 145.98 104.574) skewX(.037)" d="M1-1h13.846"/><path transform="rotate(-159.965 174.035 90.135) skewX(.07)" d="M1-1h13.848"/><path transform="rotate(-50.054 287.844 125.773) skewX(-.107)" d="M1-1h13.863"/><path transform="rotate(-40.053 383.495 76.394) skewX(-.107)" d="M1-1h13.857"/><path transform="rotate(-30.047 527.98 -8.596) skewX(-.094)" d="M1-1h13.852"/><path transform="rotate(-20.035 797.251 -180.344) skewX(-.07)" d="M1-1h13.848"/><path transform="rotate(-10.018 1559.887 -697.624) skewX(-.037)" d="M1-1h13.846"/><path transform="rotate(-149.953 188.214 90.57) skewX(.094)" d="M1-1h13.852"/><path transform="rotate(-139.946 218.364 70.34) skewX(.107)" d="M1-1h13.857"/><path transform="rotate(-129.946 249.24 45.439) skewX(.107)" d="M1-1h13.863"/><path d="M199.424 260.242H185.58"/><path transform="rotate(-169.982 129.374 120.027) skewX(.037)" d="M1-1h13.846"/><path transform="rotate(-159.965 158.665 107.174) skewX(.07)" d="M1-1h13.848"/><path transform="rotate(-40.053 403.78 139.185) skewX(-.107)" d="M1-1h13.857"/><path transform="rotate(-30.047 561.91 71.715) skewX(-.094)" d="M1-1h13.852"/><path transform="rotate(-20.035 858.061 -65.533) skewX(-.07)" d="M1-1h13.848"/><path transform="rotate(-10.019 1700.518 -480.34) skewX(-.037)" d="M1-1h13.846"/><path transform="rotate(-149.953 174.115 109.246) skewX(.094)" d="M1-1h13.852"/><path transform="rotate(-139.947 205.603 90.727) skewX(.107)" d="M1-1h13.857"/><path transform="rotate(-129.946 237.897 67.652) skewX(.107)" d="M1-1h13.863"/><path transform="rotate(-119.953 271.31 39.282) skewX(.094)" d="M1-1h13.867"/><path d="M163.771 288.023h-13.845"/><path transform="rotate(-169.981 112.764 135.48) skewX(.037)" d="M1-1h13.846"/><path transform="rotate(-159.965 143.291 124.213) skewX(.07)" d="M1-1h13.848"/><path transform="rotate(-30.047 595.841 152.017) skewX(-.094)" d="M1-1h13.852"/><path transform="rotate(-20.035 918.874 49.263) skewX(-.07)" d="M1-1h13.848"/><path transform="rotate(-10.019 1841.166 -263.095) skewX(-.037)" d="M1-1h13.846"/><path transform="rotate(-149.953 160.02 127.92) skewX(.094)" d="M1-1h13.852"/><path transform="rotate(-139.947 192.84 111.116) skewX(.107)" d="M1-1h13.857"/><path transform="rotate(-129.946 226.558 89.864) skewX(.107)" d="M1-1h13.863"/><path transform="rotate(-119.953 261.511 63.474) skewX(.094)" d="M1-1h13.867"/><path transform="rotate(-109.965 298.323 31.2) skewX(.07)" d="M1-1h13.871"/><path d="M128.122 315.804h-13.844"/><path transform="rotate(-169.981 96.158 150.933) skewX(.037)" d="M1-1h13.846"/><path transform="rotate(-159.965 127.921 141.252) skewX(.07)" d="M1-1h13.848"/><path transform="rotate(-20.035 979.684 164.074) skewX(-.07)" d="M1-1h13.848"/><path transform="rotate(-10.019 1981.817 -45.824) skewX(-.037)" d="M1-1h13.846"/><path transform="rotate(-149.953 145.92 146.596) skewX(.094)" d="M1-1h13.852"/><path transform="rotate(-139.947 180.078 131.503) skewX(.107)" d="M1-1h13.857"/><path transform="rotate(-129.946 215.22 112.076) skewX(.107)" d="M1-1h13.863"/><path transform="rotate(-119.953 251.715 87.666) skewX(.094)" d="M1-1h13.867"/><path transform="rotate(-109.965 290.229 57.58) skewX(.07)" d="M1-1h13.871"/><path transform="rotate(-99.981 331.539 20.456) skewX(.037)" d="M1-1h13.874"/><path d="M92.469 343.585H78.624"/><path transform="rotate(-169.981 79.549 166.386) skewX(.037)" d="M1-1h13.846"/><path transform="rotate(-159.965 112.548 158.292) skewX(.07)" d="M1-1h13.848"/><path transform="rotate(-10.018 2122.486 171.41) skewX(-.037)" d="M1-1h13.846"/><path transform="rotate(-149.953 131.824 165.27) skewX(.094)" d="M1-1h13.852"/><path transform="rotate(-139.947 167.315 151.892) skewX(.107)" d="M1-1h13.857"/><path transform="rotate(-129.946 203.878 134.29) skewX(.107)" d="M1-1h13.863"/><path transform="rotate(-119.953 241.915 111.858) skewX(.094)" d="M1-1h13.867"/><path transform="rotate(-109.965 282.137 83.96) skewX(.07)" d="M1-1h13.871"/><path transform="rotate(-99.981 325.374 49.308) skewX(.037)" d="M1-1h13.874"/><path d="M365.795 377.304v-13.875m-308.974 7.937H42.976"/><path transform="rotate(-169.982 62.942 181.838) skewX(.037)" d="M1-1h13.846"/><path transform="rotate(-159.965 97.178 175.33) skewX(.07)" d="M1-1h13.848"/><path transform="rotate(-149.953 117.725 183.945) skewX(.094)" d="M1-1h13.852"/><path transform="rotate(-139.947 154.553 172.279) skewX(.107)" d="M1-1h13.857"/><path transform="rotate(-129.946 192.539 156.502) skewX(.107)" d="M1-1h13.863"/><path transform="rotate(-119.953 232.118 136.049) skewX(.094)" d="M1-1h13.867"/><path transform="rotate(-109.965 274.043 110.34) skewX(.07)" d="M1-1h13.871"/><path transform="rotate(-99.981 319.206 78.161) skewX(.037)" d="M1-1h13.874"/><path d="M330.142 405.084V391.21"/><path transform="rotate(-80.019 424.263 -14.222) skewX(-.037)" d="M1-1h13.874"/><path d="M21.167 399.147H7.322"/><path transform="rotate(-169.981 46.333 197.292) skewX(.037)" d="M1-1h13.846"/><path transform="rotate(-159.965 81.804 192.37) skewX(.07)" d="M1-1h13.848"/><path transform="rotate(-70.035 490.623 -42.164) skewX(-.07)" d="M1-1h13.871"/><path transform="rotate(-149.953 103.63 202.619) skewX(.094)" d="M1-1h13.852"/><path transform="rotate(-139.947 141.79 192.667) skewX(.107)" d="M1-1h13.857"/><path transform="rotate(-129.946 181.197 178.715) skewX(.107)" d="M1-1h13.863"/><path transform="rotate(-119.953 222.319 160.242) skewX(.094)" d="M1-1h13.867"/><path transform="rotate(-109.965 265.951 136.72) skewX(.07)" d="M1-1h13.871"/><path transform="rotate(-99.981 313.042 107.014) skewX(.037)" d="M1-1h13.874"/><path d="M294.493 432.866v-13.875"/><path transform="rotate(-80.019 422.985 20.907) skewX(-.037)" d="M1-1h13.874"/><path transform="rotate(-169.981 29.726 212.745) skewX(.037)" d="M1-1h13.846"/><path transform="rotate(-159.965 66.434 209.409) skewX(.07)" d="M1-1h13.848"/><path transform="rotate(-70.035 492.624 -2.834) skewX(-.07)" d="M1-1h13.871"/><path transform="rotate(-60.047 578.986 -81.884) skewX(-.094)" d="M1-1h13.867"/><path transform="rotate(-149.953 89.531 221.294) skewX(.094)" d="M1-1h13.852"/><path transform="rotate(-139.947 129.029 213.055) skewX(.107)" d="M1-1h13.857"/><path transform="rotate(-129.946 169.858 200.928) skewX(.107)" d="M1-1h13.863"/><path transform="rotate(-119.953 212.522 184.432) skewX(.094)" d="M1-1h13.867"/><path transform="rotate(-109.965 257.857 163.1) skewX(.07)" d="M1-1h13.871"/><path transform="rotate(-99.981 306.875 135.867) skewX(.037)" d="M1-1h13.874"/><path d="M258.84 460.647v-13.874"/><path transform="rotate(-80.019 421.71 56.032) skewX(-.037)" d="M1-1h13.874"/><path transform="rotate(-159.965 51.06 226.449) skewX(.07)" d="M1-1h13.848"/><path transform="rotate(-70.035 494.623 36.5) skewX(-.07)" d="M1-1h13.871"/><path transform="rotate(-60.047 585.199 -37.15) skewX(-.094)" d="M1-1h13.867"/><path transform="rotate(-50.054 702.135 -140.67) skewX(-.107)" d="M1-1h13.863"/><path transform="rotate(-149.953 75.435 239.969) skewX(.094)" d="M1-1h13.852"/><path transform="rotate(-139.947 116.265 233.443) skewX(.107)" d="M1-1h13.857"/><path transform="rotate(-129.946 158.516 223.14) skewX(.107)" d="M1-1h13.863"/><path transform="rotate(-119.953 202.723 208.625) skewX(.094)" d="M1-1h13.867"/><path transform="rotate(-109.965 249.766 189.48) skewX(.07)" d="M1-1h13.871"/><path transform="rotate(-99.981 300.71 164.72) skewX(.037)" d="M1-1h13.874"/><path d="M223.192 488.428v-13.875"/><path transform="rotate(-80.019 420.432 91.16) skewX(-.037)" d="M1-1h13.874"/><path transform="rotate(-70.035 496.622 75.83) skewX(-.07)" d="M1-1h13.871"/><path transform="rotate(-60.047 591.41 7.589) skewX(-.094)" d="M1-1h13.867"/><path transform="rotate(-50.054 714.061 -88.595) skewX(-.107)" d="M1-1h13.863"/><path transform="rotate(-40.053 884.923 -233.298) skewX(-.107)" d="M1-1h13.857"/><path transform="rotate(-139.947 103.504 253.83) skewX(.107)" d="M1-1h13.857"/><path transform="rotate(-129.946 147.177 245.354) skewX(.107)" d="M1-1h13.863"/><path transform="rotate(-119.953 192.926 232.817) skewX(.094)" d="M1-1h13.867"/><path transform="rotate(-109.965 241.67 215.861) skewX(.07)" d="M1-1h13.871"/><path transform="rotate(-99.981 294.543 193.573) skewX(.037)" d="M1-1h13.874"/><path d="M187.538 516.209v-13.874"/><path transform="rotate(-80.019 419.156 126.287) skewX(-.037)" d="M1-1h13.874"/></g></svg>