<svg width="558" height="362" viewBox="0 0 558 362" fill="none" xmlns="http://www.w3.org/2000/svg">
<path d="M469.3 227.417C469.3 227.967 469.3 228.517 469.117 229.25C468.567 242.267 467.1 255.283 465.083 268.117C464.9 269.4 464.717 270.5 464.533 271.783C464.533 272.333 464.35 272.883 464.167 273.617C463.983 274.9 463.617 276.367 463.433 277.65C461.05 290.667 458.117 303.5 454.633 316.15C454.45 316.7 454.267 317.25 454.083 317.983C453.717 319.45 453.167 321.1 452.8 322.567C449.317 334.667 444.917 347.133 438.5 358.133C437.95 359.233 437.217 360.333 436.483 361.433H19.3999C18.1166 360.333 16.6499 359.233 15.5499 358.133C8.39992 351.533 2.89992 343.283 1.06658 334.3C0.333251 331 0.149919 327.7 0.516586 324.4C0.699919 323.117 0.883251 321.833 1.06658 320.55C4.54992 304.05 19.3999 291.767 30.5833 277.65C32.9666 274.533 35.3499 271.417 37.1833 268.3C38.0999 266.833 38.8333 265.367 39.5666 263.717C44.6999 252.9 45.4333 241.167 43.9666 229.433C43.5999 226.5 43.0499 223.567 42.4999 220.817C41.3999 215.317 39.7499 210 38.0999 204.683C36.6333 200.1 34.7999 195.333 33.1499 190.75C27.8333 176.267 22.3333 161.6 21.4166 146.383C18.6666 106.233 50.7499 66.6333 92.5499 58.3833C117.3 53.4333 142.783 58.5667 167.533 62.9667C192.283 67.3667 218.5 70.6667 242.333 62.9667C260.117 57.1 276.25 42.8 280.833 25.9333C282.117 21.5333 280.1 12.9167 281.933 9.43333C287.067 0.266659 309.8 0.0833313 318.783 0.816665C331.8 1.91666 344.633 6.13333 356 11.8167C406.05 36.5667 442.717 84.2333 458.85 139.05C459.033 139.6 459.217 140.15 459.4 140.883C459.767 141.983 460.133 143.267 460.317 144.367C460.867 146.2 461.233 147.85 461.6 149.683C464.35 160.867 466.183 172.05 467.467 183.417C467.467 183.967 467.65 184.517 467.65 185.25C469.667 199 470.033 213.3 469.3 227.417Z" fill="#0049E0" fill-opacity="0.06"/>
<path d="M132.7 92.3L115.65 88.2667V87.9L132.883 91.9333L132.7 92.3Z" fill="#111D33"/>
<path d="M42.6832 220.633C43.2332 223.567 43.7833 226.5 44.1499 229.25C45.6166 240.983 44.6999 252.717 39.7499 263.533C39.0166 265.183 38.0999 266.65 37.3666 268.117H465.267C467.283 255.283 468.75 242.267 469.483 229.25C469.483 228.7 469.483 228.15 469.667 227.417C470.217 213.117 470.033 199 468.567 184.883C468.567 184.333 468.383 183.783 468.383 183.05C467.283 171.683 465.267 160.5 462.517 149.317C462.15 147.483 461.6 145.833 461.233 144H438.317C436.85 144 435.567 145.283 435.567 146.75V195.7C435.567 198.633 433.183 201.017 430.25 201.017H406.6C403.667 201.017 401.283 198.633 401.283 195.7V136.85C401.283 135.383 400 134.1 398.533 134.1H388.817C387.35 134.1 386.067 135.383 386.067 136.85V178.833C386.067 181.767 383.683 184.15 380.75 184.15H338.217C335.283 184.15 332.9 181.767 332.9 178.833V127.5C332.9 126.033 331.617 124.75 330.15 124.75H270.75C269.283 124.75 268 126.033 268 127.5V157.383C268 160.317 265.617 162.7 262.683 162.7H229.133C226.2 162.7 223.817 160.317 223.817 157.383V128.417C223.817 126.95 222.533 125.667 221.067 125.667H216.117C214.65 125.667 213.367 126.95 213.367 128.417V185.067C213.367 188 210.983 190.383 208.05 190.383H198.7C195.767 190.383 193.383 188 193.383 185.067V161.783C193.383 159.583 191.55 157.75 189.35 157.75H162.767C160.567 157.75 158.733 159.583 158.733 161.783V194.05C158.733 196.983 156.35 199.367 153.417 199.367H138.2C135.267 199.367 132.883 196.983 132.883 194.05V125.85C132.883 124.383 131.6 123.1 130.133 123.1H93.4666C91.9999 123.1 90.7166 124.383 90.7166 125.85V184.883C90.7166 187.817 88.3333 190.2 85.3999 190.2H33.3333C34.9833 194.783 36.6333 199.367 38.2833 204.133C39.9333 209.633 41.3999 215.133 42.6832 220.633Z" fill="#0049E0" fill-opacity="0.1"/>
<path d="M232.25 104.217V136.117C232.25 139.783 229.317 142.717 225.65 142.717H215.933L209.517 153.35C208.783 154.45 207.133 154.45 206.4 153.35L199.983 142.717H190.267C186.6 142.717 183.667 139.783 183.667 136.117V104.217C183.667 100.55 186.6 97.6166 190.267 97.6166H225.467C229.317 97.4333 232.25 100.55 232.25 104.217Z" fill="#6EB954"/>
<path d="M83.9332 60.4V361.25H74.5833V63.8833C77.5166 62.6 80.6332 61.5 83.9332 60.4ZM170.65 272.7V63.15C169.733 62.9667 168.817 62.7833 167.717 62.6C165.517 62.2333 163.317 61.8667 161.117 61.5V272.7H170.65Z" fill="white"/>
<path d="M465.083 268.117C464.9 269.4 464.717 270.5 464.533 271.783C464.533 272.333 464.35 272.883 464.167 273.617C463.983 274.9 463.617 276.367 463.433 277.65H30.5833C32.9666 274.533 35.3499 271.417 37.1832 268.3H465.083V268.117Z" fill="white"/>
<path d="M219.6 29.05C214.467 23.3667 206.4 20.25 198.7 21.1667C192.283 22.0833 186.417 25.3833 180 25.2C174.683 25.0167 169.733 22.6333 165.333 19.5167C160.933 16.4 157.083 12.9167 152.5 10.1667C147.917 7.41667 142.6 5.58334 137.283 6.31668C133.067 7.05001 129.217 9.43334 126.283 12.55C123.533 15.4833 117.483 23 118.4 28.8667H219.6V29.05Z" fill="#D2DEF5"/>
<path d="M153.233 206.517C153.05 206.883 152.867 207.25 153.05 207.433C153.233 207.617 153.6 207.8 153.783 207.8C154.7 207.983 155.617 207.983 156.35 207.433C156.9 207.067 157.083 206.517 157.083 205.783C157.083 205.233 157.083 204.5 157.083 203.95C157.083 203.4 156.9 202.85 156.35 202.667C155.8 202.483 155.067 203.217 154.7 203.583C154.15 204.683 153.6 205.6 153.233 206.517Z" fill="#FEE1BC"/>
<path d="M285.967 104.583C285.967 104.95 285.783 105.133 285.417 105.133C283.217 105.133 281.383 106.967 281.383 109.167C281.383 109.533 281.2 109.717 280.833 109.717C280.467 109.717 280.283 109.533 280.283 109.167C280.283 108.067 279.917 106.967 279 106.233C278.267 105.5 277.167 104.95 276.067 104.95C275.7 104.95 275.517 104.767 275.517 104.4C275.517 104.033 275.7 103.85 276.067 103.85C277.167 103.85 278.267 103.483 279 102.567C279.733 101.833 280.283 100.733 280.283 99.6333C280.283 99.2667 280.467 99.0833 280.833 99.0833C281.2 99.0833 281.383 99.2667 281.383 99.6333C281.383 100.733 281.75 101.833 282.667 102.567C283.4 103.3 284.5 103.85 285.6 103.85C285.6 104.033 285.967 104.217 285.967 104.583Z" fill="#0049E0"/>
<path d="M444 120.717C444 120.9 443.817 121.267 443.45 121.267C441.434 121.267 439.784 122.917 439.784 124.933C439.784 125.117 439.6 125.483 439.233 125.483C439.05 125.483 438.683 125.3 438.683 124.933C438.683 124.017 438.317 123.1 437.583 122.367C436.85 121.633 435.933 121.267 435.017 121.267C434.833 121.267 434.467 121.083 434.467 120.717C434.467 120.533 434.65 120.167 435.017 120.167C435.933 120.167 436.85 119.8 437.583 119.067C438.317 118.333 438.683 117.417 438.683 116.5C438.683 116.317 438.867 115.95 439.233 115.95C439.417 115.95 439.784 116.133 439.784 116.5C439.784 117.417 440.15 118.333 440.883 119.067C441.617 119.8 442.534 120.167 443.45 120.167C443.634 120.167 444 120.533 444 120.717Z" fill="#FFD475"/>
<path d="M161.3 361.25H102.083C99.15 350.067 96.0333 338.517 96.0333 338.517L89.8 358.133L88.8833 361.25H28.5667C28.75 354.65 29.3 347.133 30.0333 339.617C31.8666 322.75 35.1666 305.7 41.7666 299.833C62.1166 281.317 127.567 281.317 147.917 299.833C151.95 303.5 154.7 311.2 156.717 320.55C159.467 333.2 160.75 348.967 161.3 361.25Z" fill="#4C5C75"/>
<path d="M156.717 320.367C151.767 321.833 146.267 321.467 141.133 320.367C135.45 319.083 130.133 316.883 124.45 315.233C104.833 309.733 83.2 312.3 65.4166 322.017C60.65 324.767 55.8833 328.067 53.1333 332.833C50.3833 337.6 50.0166 344.017 53.5 348.417C57.7166 353.733 65.6 353.733 72.5667 353.55C78.6166 353.367 85.7667 353.917 89.8 358.133L88.8833 361.25H28.5667C28.75 354.65 29.3 347.133 30.0333 339.617C31.8666 322.75 35.1666 305.7 41.7666 299.833C62.1166 281.317 127.567 281.317 147.917 299.833C151.95 303.317 154.7 311.017 156.717 320.367Z" fill="#111D33"/>
<path d="M189.533 228.333C187.883 230.533 190.267 234.933 194.85 238.417C199.433 241.9 204.383 243 206.033 240.8C207.683 238.6 205.3 234.2 200.717 230.717C196.133 227.233 191.183 226.317 189.533 228.333Z" fill="#F7A386"/>
<path d="M184.767 242.633C181.833 221.917 172.3 189.65 167.717 171.867C163.867 156.1 156.717 153.35 156.717 153.35C156.717 152.617 134.717 139.967 126.65 137.033C124.083 136.117 121.15 135.383 117.667 134.467C116.75 134.283 115.65 133.917 114.55 133.733C113.817 133.55 113.083 133.367 112.35 133.367C98.05 130.617 80.0834 128.783 69.2667 129.517C68.9001 129.517 68.7167 129.517 68.3501 129.517C67.9834 129.517 67.8001 129.517 67.4334 129.517C66.3334 129.7 64.8667 129.883 63.5834 130.067C48.1834 133 22.5167 143.817 15.55 150.967C8.58338 158.3 -6.08329 259.133 16.4667 277.283C18.1167 278.75 20.1334 279.667 22.3334 279.85C26.9167 280.583 39.75 273.433 39.75 273.433C39.75 273.433 24.3501 301.85 31.8667 310.833C52.2167 335.033 111.983 287 154.333 312.667C158.367 308.083 160.383 303.5 161.117 298.55C162.217 291.217 160.567 283.7 158 276C159.283 277.283 160.933 278.017 162.95 278.017C173.217 277.833 186.233 252.9 184.767 242.633ZM147.733 240.983C147.917 242.267 148.1 243.367 148.467 244.283C149.933 249.783 151.033 255.1 151.95 259.683C149.75 253.267 148.1 247.033 147.733 240.983Z" fill="#0049E0"/>
<path d="M14.0832 204.683C16.2832 180.3 20.8666 159.033 23.9832 155.733C31.4999 147.85 62.4832 135.383 76.7832 134.1C78.4332 133.917 80.2666 133.917 82.0999 133.917V129.517C76.9666 129.333 72.3832 129.333 68.7166 129.517C54.5999 130.617 23.6166 143.267 15.9166 151.15C12.6166 154.633 7.66657 178.283 5.6499 204.5H14.0832V204.683ZM161.117 298.55C160.383 303.5 158.367 308.267 154.333 312.667C112.167 287 52.2166 335.033 32.4166 311.383C24.8999 302.217 40.2999 273.983 40.2999 273.983C40.2999 273.983 27.4666 281.133 22.8832 280.4C20.6832 280.033 18.6666 279.117 17.0166 277.833C17.5666 277.1 18.1166 276.367 18.6666 275.633C23.4332 269.4 28.7499 263.533 32.2332 256.567C35.7166 249.417 36.6332 241.533 37.3666 233.833H54.9666C54.9666 235.667 54.7832 237.5 54.7832 239.333C54.5999 244.1 54.0499 248.867 53.4999 253.633C53.1332 256.567 53.1332 265.733 50.9332 267.75L74.9499 244.467C82.0999 237.683 89.2499 230.717 97.6832 225.583C106.117 220.45 105.383 215.867 115.1 217.15C94.5666 236.033 84.8499 256.2 64.3166 274.9C57.5332 281.133 50.5666 287.55 47.4499 296.167C46.5332 298.55 45.9832 301.3 46.5332 303.867C47.0832 306.433 48.7332 308.817 51.2999 309.55C53.1332 310.1 54.9666 309.733 56.7999 309.367C77.1499 305.7 97.3166 302.033 117.667 298.367C109.417 292.133 104.283 282.233 103.917 271.967C107.767 278.2 111.617 284.433 117.3 288.833C122.983 293.233 131.05 295.25 137.65 292.133C139.667 291.033 141.5 289.567 143.883 289.2C147 288.65 149.933 290.3 152.5 291.767C155.25 293.967 158.183 296.167 161.117 298.55Z" fill="#0049E0"/>
<path d="M147.733 203.767V240.983C147.917 242.267 148.1 243.183 148.467 244.283C153.6 263.533 153.783 278.017 162.95 278.017C173.4 278.017 186.417 253.083 184.95 242.817C184.767 241.167 184.4 239.333 184.033 237.5C184.033 237.133 183.85 236.767 183.85 236.4C182.383 227.967 180 218.25 177.433 208.533C177.067 207.067 176.7 205.417 176.15 203.95H147.733V203.767Z" fill="#F7A386"/>
<path d="M147.733 203.767V215.317C148.1 215.317 148.65 215.317 149.017 215.317C150.667 214.95 151.95 213.483 153.233 212.383C155.8 210.55 159.283 210.183 162.583 210.367C165.883 210.55 169 211.1 172.3 210.55C174.133 210.183 175.967 209.45 177.25 208.35C176.883 206.883 176.517 205.233 175.967 203.767H147.733Z" fill="url(#paint0_linear_1234_16372)"/>
<path d="M147.733 203.767V240.983C147.917 242.267 148.1 243.183 148.467 244.283C153.6 263.533 153.783 278.017 162.95 278.017C164.783 278.017 166.8 277.283 168.633 275.817C167.533 276.367 166.433 276.55 165.333 276.55C156.167 276.55 155.983 262.067 150.85 242.817C150.667 241.9 150.3 240.8 150.117 239.517V203.767H147.733Z" fill="url(#paint1_linear_1234_16372)"/>
<path d="M142.417 202.85C142.05 202.483 141.683 202.117 141.317 201.567C132.517 188.733 139.85 143.45 139.85 143.45C148.283 147.85 156.717 152.983 156.717 153.533C156.717 153.533 163.867 156.467 167.717 172.05C169 177.367 173.033 188.367 175.783 195.883C177.25 199.733 178.533 202.85 178.9 203.767C181.1 208.167 149.2 209.817 142.417 202.85Z" fill="#0049E0"/>
<path d="M206.033 240.8C200.717 249.05 195.4 257.483 188.617 264.633C183.667 269.95 177.617 274.533 170.467 276.55C151.217 282.417 156.533 263.717 157.267 260.783C158.183 256.933 159.833 253.45 162.033 250.15C165.517 245.2 170.467 241.35 176.15 239.333C177.983 238.6 180 238.05 181.833 237.317C183.667 236.4 185.317 235.3 186.233 233.467C186.783 232.55 186.967 231.633 187.517 230.9C188.067 229.983 188.983 229.433 189.9 229.433C191 229.617 191.917 230.717 192.467 231.633C195.033 235.117 200.9 240.617 206.033 240.8Z" fill="#F7A386"/>
<path d="M156.167 269.583C156.35 266.283 157.083 263.167 157.45 262.067C158.367 258.217 160.017 254.733 162.217 251.433C165.7 246.483 170.65 242.633 176.333 240.617C178.167 239.883 180.183 239.333 182.017 238.6C182.75 238.233 183.483 237.867 184.217 237.317C184.217 236.95 184.033 236.583 184.033 236.217C183.483 236.583 182.75 236.95 182.2 237.317C180.367 238.233 178.533 238.783 176.517 239.333C170.833 241.533 165.883 245.2 162.4 250.15C160.2 253.267 158.55 256.933 157.633 260.783C157.083 262.067 155.983 265.917 156.167 269.583Z" fill="#FEE1BC"/>
<path d="M170.467 276.55C177.433 274.35 183.483 269.95 188.617 264.633C195.217 257.483 200.717 249.05 206.033 240.8C205.483 240.8 204.933 240.617 204.383 240.617C199.8 247.767 195.033 254.733 189.167 260.967C184.217 266.283 178.167 270.867 171.017 272.883C157.817 276.917 156.167 269.4 156.717 263.167C155.617 269.033 154.15 281.5 170.467 276.55Z" fill="url(#paint2_linear_1234_16372)"/>
<path d="M207.867 182.317L184.033 223.933C183.117 225.583 184.217 227.6 186.233 227.6H208.6C209.517 227.6 210.25 227.05 210.8 226.317L234.633 184.7C235.55 183.05 234.45 181.033 232.433 181.033H210.067C209.15 181.033 208.417 181.583 207.867 182.317Z" fill="#4C5C75"/>
<path d="M182.75 227.6H186.233C184.4 227.6 183.117 225.583 184.033 223.75L207.867 182.133C208.233 181.4 209.15 180.85 210.067 180.85H206.583C205.667 180.85 204.933 181.4 204.383 182.133L180.55 223.75C179.633 225.583 180.917 227.6 182.75 227.6Z" fill="#111D33"/>
<path d="M200.9 234.017C200.9 234.017 200.533 239.517 205.117 240.8C207.317 240.8 209.15 239.883 210.617 237.683C211.167 236.583 211.717 235.483 212.633 234.75C213.733 234.017 215.017 234.2 216.3 233.65C217.583 233.1 218.317 231.817 218.5 230.533C218.5 229.617 218.317 228.7 218.683 228.15C219.05 227.6 219.783 227.417 220.333 227.05C222.35 225.95 223.267 223.567 222.717 221.367C222.35 220.083 221.433 218.983 221.25 217.517C221.25 217.517 227.667 208.533 227.117 205.05C226.75 202.483 221.25 197.533 217.4 195.7C216.483 195.333 215.75 194.967 215.2 194.967C214.467 194.967 214.1 195.15 213.917 195.883C213.917 196.067 213.917 196.433 213.917 196.617C213.733 199.917 215.75 201.75 218.317 204.5C220.883 207.433 215.567 211.1 213.367 211.467C207.683 212.2 193.567 206.517 191 208.167C188.433 209.633 188.8 212.75 208.417 219.533C204.383 218.25 189.717 213.483 187.517 214.583C184.95 215.867 184.95 218.983 203.833 227.6C199.983 225.95 186.6 220.083 184.217 221.183C181.467 222.467 182.017 224.85 200.9 234.017Z" fill="#F7A386"/>
<path d="M218.5 229.983C218.5 230.167 218.5 230.533 218.5 230.717C218.5 230.35 218.5 230.167 218.5 229.983ZM215.567 195.883C218.683 196.067 226.933 202.667 227.483 205.967C227.483 205.6 227.483 205.417 227.483 205.05C226.933 201.75 218.683 195.15 215.567 194.967C214.833 194.967 214.467 195.15 214.283 195.883C214.1 196.433 214.1 196.983 214.283 197.533C214.283 197.35 214.283 196.983 214.283 196.8C214.283 196.25 214.833 195.883 215.567 195.883ZM213.55 212.383C215.383 212.2 219.6 209.267 219.05 206.7C218.683 209.083 215.017 211.283 213.55 211.467C207.867 212.2 193.75 206.517 191.183 208.167C190.45 208.717 189.9 209.267 190.083 210.183C190.267 209.817 190.633 209.45 191.183 209.083C193.75 207.433 208.05 213.117 213.55 212.383ZM187.7 214.583C188.8 214.033 193.017 214.95 197.417 216.05C199.433 216.6 206.767 218.8 209.333 219.717L203.833 218.8C197.967 216.967 189.533 214.583 187.7 215.317C187.15 215.5 186.783 215.867 186.6 216.417C186.233 215.5 186.783 214.95 187.7 214.583ZM184.4 221.183C185.683 220.633 189.717 221.917 193.933 223.383C196.5 224.3 203.1 227.05 205.3 228.333L200.717 227.05C195.217 224.667 186.233 221.183 184.4 222.1C183.85 222.283 183.483 222.65 183.3 223.017C182.933 222.1 183.483 221.55 184.4 221.183Z" fill="#FEE1BC"/>
<path d="M114.733 133.917L103 168.567L94.2 159.583L67.6167 129.7C67.9834 129.7 68.35 129.7 68.5334 129.7C68.9 129.7 69.0834 129.7 69.45 129.7C80.2667 128.967 98.2334 130.8 112.533 133.55C113.45 133.55 114 133.733 114.733 133.917Z" fill="#0049E0"/>
<path d="M107.767 90.8333V132.817L100.067 155.367L99.3333 154.633L74.7666 129.333V90.8333H107.767Z" fill="#F7A386"/>
<path d="M99.3333 154.633L74.7666 129.333V90.8333C74.7666 90.8333 74.9499 90.8333 74.9499 90.65C77.3333 89.1833 80.2666 88.8167 82.8333 89.3667C83.9333 89.55 84.8499 90.1 85.7666 90.65C88.5166 92.3 90.1666 95.2333 90.8999 98.35C92.3666 104.033 93.6499 109.533 94.1999 115.217C94.3833 118.7 94.3833 122 94.1999 125.483C94.0166 127.683 93.8333 129.883 94.5666 131.9C95.2999 133.917 98.0499 133 99.6999 134.467C104.65 139.233 97.3166 148.217 99.3333 154.633Z" fill="url(#paint3_linear_1234_16372)"/>
<path d="M114.917 127.5C112.533 126.95 110.15 126.4 107.767 125.667C95.1166 121.633 84.3 114.483 78.8 110.267C76.2333 108.433 74.7666 107.15 74.7666 107.15V98.5333C74.7666 98.5333 70.7333 93.95 69.0833 89C67.7999 84.9666 68.1666 80.75 73.8499 78.55L76.2333 59.6666C98.4166 58.75 119.317 58.9333 127.017 69.2C127.017 69.3833 136.367 131.717 114.917 127.5Z" fill="url(#paint4_linear_1234_16372)"/>
<path d="M61.0167 69.0167C61.9333 74.5167 64.3167 80.3834 66.8833 85.3334C69.8167 91.3834 72.9333 95.7834 73.1167 95.9667C70.1833 90.1 68.35 80.3834 73.6667 78.7334C79.7167 76.9 82.4667 87.9 82.4667 87.9C82.4667 87.9 84.6667 94.8667 86.5 94.1334C89.8 93.0334 85.2167 81.6667 88.7 80.2C92.1833 78.7333 96.2167 77.6333 96.4 70.85C96.5833 67.1833 98.2333 65.9 100.8 65.5333C118.767 63.3333 122.8 74.8833 131.05 67.1833C135.083 63.3333 136.917 58.75 135.817 54.35C133.983 46.1 122.433 38.0333 99.7 36.0167C65.4167 32.7167 73.4833 51.2333 73.6667 51.6C61.75 52.8833 59.55 60.4 61.0167 69.0167Z" fill="#8A4852"/>
<path opacity="0.1" d="M136 58.0167C136 57.4667 135.817 56.9167 135.817 56.3667C133.983 48.1167 122.433 40.05 99.6999 38.0333C77.8832 36.0167 73.2999 42.6167 72.7499 47.9333C72.3833 42.6167 75.3166 33.8167 99.6999 36.2C122.433 38.4 133.983 46.2833 135.817 54.5333C136 55.8167 136.183 56.9167 136 58.0167Z" fill="white"/>
<path d="M73.6666 51.7833C73.4833 51.7833 73.2999 51.7833 73.1166 51.7833C72.9333 50.6833 72.5666 49.4 72.7499 47.9333C72.9333 50.1333 73.6666 51.7833 73.6666 51.7833Z" fill="white"/>
<path opacity="0.3" d="M114.917 127.5C112.9 127.133 110.883 126.583 108.867 126.033C110.15 126.4 111.433 126.583 112.717 126.95C133.617 130.983 126.833 69.3833 126.833 69.3833C126.833 69.3833 136.367 131.717 114.917 127.5Z" fill="#FEE1BC"/>
<path d="M105.933 82.95C103.55 83.5 101.35 84.7833 99.15 86.0667C98.7834 86.25 98.2333 86.4333 97.8667 86.25C97.6833 86.0667 97.6833 85.7 97.6833 85.3333C97.8667 83.5 99.15 81.85 100.617 80.75C103.55 78.3667 107.4 77.2667 111.25 77.8167C111.983 78 112.533 78 113.083 78.3666C113.817 78.55 114.367 79.1 114.917 79.65C115.283 80.2 115.65 80.9333 115.467 81.6667C115.1 83.6833 112.9 83.1333 111.433 82.95C109.6 82.5833 107.767 82.5833 105.933 82.95ZM119.867 80.2C120.233 79.4666 120.783 79.1 121.333 78.7333C121.883 78.3667 122.433 78.1833 122.983 77.8167C125.367 76.9 128.117 76.7166 130.683 77.2666C131.783 77.45 132.517 78.55 132.517 79.65C132.517 80.9333 131.417 81.85 130.133 81.85C129.95 81.85 129.583 81.85 129.4 81.85C127.567 81.85 125.733 82.2166 124.083 82.95C122.617 83.5 120.783 84.6 120.05 82.5833C119.317 81.6667 119.5 80.9333 119.867 80.2Z" fill="#8A4852"/>
<path d="M121.883 109.167C120.6 109.167 116.567 109.167 113.45 108.617C113.267 108.617 112.9 108.8 113.083 108.983C113.633 110.267 115.467 113.017 118.583 113.017C120.783 112.833 121.7 110.633 122.067 109.717C122.25 109.533 122.067 109.167 121.883 109.167ZM114.55 99.0833C114.367 98.9 114.183 99.2666 114.183 99.45C114.55 100.733 115.283 102.017 116.017 102.75C117.117 103.667 118.4 104.033 119.5 103.117C120.783 102.2 121.7 100.367 120.783 99.8167C120.233 99.45 119.317 101.1 118.583 101.283C116.017 101.65 115.1 99.6333 114.55 99.0833ZM119.5 120.9C119.5 120.9 116.017 117.967 113.083 120.533L119.5 120.9ZM78.6167 88.8167C78.25 87.35 77.5167 86.0667 76.6 84.9667C75.5 83.8667 74.0334 83.3167 72.75 83.3167C72.0167 83.3167 71.2834 83.6833 70.55 84.05C70.3667 84.05 70.3667 84.2333 70.3667 84.4166C70.3667 84.6 70.55 84.6 70.7334 84.6C71.2834 84.2333 72.0167 84.05 72.5667 84.05C73.85 83.8667 75.1334 84.4166 76.05 85.5166C76.7834 86.4333 77.5167 87.5333 77.8834 88.8167C77.5167 88.6333 77.15 88.2666 76.7834 88.2666C76.4167 88.2666 75.8667 88.2666 75.3167 88.45C75.1334 88.45 74.7667 88.6333 74.4 88.8167C74.0334 89.1833 74.0334 89.55 74.0334 89.9166C74.0334 90.1 74.2167 90.1 74.4 90.1C74.5834 90.1 74.5834 89.9167 74.5834 89.7333C74.5834 89.55 74.5834 89.3666 74.7667 89.3666C74.95 89.1833 75.1334 89.1833 75.3167 89C75.8667 88.8166 76.2334 88.8167 76.6 88.8167C77.15 88.8167 77.7 89.1833 78.0667 89.7333C78.25 90.8333 78.25 91.75 78.4334 92.85C78.4334 93.0333 78.6167 93.2167 78.8 93.2167C78.9834 93.2167 78.9834 93.0333 78.9834 92.85" fill="#E27659"/>
<path d="M107.033 90.4667C107.033 91.3833 107.767 92.3 108.867 92.3C109.783 92.3 110.7 91.5667 110.7 90.4667C110.7 89.55 109.967 88.6333 108.867 88.6333C107.767 88.6333 107.033 89.3667 107.033 90.4667Z" fill="#111D33"/>
<path d="M112.35 90.1C111.067 89.7333 109.967 89.3667 108.683 89H109.05C108.133 89.55 107.4 90.1 106.483 90.65C105.567 91.0167 104.65 91.3833 103.55 91.3833C104.283 90.4667 105.017 89.9167 105.933 89.55C106.85 89.1833 107.767 88.8167 108.683 88.45C108.867 88.45 108.867 88.45 109.05 88.45C110.15 88.8167 111.25 89.3667 112.35 90.1C112.533 90.1 112.533 89.9167 112.35 90.1ZM123.35 90.1C123.35 91.0167 124.083 91.9333 125.183 91.9333C126.1 91.9333 127.017 91.2 127.017 90.1C127.017 89.1833 126.283 88.2667 125.183 88.2667C124.083 88.2667 123.35 89.1833 123.35 90.1Z" fill="#111D33"/>
<path d="M125.183 90.4667C125.183 90.65 125.367 91.0167 125.733 91.0167C125.917 91.0167 126.283 90.8334 126.283 90.4667C126.283 90.2834 126.1 89.9167 125.733 89.9167C125.367 90.1 125.183 90.2834 125.183 90.4667ZM109.05 90.4667C109.05 90.65 109.233 91.0167 109.6 91.0167C109.783 91.0167 110.15 90.8334 110.15 90.4667C110.15 90.2834 109.967 89.9167 109.6 89.9167C109.233 90.1 109.05 90.2834 109.05 90.4667Z" fill="#FCFCFC"/>
<path d="M128.667 89.9167C127.383 89.55 126.283 89.1833 125 88.8167H125.367C124.45 89.3667 123.717 89.9167 122.8 90.4667C121.883 90.8333 120.967 91.2 119.867 91.2C120.6 90.2833 121.333 89.7333 122.25 89.3667C123.167 89 124.083 88.6333 125 88.2667C125.183 88.2667 125.183 88.2667 125.367 88.2667C126.65 88.45 127.75 89.1833 128.667 89.9167C128.85 89.7333 128.85 89.7333 128.667 89.9167C128.85 89.9167 128.85 89.9167 128.667 89.9167Z" fill="#111D33"/>
<path d="M72.9333 95.9667C70 90.1 68.1667 80.3833 73.4833 78.7333C79.5333 76.9 82.2833 87.9 82.2833 87.9C82.2833 87.9 84.4833 94.8667 86.3167 94.1333C89.6167 93.0333 85.0333 81.6667 88.5167 80.2C92 78.7333 96.0333 77.6333 96.2167 70.85C96.4 67.1833 98.05 65.9 100.617 65.5333C118.583 63.3333 122.617 74.8833 130.867 67.1833C134.9 63.3333 136.733 58.75 135.633 54.35C135.45 54.5333 135.083 54.7167 134.9 54.9C132.517 56.55 129.583 57.1 126.65 56.9167C121.333 56.7333 116.017 55.0833 110.7 54.1667C105.383 53.0667 99.7 52.7 94.75 54.7167C89.8 56.9167 85.95 62.2333 87.05 67.55C87.4167 69.2 88.15 70.85 88.3333 72.5C88.5167 74.15 87.7833 76.1667 86.1333 76.7167C84.6667 77.0833 83.3833 76.35 82.2833 75.25C81.3667 74.15 80.6333 72.8667 79.5333 71.95C77.3333 70.1167 73.85 69.9333 71.65 71.7667C69.8167 73.2333 69.0833 75.8 68.5333 78C67.8 80.3833 67.25 82.7667 66.5167 85.15C69.6333 91.3833 72.75 95.7833 72.9333 95.9667ZM61.0167 69.0167C61.0167 69.0167 61.2 68.8333 61.2 68.4667C61.3833 64.25 64.5 56.7333 69.45 54.1667C74.2167 51.6 81.7333 55.45 82.1 55.6333C77.3333 51.6 73.85 51.7833 73.85 51.7833C61.75 52.8833 59.55 60.4 61.0167 69.0167Z" fill="#51383C"/>
<path d="M123.9 201.383C124.083 201.383 125.733 201.75 127.567 201.933C125.917 201.567 124.267 201.383 123.9 201.383Z" fill="#F7A386"/>
<path d="M214.1 196.617C214.283 196.8 214.283 197.167 214.467 197.35C215.383 198.45 216.667 198.817 217.4 198.083C217.95 197.533 218.133 196.617 217.583 195.7C216.667 195.333 215.933 194.967 215.383 194.967C214.65 194.967 214.283 195.15 214.1 195.883C214.283 196.25 214.1 196.433 214.1 196.617ZM190.633 209.633C190.817 209.817 191 210.183 191.183 210.367C192.1 211.467 193.383 211.833 194.3 211.283C195.033 210.733 195.033 209.633 194.483 208.717C193.567 208.35 192.65 207.983 192.1 207.983C191.367 207.983 190.817 208.167 190.817 208.9C190.633 209.267 190.633 209.45 190.633 209.633ZM186.6 216.05C186.783 216.233 186.967 216.783 187.15 216.967C188.067 218.067 189.35 218.433 190.267 217.883C191 217.333 191 216.233 190.45 215.317C189.533 214.95 188.617 214.583 188.067 214.583C187.333 214.583 186.783 214.767 186.783 215.5C186.783 215.867 186.6 215.867 186.6 216.05ZM183.483 222.833C183.667 223.017 183.85 223.567 184.033 223.75C184.95 224.85 186.233 225.217 187.15 224.667C187.883 224.117 187.883 223.017 187.333 222.1C186.417 221.733 185.5 221.367 184.95 221.367C184.217 221.367 183.667 221.55 183.667 222.283C183.667 222.467 183.483 222.65 183.483 222.833Z" fill="#FEE1BC"/>
<path d="M226.933 184.7L222.167 193.317C221.983 193.683 222.167 194.05 222.533 194.05H226.75C226.933 194.05 227.117 193.867 227.117 193.867L231.883 185.25C232.067 184.883 231.883 184.517 231.517 184.517H227.3C227.3 184.517 227.117 184.7 226.933 184.7Z" fill="#111D33"/>
<path d="M22.7 280.217C26.7333 280.767 48.55 274.533 65.2333 257.117C74.2166 247.767 83.5666 238.783 92.7333 229.617C94.9333 227.417 97.3166 225.033 100.067 223.567C102.817 222.1 105.933 221.55 109.05 221C112.9 220.267 120.783 220.083 122.25 216.967C122.433 216.6 122.433 216.6 122.433 216.233C125.183 216.6 129.583 216.967 130.133 214.033C130.5 210.917 126.65 209.633 124.267 208.9C127.017 209.267 131.967 209.633 132.883 206.883C133.8 203.767 130.683 202.3 127.933 201.567C126.1 201.383 124.45 201.017 124.267 201.017C124.45 201.017 126.1 201.2 127.933 201.567C130.683 201.75 134.167 201.75 134.9 199.55C136.367 194.967 128.117 193.867 126.283 193.683C133.25 194.233 140.4 194.783 147.367 195.15C149.2 195.333 151.4 195.15 152.5 193.683C153.233 192.4 152.683 190.75 151.583 189.65C150.483 188.55 149.017 188.183 147.55 187.633C136.917 184.333 125.183 182.317 114.733 185.8C106.85 188.367 100.25 194.05 93.65 199.183C76.7833 212.567 58.8166 224.3 39.9333 234.383L45.6166 202.667L4.54996 203.4C1.61663 238.6 5.2833 277.65 22.7 280.217Z" fill="#F7A386"/>
<path d="M22.7 280.217C26.7333 280.767 48.55 274.533 65.2333 257.117C74.2166 247.767 83.5666 238.783 92.7333 229.617C94.9333 227.417 97.3166 225.033 100.067 223.567C102.817 222.1 105.933 221.55 109.05 221C112.9 220.267 120.783 220.083 122.25 216.967C122.433 216.6 122.433 216.6 122.433 216.233C125.183 216.6 129.583 216.967 130.133 214.033C130.5 210.917 126.65 209.633 124.267 208.9C127.017 209.267 131.967 209.633 132.883 206.883C133.8 203.767 130.683 202.3 127.933 201.567C130.683 201.75 134.167 201.75 134.9 199.55C136.367 194.967 128.117 193.867 126.283 193.683C133.25 194.233 140.4 194.783 147.367 195.15C149.2 195.333 151.4 195.15 152.5 193.683C145.717 191.3 138.567 190.017 131.417 190.017C128.667 190.017 125.55 190.2 124.083 192.583C123.533 193.5 123.167 194.417 122.983 195.333C122.617 196.617 122.25 197.9 122.067 199C121.517 201.383 120.783 203.767 121.15 206.15C121.517 208.533 122.983 210.733 122.433 213.117C121.883 214.767 120.417 216.05 118.767 216.6C117.117 217.15 115.283 217.333 113.633 217.517C103 218.617 92.55 223.2 84.6666 230.533C78.0666 236.583 73.1166 244.65 65.2333 248.867C55.8833 254.183 48 261.7 39.3833 268.3C36.45 270.5 33.3333 272.883 29.85 274.167C26.3666 275.45 22.15 275.45 19.0333 273.25C15.1833 270.683 14.0833 265.55 13.1666 261.15C10.7833 248.867 7.29997 236.4 4.91663 224.117C4.36663 221.367 3.99997 217.883 6.19997 216.05C7.4833 214.95 9.1333 214.767 10.7833 214.583C16.4666 214.033 23.4333 213.483 29.1166 212.933C31.6833 212.75 40.1166 211.65 42.3166 210.183C44.5166 208.717 45.9833 205.967 45.0666 203.583C45.0666 203.4 44.8833 203.217 44.8833 203.217L4.54997 203.95C1.61663 238.6 5.2833 277.65 22.7 280.217Z" fill="url(#paint5_linear_1234_16372)"/>
<path d="M55.15 226.133C68.5333 218.067 81.3666 209.267 93.4666 199.55C100.067 194.417 106.667 188.733 114.55 186.167C125.183 182.683 136.733 184.7 147.367 188C148.833 188.367 150.3 188.917 151.4 190.017C152.5 191.117 153.05 192.767 152.317 194.05C152.133 194.417 151.95 194.6 151.583 194.783C151.4 194.05 151.033 193.5 150.483 192.95C149.383 191.85 147.917 191.483 146.45 190.933C135.817 187.633 124.083 185.617 113.633 189.1C105.75 191.667 99.15 197.35 92.55 202.483C80.6333 211.833 63.4 221.183 50.3833 228.883L55.15 226.133Z" fill="#FEE1BC"/>
<path d="M47.4501 203.4C41.5834 210.917 3.08343 214.217 3.26677 204.5C4.0001 170.217 12.8001 154.633 15.9168 151.333C19.9501 147.117 30.5834 141.617 41.9501 137.217C41.7668 137.217 57.7168 190.017 47.4501 203.4Z" fill="#0049E0"/>
<path d="M24.1667 155.55C20.8667 158.85 12.25 174.433 11.5167 208.717C11.5167 209.083 11.5167 209.633 11.7 210C6.56667 209.267 3.08334 207.433 3.26667 204.5C4.00001 170.217 12.8 154.633 15.9167 151.333C19.95 147.117 30.5833 141.617 41.95 137.217C41.95 137.217 42.6833 139.783 43.7833 144C34.9833 147.85 27.4667 152.067 24.1667 155.55Z" fill="#0049E0"/>
<path d="M145.533 191.85C145.167 193.133 146.45 194.417 148.1 194.967C149.75 195.333 151.4 194.6 151.767 193.317C152.133 192.033 150.85 190.75 149.2 190.2C147.55 189.833 145.9 190.567 145.533 191.85ZM39.3833 235.117C39.3833 235.117 27.8333 239.883 22.3333 253.633C27.2833 245.2 34.0666 238.6 42.3166 233.65L39.3833 235.117Z" fill="#FEE1BC"/>
<path d="M96.0335 338.517L87.9668 320.733L115.833 360.883L102.083 361.25L96.0335 338.517Z" fill="#111D33"/>
<path d="M142.417 202.85C142.05 202.483 141.683 202.117 141.317 201.567C142.417 200.65 144.067 200.283 145.717 199.917C152.317 199 158.917 199.367 165.517 198.633C168.083 198.267 170.467 197.9 172.85 196.983C173.95 196.617 174.867 196.25 175.967 195.7C177.433 199.55 178.717 202.667 179.083 203.583C181.1 208.167 149.2 209.817 142.417 202.85Z" fill="#0049E0"/>
<path d="M367.917 134.65C367.917 136.667 366.267 138.317 364.25 138.317C362.233 138.317 360.583 136.667 360.583 134.65C360.583 132.633 362.233 130.983 364.25 130.983C366.267 130.983 367.917 132.633 367.917 134.65Z" fill="#4C5C75"/>
<path d="M222.9 120.35C222.9 128.6 216.3 135.2 208.05 135.2C199.8 135.2 193.2 128.6 193.2 120.35C193.2 112.1 199.8 105.5 208.05 105.5C216.117 105.5 222.9 112.1 222.9 120.35Z" fill="white"/>
<path d="M205.85 124.567C205.667 124.567 205.483 124.567 205.483 124.567C204.933 124.383 204.567 124.2 204.383 123.833L202.367 120.533C201.817 119.617 202.183 118.517 202.917 117.967C203.833 117.417 204.933 117.783 205.483 118.517L206.583 120.167L211.9 116.867C212.817 116.317 213.917 116.683 214.467 117.417C215.017 118.333 214.65 119.433 213.917 119.983L207.133 124.2C206.583 124.567 206.217 124.567 205.85 124.567Z" fill="#6EB954"/>
<path opacity="0.4" d="M114.917 93.5833C114.917 98.1667 111.983 101.833 108.5 101.833C104.833 101.833 102.083 98.1667 102.083 93.5833C102.083 89 104.833 85.3333 108.5 85.3333C111.983 85.3333 114.917 89 114.917 93.5833Z" fill="white"/>
<path d="M108.5 102.017C104.833 102.017 101.717 98.1667 101.717 93.5833C101.717 89 104.65 85.15 108.5 85.15C112.167 85.15 115.283 89 115.283 93.5833C115.1 98.1667 112.167 102.017 108.5 102.017ZM108.5 85.5167C105.017 85.5167 102.267 89.1833 102.267 93.5833C102.267 97.9833 105.017 101.65 108.5 101.65C111.983 101.65 114.733 97.9833 114.733 93.5833C114.733 89.1833 111.8 85.5167 108.5 85.5167Z" fill="#111D33"/>
<path opacity="0.4" d="M132.883 92.85C132.883 97.4333 129.95 101.1 126.467 101.1C122.983 101.1 120.05 97.4333 120.05 92.85C120.05 88.2667 122.983 84.6 126.467 84.6C129.95 84.6 132.883 88.2667 132.883 92.85Z" fill="white"/>
<path d="M126.283 101.283C122.617 101.283 119.5 97.4334 119.5 92.85C119.5 88.2667 122.433 84.4167 126.283 84.4167C129.95 84.4167 133.067 88.2667 133.067 92.85C133.067 97.6167 130.133 101.283 126.283 101.283ZM126.283 84.9667C122.8 84.9667 120.05 88.6333 120.05 93.0333C120.05 97.4333 122.8 101.1 126.283 101.1C129.767 101.1 132.517 97.4333 132.517 93.0333C132.517 88.45 129.767 84.9667 126.283 84.9667Z" fill="#111D33"/>
<path d="M102.267 90.65L84.8501 86.6167L85.0334 86.25L102.45 90.2833L102.267 90.65Z" fill="#111D33"/>
<path d="M120.05 89.9167C118.033 88.0833 116.2 88.0833 114.367 89.9167L114 89.55C116.017 87.5333 118.033 87.5333 120.233 89.55L120.05 89.9167Z" fill="#111D33"/>
<path d="M557.25 108.104V302.254C557.25 309.038 551.75 314.354 545.15 314.354H275.1C268.317 314.354 263 308.854 263 302.254V108.104C263 101.321 268.5 96.0045 275.1 96.0045H545.15C551.933 95.8211 557.25 101.321 557.25 108.104Z" fill="white"/>
<path d="M557.25 133.038V108.105C557.25 101.321 551.75 96.0045 545.15 96.0045H275.1C268.317 96.0045 263 101.505 263 108.105V133.038H557.25Z" fill="url(#paint6_linear_1234_16372)"/>
<path d="M447.767 173.7V210.183C447.767 214.4 444.283 217.883 440.067 217.883H307.7C303.483 217.883 300 214.4 300 210.183V173.7C300 169.483 303.483 166 307.7 166H440.067C444.283 166 447.767 169.483 447.767 173.7Z" fill="#1256E2"/>
<path d="M311 192.033C311 196.617 312.65 200.833 315.4 204.133C318.883 208.167 324.017 210.733 329.7 210.733C335.383 210.733 340.517 208.167 344 204.133C346.75 200.833 348.4 196.617 348.4 192.033C348.4 181.583 339.967 173.15 329.517 173.15C319.433 173.15 311 181.583 311 192.033Z" fill="white"/>
<path d="M315.95 192.033C315.95 195.333 317.233 198.45 319.25 200.833C321.817 203.767 325.483 205.783 329.7 205.783C333.917 205.783 337.767 203.95 340.15 200.833C342.167 198.45 343.45 195.333 343.45 191.85C343.45 184.15 337.217 178.1 329.7 178.1C322.183 178.1 315.95 184.333 315.95 192.033Z" fill="white"/>
<path d="M436.584 185.983C436.584 187.45 435.484 188.55 434.017 188.55H365.084C363.617 188.55 362.517 187.45 362.517 185.983C362.517 184.517 363.617 183.417 365.084 183.417H434.017C435.3 183.6 436.584 184.7 436.584 185.983ZM414.217 197.9C414.217 199.367 413.117 200.467 411.65 200.467H365.084C363.617 200.467 362.517 199.367 362.517 197.9C362.517 196.433 363.617 195.333 365.084 195.333H411.65C412.934 195.333 414.217 196.433 414.217 197.9Z" fill="white"/>
<path d="M326 156.703V175.288C326 175.795 325.831 176.132 325.662 176.47C325.493 176.808 325.324 177.146 324.986 177.315C324.479 177.822 323.804 177.991 323.128 177.991H291.872C291.196 177.991 290.521 177.653 290.014 177.315C289.676 177.146 289.507 176.808 289.338 176.47C289.169 176.132 289 175.795 289 175.288V156.703C289 156.365 289 156.027 289.169 155.689C289.507 154.676 290.521 154 291.703 154H323.297C324.479 154 325.324 154.676 325.831 155.689C326 156.027 326 156.365 326 156.703Z" fill="#6EB954"/>
<path d="M326 156.703L324.817 157.717L321.1 160.589L311.977 167.685L309.612 169.543C308.429 170.388 306.909 170.388 305.726 169.543L303.361 167.685L289.338 156.872V156.703C289.338 156.365 289.338 156.027 289.507 155.689C289.845 154.676 290.858 154 292.041 154H323.297C324.479 154 325.324 154.676 325.831 155.689C326 156.027 326 156.365 326 156.703Z" fill="white"/>
<path d="M325.831 176.639C325.662 176.977 325.493 177.315 325.155 177.484C324.648 177.991 323.973 178.16 323.297 178.16H292.041C291.365 178.16 290.689 177.822 290.183 177.484C289.845 177.315 289.676 176.977 289.507 176.639L302.178 166.84L306.402 163.63C307.078 163.123 308.26 163.123 308.936 163.63L313.16 166.84L325.831 176.639Z" fill="white" fill-opacity="0.1"/>
<path d="M313.16 166.84L311.977 167.685L309.612 169.543C308.429 170.388 306.909 170.388 305.726 169.543L303.361 167.685L302.178 166.84L306.402 163.63C307.078 163.123 308.26 163.123 308.936 163.63L313.16 166.84Z" fill="#6EB954"/>
<path d="M325.831 155.689L324.817 156.534L320.087 160.082L311.47 166.84L309.443 168.53C308.429 169.374 307.078 169.374 306.064 168.53L304.037 166.84L289.676 155.689C290.183 154.676 291.027 154 292.21 154H323.297C324.479 154 325.493 154.676 325.831 155.689Z" fill="#6EB954"/>
<path d="M127 166.363C127 165.089 125.214 134.095 107.796 129.425V132.397C122.534 137.067 123.874 165.939 123.874 166.363V167.637H126.553L127 166.363ZM74.7485 131.972V129H74.302C47.5063 137.492 57.778 200.754 58.6712 203.302V205L61.3507 204.575L60.9042 203.302C61.3507 202.877 50.6325 140.464 74.7485 131.972Z" fill="#C8D3DB"/>
<path d="M131.5 209.385C128.962 208.962 126.423 208.115 124.308 207.269C131.923 200.923 136.154 190.346 135.731 180.615C135.308 171.308 129.808 165.385 122.192 165.385C114.577 165.385 109.077 171.308 108.654 180.615C108.231 190.346 112.462 200.923 120.077 207.269C117.962 208.538 115.423 209.385 112.885 209.385C112.039 209.385 111.615 210.231 111.615 211.077C111.615 211.923 112.462 212.346 112.885 212.346C116.269 211.923 119.231 210.654 122.192 208.962C124.731 210.654 128.115 211.923 131.5 212.346C132.346 212.346 132.769 211.923 132.769 211.077C132.769 210.231 132.346 209.385 131.5 209.385ZM111.192 180.615C111.192 176.808 112.885 167.923 122.192 167.923C131.5 167.923 132.769 176.808 133.192 180.615C133.615 189.923 129.385 200.077 122.192 205.577C115 199.654 110.769 189.5 111.192 180.615Z" fill="#C8D3DB"/>
<path d="M133.615 212.769C132.769 212.769 131.923 212.769 131.077 212.769C129.808 212.769 128.962 211.5 129.385 210.654C129.385 209.385 130.654 208.538 131.5 208.962C132.769 208.962 134.039 208.962 135.308 208.962C136.577 208.962 137.423 209.808 137.423 210.654C137.423 211.923 136.577 212.769 135.731 212.769C135.308 212.769 134.462 212.769 133.615 212.769ZM110.769 212.769C109.923 212.769 109.077 212.769 108.231 212.769C106.962 212.769 106.115 211.5 106.539 210.654C106.539 209.385 107.808 208.538 108.654 208.962C109.923 208.962 111.192 208.962 112.462 208.962C113.731 208.962 114.577 209.808 114.577 210.654C114.577 211.923 113.731 212.769 112.885 212.769C112.462 212.769 111.615 212.769 110.769 212.769Z" fill="#021852"/>
<path d="M60.0001 212.346C64.6733 212.346 68.4617 208.558 68.4617 203.885C68.4617 199.211 64.6733 195.423 60.0001 195.423C55.3269 195.423 51.5386 199.211 51.5386 203.885C51.5386 208.558 55.3269 212.346 60.0001 212.346Z" fill="#E6E7E8"/>
<path d="M60 195.423C64.6539 195.423 68.4616 199.231 68.4616 203.885C68.4616 208.538 64.6539 212.346 60 212.346C55.3462 212.346 51.5385 208.538 51.5385 203.885C51.5385 199.231 55.3462 195.423 60 195.423ZM60 192.885C54.0769 192.885 49 197.962 49 203.885C49 209.808 54.0769 214.885 60 214.885C65.9231 214.885 71 209.808 71 203.885C71 197.538 65.9231 192.885 60 192.885Z" fill="#C8D3DB"/>
<path d="M60 209.808C63.2712 209.808 65.923 207.156 65.923 203.885C65.923 200.613 63.2712 197.962 60 197.962C56.7288 197.962 54.0769 200.613 54.0769 203.885C54.0769 207.156 56.7288 209.808 60 209.808Z" fill="#C8D3DB"/>
<g clipPath="url(#clip0_1234_16372)">
<path d="M328.605 184.134C329.509 185.66 329.574 187.177 328.799 188.685C327.055 192.076 325.309 195.47 323.56 198.865" stroke="#7F8B70" stroke-width="2"/>
<path d="M336.449 184.144C337.12 185.275 337.313 186.434 337.028 187.622C336.938 187.992 336.71 188.533 336.344 189.246C334.752 192.343 333.159 195.44 331.565 198.536C331.503 198.654 331.441 198.765 331.38 198.868" stroke="#7F8B70" stroke-width="2"/>
<path d="M328.605 184.134C329.509 185.66 329.574 187.177 328.799 188.685C327.055 192.077 325.309 195.47 323.56 198.865C322.891 199.841 322.014 200.488 320.929 200.806C317.479 201.819 314.238 198.692 315.158 195.263C315.254 194.907 315.497 194.349 315.887 193.59C317.336 190.774 318.783 187.958 320.228 185.14C320.602 184.411 320.914 183.901 321.164 183.61C323.229 181.214 326.865 181.583 328.605 184.134Z" fill="#0049E0"/>
<path d="M336.449 184.144C337.12 185.275 337.313 186.434 337.028 187.622C336.938 187.992 336.71 188.533 336.344 189.246C334.752 192.343 333.159 195.44 331.565 198.536C331.503 198.654 331.441 198.765 331.38 198.868C329.529 201.661 325.364 201.735 323.56 198.865C325.309 195.47 327.055 192.076 328.799 188.685C329.574 187.177 329.509 185.66 328.605 184.134C329.882 182.284 332.056 181.517 334.177 182.313C335.121 182.667 335.879 183.277 336.449 184.144Z" fill="#FECC00"/>
<path d="M331.38 198.868C331.441 198.765 331.503 198.654 331.565 198.536C333.159 195.44 334.752 192.343 336.344 189.246C336.71 188.533 336.938 187.992 337.028 187.622C337.313 186.434 337.12 185.275 336.449 184.144C336.855 183.507 337.379 183.002 338.019 182.631C340.906 180.959 344.548 182.788 344.962 186.016C345.082 186.948 344.916 187.85 344.465 188.724C342.84 191.874 341.215 195.024 339.592 198.176C339.317 198.712 339.066 199.111 338.839 199.372C336.762 201.771 333.145 201.441 331.38 198.868Z" fill="#0049E0"/>
</g>
<defs>
<linearGradient id="paint0_linear_1234_16372" x1="177.452" y1="209.525" x2="147.792" y2="209.525" gradientUnits="userSpaceOnUse">
<stop stop-color="#F7A386"/>
<stop offset="1" stop-color="#FD6B58"/>
</linearGradient>
<linearGradient id="paint1_linear_1234_16372" x1="168.602" y1="240.828" x2="147.792" y2="240.828" gradientUnits="userSpaceOnUse">
<stop stop-color="#F7A386"/>
<stop offset="1" stop-color="#FD6B58"/>
</linearGradient>
<linearGradient id="paint2_linear_1234_16372" x1="205.953" y1="259.159" x2="156.137" y2="259.159" gradientUnits="userSpaceOnUse">
<stop stop-color="#F7A386"/>
<stop offset="1" stop-color="#FD6B58"/>
</linearGradient>
<linearGradient id="paint3_linear_1234_16372" x1="78.7468" y1="119.072" x2="126.091" y2="130.71" gradientUnits="userSpaceOnUse">
<stop stop-color="#F7A386"/>
<stop offset="1" stop-color="#FD6B58"/>
</linearGradient>
<linearGradient id="paint4_linear_1234_16372" x1="143.412" y1="93.7721" x2="35.8999" y2="93.0938" gradientUnits="userSpaceOnUse">
<stop stop-color="#FEE1BC"/>
<stop offset="1" stop-color="#FD6B58"/>
</linearGradient>
<linearGradient id="paint5_linear_1234_16372" x1="152.287" y1="235.296" x2="3.60579" y2="235.296" gradientUnits="userSpaceOnUse">
<stop stop-color="#F7A386"/>
<stop offset="1" stop-color="#FD6B58"/>
</linearGradient>
<linearGradient id="paint6_linear_1234_16372" x1="262.941" y1="114.415" x2="557.316" y2="114.415" gradientUnits="userSpaceOnUse">
<stop stop-color="#0049E0"/>
<stop offset="1" stop-color="#0049E0" stop-opacity="0.86"/>
</linearGradient>
<clipPath id="clip0_1234_16372">
<rect width="30" height="19" fill="white" transform="translate(315 182)"/>
</clipPath>
</defs>
</svg>
