<svg
                xmlns="http://www.w3.org/2000/svg"
                fill="none"
                viewBox="0 34.35 249.99 203.83"
              >
                <path
                  d="M249.991 48.3062V224.374C249.991 232.042 243.856 238.177 236.188 238.177H13.8032C6.13475 238.177 0 232.042 0 224.374V48.3062C0 40.6378 6.13475 34.503 13.8032 34.503H236.035C243.703 34.3496 249.991 40.6378 249.991 48.3062Z"
                  fill="white"
                ></path>
                <path
                  d="M52.1453 87.4152V111.954C52.1453 114.408 50.1515 116.402 47.6976 116.402H23.1586C20.7047 116.402 18.7109 114.408 18.7109 111.954V87.4152C18.7109 84.9613 20.7047 82.9675 23.1586 82.9675H47.6976C50.1515 83.1209 52.1453 84.9613 52.1453 87.4152Z"
                  fill="#2051E5"
                  fill-opacity="0.1"
                ></path>
                <path
                  d="M31.1338 105.513L27.1462 100.758C26.226 99.6848 26.3794 97.9977 27.453 97.0775C28.5265 96.1573 30.2136 96.3107 31.1338 97.3843L33.4344 100.145L40.1826 94.6236C41.2562 93.7034 42.9432 93.8568 43.8634 94.9304C44.7836 96.004 44.6303 97.691 43.5567 98.6112L34.8147 105.666C33.7411 106.74 32.054 106.586 31.1338 105.513Z"
                  fill="#2051E5"
                  fill-opacity="0.2"
                ></path>
                <path
                  d="M177.601 91.5562C177.601 93.0899 176.374 94.4702 174.687 94.4702H70.3962C68.8625 94.4702 67.4822 93.2433 67.4822 91.5562C67.4822 90.0225 68.7092 88.6422 70.3962 88.6422H174.687C176.374 88.6422 177.601 90.0225 177.601 91.5562ZM142.786 107.813C142.786 109.347 141.559 110.727 139.872 110.727H70.5496C69.0159 110.727 67.6356 109.5 67.6356 107.813C67.6356 106.28 68.8625 104.899 70.5496 104.899H139.872C141.406 104.899 142.786 106.28 142.786 107.813ZM52.1453 135.266V159.805C52.1453 162.259 50.1515 164.253 47.6976 164.253H23.1586C20.7047 164.253 18.7109 162.259 18.7109 159.805V135.266C18.7109 132.812 20.7047 130.819 23.1586 130.819H47.6976C50.1515 130.972 52.1453 132.812 52.1453 135.266Z"
                  fill="#2051E5"
                  fill-opacity="0.1"
                ></path>
                <path
                  d="M31.1338 153.364L27.1462 148.609C26.226 147.536 26.3794 145.849 27.453 144.928C28.5265 144.008 30.2136 144.162 31.1338 145.235L33.4344 147.996L40.1826 142.475C41.2562 141.554 42.9432 141.708 43.8634 142.781C44.7836 143.855 44.6303 145.542 43.5567 146.462L34.8147 153.517C33.7411 154.591 32.054 154.437 31.1338 153.364Z"
                  fill="#2051E5"
                  fill-opacity="0.2"
                ></path>
                <path
                  d="M177.601 139.407C177.601 140.941 176.374 142.321 174.687 142.321H70.3962C68.8625 142.321 67.4822 141.094 67.4822 139.407C67.4822 137.873 68.7092 136.493 70.3962 136.493H174.687C176.374 136.493 177.601 137.873 177.601 139.407ZM142.786 155.664C142.786 157.198 141.559 158.578 139.872 158.578H70.5496C69.0159 158.578 67.6356 157.351 67.6356 155.664C67.6356 154.131 68.8625 152.75 70.5496 152.75H139.872C141.406 152.75 142.786 154.131 142.786 155.664ZM52.1453 183.117V207.656C52.1453 210.11 50.1515 212.104 47.6976 212.104H23.1586C20.7047 212.104 18.7109 210.11 18.7109 207.656V183.117C18.7109 180.663 20.7047 178.67 23.1586 178.67H47.6976C50.1515 178.67 52.1453 180.663 52.1453 183.117Z"
                  fill="#2051E5"
                  fill-opacity="0.1"
                ></path>
                <path
                  d="M31.1338 201.215L27.1462 196.46C26.226 195.387 26.3794 193.7 27.453 192.78C28.5265 191.859 30.2136 192.013 31.1338 193.086L33.4344 195.847L40.1826 190.326C41.2562 189.405 42.9432 189.559 43.8634 190.632C44.7836 191.706 44.6303 193.393 43.5567 194.313L34.8147 201.368C33.7411 202.442 32.054 202.288 31.1338 201.215Z"
                  fill="#2051E5"
                  fill-opacity="0.2"
                ></path>
                <path
                  d="M177.601 187.258C177.601 188.792 176.374 190.172 174.687 190.172H70.3964C68.8627 190.172 67.4824 188.945 67.4824 187.258C67.4824 185.725 68.7094 184.344 70.3964 184.344H174.687C176.374 184.344 177.601 185.725 177.601 187.258ZM142.786 203.515C142.786 205.049 141.56 206.429 139.872 206.429H70.5498C69.0161 206.429 67.6358 205.202 67.6358 203.515C67.6358 201.982 68.8627 200.601 70.5498 200.601H139.872C141.406 200.601 142.786 201.982 142.786 203.515Z"
                  fill="#2051E5"
                  fill-opacity="0.1"
                ></path>
                <path
                  d="M249.991 66.8638V48.1528C249.991 40.4844 243.856 34.3496 236.188 34.3496H13.8032C6.13475 34.3496 0 40.4844 0 48.1528V66.8638H249.991Z"
                  fill="#FFCC00"
                ></path>
                <path
                  d="M199.227 50.6068C199.227 53.5208 196.773 55.9747 193.859 55.9747C190.945 55.9747 188.491 53.5208 188.491 50.6068C188.491 47.6928 190.945 45.2389 193.859 45.2389C196.926 45.2389 199.227 47.6928 199.227 50.6068ZM217.324 50.6068C217.324 53.5208 214.87 55.9747 211.956 55.9747C209.042 55.9747 206.588 53.5208 206.588 50.6068C206.588 47.6928 209.042 45.2389 211.956 45.2389C214.87 45.2389 217.324 47.6928 217.324 50.6068ZM235.268 50.6068C235.268 53.5208 232.814 55.9747 229.9 55.9747C226.986 55.9747 224.532 53.5208 224.532 50.6068C224.532 47.6928 226.986 45.2389 229.9 45.2389C232.814 45.2389 235.268 47.6928 235.268 50.6068ZM144.014 51.0669C144.014 55.6679 140.333 59.5022 135.578 59.5022H19.4783C14.8772 59.5022 11.043 55.8213 11.043 51.0669C11.043 46.4658 14.7238 42.6316 19.4783 42.6316H135.732C140.333 42.785 144.014 46.4658 144.014 51.0669Z"
                  fill="white"
                ></path>
                <path
                  d="M29.2938 42.7849H19.4783C14.8772 42.7849 11.043 46.4658 11.043 51.2202C11.043 55.8213 14.7238 59.6555 19.4783 59.6555H29.4472V42.7849H29.2938Z"
                  fill="#F3F1FC"
                ></path>
                <path
                  d="M17.3311 52.9073C15.9508 51.527 15.9508 49.3798 17.3311 47.9995C18.7115 46.6192 21.012 46.6192 22.2389 47.9995C23.6193 49.3798 23.6193 51.527 22.2389 52.9073C21.6255 53.5208 18.7115 54.2876 17.3311 52.9073ZM18.098 48.7663C17.1778 49.6865 17.1778 51.2202 18.098 52.1404C19.6317 53.6741 22.2389 52.6005 22.2389 50.4534C22.2389 49.8399 21.9322 49.2264 21.4721 48.7663C20.5519 47.6927 19.0182 47.6927 18.098 48.7663Z"
                  fill="#4C5C75"
                ></path>
                <path
                  d="M23.3119 54.5944L21.6248 52.9073C21.4714 52.7539 21.4714 52.2938 21.6248 52.1405C21.7782 51.9871 22.2383 51.9871 22.3916 52.1405L24.0787 53.8275C24.2321 53.9809 24.2321 54.441 24.0787 54.5944C23.772 54.9011 23.4652 54.7477 23.3119 54.5944ZM36.9617 55.6679C36.6549 55.6679 36.5016 55.3612 36.5016 55.2079V47.6928C36.5016 47.386 36.8083 47.2327 36.9617 47.2327C37.115 47.2327 37.4218 47.5394 37.4218 47.6928V55.2079C37.5751 55.3612 37.2684 55.6679 36.9617 55.6679Z"
                  fill="#4C5C75"
                ></path>
                <path
                  d="M38.6486 48.1529H35.4279C35.1211 48.1529 34.9678 47.8461 34.9678 47.6928C34.9678 47.5394 35.2745 47.2327 35.4279 47.2327H38.6486C38.9554 47.2327 39.1087 47.5394 39.1087 47.6928C39.1087 47.8461 38.9554 48.1529 38.6486 48.1529ZM38.6486 55.6679H35.4279C35.1211 55.6679 34.9678 55.3612 34.9678 55.2079C34.9678 55.0545 35.2745 54.7477 35.4279 54.7477H38.6486C38.9554 54.7477 39.1087 55.0545 39.1087 55.2079C39.1087 55.3612 38.9554 55.6679 38.6486 55.6679Z"
                  fill="#4C5C75"
                ></path>
              </svg>