<svg xmlns="http://www.w3.org/2000/svg" width="22" height="16" viewBox="0 0 22 16" fill="none">
  <path d="M15.9871 8.64406C15.9871 8.64406 16.43 8.03384 17.6134 8.03384C17.6134 8.03384 16.9027 8.78841 16.8697 9.02134" fill="#004A81"/>
  <path d="M14.1121 9.63543H15.3054C15.3054 9.63543 14.4889 7.05023 21.4242 7.28972C21.4242 7.28972 22.0556 3.8745 18.8788 3.6875H14.1121V5.97087H14.3038C14.3038 5.97087 14.122 4.84887 15.1335 4.84887H18.3036C18.3036 4.84887 20.3598 4.64547 20.7796 6.06601C20.7796 6.06601 18.8656 6.09554 17.269 6.39409C17.2657 6.39737 14.1121 6.64998 14.1121 9.63543Z" fill="#004A81"/>
  <path d="M0.703125 3.94658V3.70053H4.16415V3.94658C4.16415 3.94658 3.0865 3.90065 3.0865 4.59288V8.01795C3.0865 8.01795 3.16915 9.32367 4.23026 9.7272C4.86495 9.96997 5.35088 9.90763 5.80045 9.79281C7.04999 9.47458 7.14585 8.01138 7.14585 8.01138L7.15577 4.66506C7.15577 4.66506 7.14916 3.82848 6.03515 3.97283V3.70053H9.42676V3.95971C9.42676 3.95971 8.34911 3.8416 8.34911 4.65522V7.73908C8.34911 7.73908 8.36234 10.0225 6.03846 10.3505C6.03846 10.3505 4.6633 10.4686 4.30629 10.3866C4.30629 10.3866 1.93944 10.2915 1.86341 7.62098C1.80721 5.62303 1.86341 4.69131 1.86341 4.69131C1.86341 4.69131 1.84688 4.26809 1.55599 4.09422C1.26178 3.91378 0.703125 3.94658 0.703125 3.94658Z" fill="#004A81"/>
  <path d="M1.91087 9.17447C1.91087 9.17447 2.19846 9.93887 2.98851 10.3621C3.06454 10.4015 2.98851 14.9387 2.98851 14.9387C2.98851 14.9387 2.89265 15.9393 4.12566 15.8442V15.9983H0.760498V15.8442C0.760498 15.8442 1.97037 15.9852 1.89764 14.9616C1.89764 14.9616 1.91087 9.4074 1.91087 9.17447Z" fill="#878787"/>
  <path d="M8.2701 9.17447C8.2701 9.17447 7.98251 9.93887 7.18915 10.3621C7.11312 10.4015 7.18915 14.9387 7.18915 14.9387C7.18915 14.9387 7.28501 15.9393 6.052 15.8442V15.9983H9.41716V15.8442C9.41716 15.8442 8.20729 15.9852 8.28002 14.9616C8.28332 14.9616 8.2701 9.4074 8.2701 9.17447Z" fill="#878787"/>
  <path d="M3.53394 12.8276H6.64787V12.388H3.53394V12.8276Z" fill="#878787"/>
  <path d="M10.0754 15.9655H11.1663V3.73178H10.0754V15.9655Z" fill="#878787"/>
  <path d="M11.8308 15.9655H12.9217V3.73178H11.8308V15.9655Z" fill="#878787"/>
  <path d="M14.0964 16H15.2898C15.2898 16 14.4733 13.4148 21.4086 13.6543C21.4086 13.6543 22.0399 10.2391 18.8632 10.0521H14.0964V12.3355H14.2849C14.2849 12.3355 14.103 11.2135 15.1146 11.2135H18.2847C18.2847 11.2135 20.3408 11.0101 20.7573 12.4306C20.7573 12.4306 18.8434 12.4634 17.2467 12.7587C17.25 12.7587 14.0964 13.0146 14.0964 16Z" fill="#878787"/>
  <path d="M0.842876 0.679942C0.842876 0.561836 0.895766 0.476538 0.998242 0.476538C1.05774 0.476538 1.19658 0.502783 1.24947 0.6701C1.266 0.630731 1.29245 0.57824 1.29245 0.535591C1.266 0.39452 1.13047 0.338748 1.01477 0.338748C0.727178 0.328906 0.604868 0.656977 0.720566 0.880065H0.601562V0.955521C0.601562 0.99817 0.64123 1.04738 0.697427 1.04738H1.25278C1.31228 1.04738 1.34864 0.99817 1.34864 0.955521V0.880065H0.918906C0.866015 0.843977 0.842876 0.775082 0.842876 0.679942Z" fill="black"/>
  <path d="M2.54589 0.216313C2.67151 0.213032 2.67482 0.0293122 2.54589 0.0260315C2.41697 0.0260315 2.42028 0.213032 2.54589 0.216313Z" fill="black"/>
  <path d="M3.3884 1.14584C3.26279 1.14912 3.26279 1.33284 3.3884 1.33612C3.52063 1.33284 3.52063 1.1524 3.3884 1.14584Z" fill="black"/>
  <path d="M3.17213 1.14584C3.04321 1.14912 3.04321 1.33612 3.17213 1.33612C3.29775 1.33284 3.29775 1.14912 3.17213 1.14584Z" fill="black"/>
  <path d="M3.8247 1.13541C3.69909 1.13541 3.69578 1.32241 3.8247 1.32569C3.95032 1.32241 3.94701 1.13869 3.8247 1.13541Z" fill="black"/>
  <path d="M2.77901 0.878924H2.17077C2.20052 0.754257 2.33605 0.53445 2.53108 0.527888C2.78231 0.53773 2.78892 0.71817 2.77901 0.878924ZM4.26655 0.0390625H4.20375V0.750977C4.20375 0.826433 4.174 0.869082 4.09796 0.875643C3.97235 0.875643 3.92607 0.826433 3.91946 0.708327C3.91946 0.596783 3.93929 0.478678 3.78723 0.478678H3.72773V0.754257C3.72773 0.829714 3.69798 0.872363 3.61864 0.878924C3.48972 0.885486 3.42692 0.839556 3.4203 0.711608C3.4203 0.600064 3.44014 0.481958 3.29138 0.481958H3.23188V0.757538C3.23188 0.832994 3.20213 0.875644 3.1228 0.882205H2.9476C2.97404 0.321204 2.45836 0.124361 2.14432 0.652555C2.15093 0.48852 2.10796 0.501643 1.97573 0.501643V0.885486H1.81045C1.74434 0.878924 1.71128 0.846117 1.70467 0.790345V0.137484C1.70467 0.078431 1.64847 0.0423432 1.59889 0.0423432H1.51294V0.764099C1.51294 0.918293 1.6055 1.0364 1.79061 1.04624H3.13602C3.22858 1.04296 3.298 1.01343 3.34427 0.967503C3.39386 1.01015 3.46328 1.0364 3.54592 1.04296V1.04624C3.68476 1.04624 3.77401 1.02984 3.84343 0.967503C3.90293 1.01999 3.98888 1.04952 4.09466 1.04624H4.11449C4.30622 1.03968 4.40209 0.918293 4.40209 0.764099V0.173572C4.39878 0.0849924 4.35581 0.0390625 4.26655 0.0390625Z" fill="black"/>
  <path d="M4.6692 0.0416565H4.58325V0.914325C4.58325 1.0029 4.63945 1.04227 4.69895 1.04227H4.77498V0.136797C4.77498 0.0810251 4.71878 0.0416565 4.6692 0.0416565Z" fill="black"/>
  <path d="M5.61209 0.476562H5.53937V0.88009C5.54267 1.0999 5.54598 1.2016 5.35425 1.16551V1.23441C5.35425 1.30002 5.41044 1.33611 5.49309 1.33611C5.63523 1.33611 5.7344 1.22785 5.7344 1.10974V0.611072C5.7344 0.515931 5.70465 0.476562 5.61209 0.476562Z" fill="black"/>
  <path d="M6.0027 0.0416565H5.91675V0.914325C5.91675 1.0029 5.97294 1.04227 6.03245 1.04227H6.10848V0.136797C6.11178 0.0810251 6.05228 0.0416565 6.0027 0.0416565Z" fill="black"/>
  <path d="M7.30841 0.0390625H7.2456V0.750977C7.2456 0.826433 7.21585 0.869082 7.13982 0.875643C6.98115 0.878924 6.9547 0.865801 6.91173 0.72145C6.87867 0.600064 6.81256 0.521327 6.79603 0.498362C6.72661 0.416344 6.62083 0.390099 6.61752 0.390099C6.47869 0.354011 6.42249 0.413063 6.35968 0.524608C6.45224 0.511485 6.52827 0.514766 6.61091 0.567257C6.61752 0.570538 6.75967 0.662397 6.75967 0.872363H6.29688V0.937977C6.29688 0.987188 6.32663 1.0364 6.38943 1.0364H6.78611C6.839 1.0364 6.87537 1.00031 6.90842 0.970784C6.96462 1.02328 7.0142 1.0364 7.09684 1.0364H7.15635C7.34807 1.02984 7.44394 0.911731 7.44394 0.754257V0.163729C7.44063 0.0849924 7.39766 0.0390625 7.30841 0.0390625Z" fill="black"/>
  <path d="M8.17823 0.477991H8.11542V0.753571C8.11542 0.829027 8.08567 0.871676 8.00964 0.878238H7.89394C7.82783 0.871676 7.79478 0.838869 7.78816 0.783097V0.136797C7.78816 0.0777444 7.73197 0.0416565 7.68238 0.0416565H7.59644V0.763413C7.59644 0.917606 7.68899 1.03571 7.87411 1.04555H8.02948C8.22121 1.03899 8.31376 0.917606 8.31376 0.763413V0.609219C8.30715 0.52064 8.26418 0.477991 8.17823 0.477991Z" fill="black"/>
  <path d="M8.13472 1.13541C8.00911 1.13869 8.01241 1.32569 8.13472 1.32569C8.18431 1.32569 8.23389 1.28304 8.23059 1.23055C8.23059 1.17806 8.18431 1.13541 8.13472 1.13541Z" fill="black"/>
  <path d="M9.40527 1.39322C9.27635 1.3965 9.27965 1.58022 9.40527 1.5835C9.53419 1.57694 9.5375 1.39322 9.40527 1.39322Z" fill="black"/>
  <path d="M9.18652 1.39322C9.0576 1.39322 9.0609 1.58022 9.18652 1.5835C9.31544 1.57694 9.31875 1.3965 9.18652 1.39322Z" fill="black"/>
  <path d="M10.6396 0.375187C10.7653 0.368626 10.7686 0.188187 10.6396 0.184906C10.5107 0.184906 10.514 0.371907 10.6396 0.375187Z" fill="black"/>
  <path d="M10.6126 0.479612H10.5498V0.755192C10.5498 0.830648 10.52 0.873297 10.444 0.879859H10.1961V0.338541H10.0407C9.25396 0.335261 9.73659 1.14232 9.36966 1.14888C9.08538 1.14888 9.05562 1.01765 9.05562 0.860174C9.05562 0.663332 9.19116 0.600998 9.19116 0.600998L9.10521 0.591156C8.97959 0.591156 8.90356 0.69942 8.90356 0.873297C8.90356 1.15544 9.05893 1.30635 9.35975 1.30635C9.63742 1.30635 9.6837 1.13903 9.70023 0.902824C9.72006 0.689577 9.74651 0.509138 10.0308 0.505858V1.04061H10.4605C10.6523 1.03405 10.7448 0.912666 10.7448 0.758472V0.604279C10.7415 0.522261 10.6952 0.479612 10.6126 0.479612Z" fill="black"/>
  <path d="M11.462 0.173878C11.5777 0.167316 11.5777 0.00656142 11.462 0C11.3496 0.00328071 11.3496 0.173878 11.462 0.173878Z" fill="black"/>
  <path d="M11.4739 0.275648C11.4772 0.400315 11.6623 0.400315 11.6656 0.275648C11.6656 0.147701 11.4772 0.147701 11.4739 0.275648Z" fill="black"/>
  <path d="M11.3518 0.369969C11.4774 0.366688 11.4774 0.182968 11.3518 0.179688C11.2229 0.179688 11.2229 0.366688 11.3518 0.369969Z" fill="black"/>
  <path d="M11.9064 0.0390625H11.8436V0.750977C11.8436 0.826433 11.8138 0.869082 11.7378 0.875643H11.7345C11.6089 0.872363 11.5659 0.823152 11.5593 0.708327C11.5593 0.596783 11.5791 0.478678 11.4271 0.478678H11.3676V0.754257C11.3676 0.829714 11.3378 0.872363 11.2585 0.878924H11.2089C11.1428 0.872363 11.1097 0.839556 11.1031 0.783784V0.137484C11.1031 0.078431 11.0469 0.0423432 10.9973 0.0423432H10.9114V0.764099C10.9114 0.918293 11.0039 1.0364 11.1891 1.04624H11.275C11.3676 1.04296 11.437 1.01343 11.4833 0.967503C11.5361 1.01343 11.6056 1.03968 11.6915 1.04296H11.751C11.9427 1.0364 12.0386 0.918293 12.0386 0.760818V0.170291C12.0386 0.0849924 11.9956 0.0390625 11.9064 0.0390625Z" fill="black"/>
  <path d="M12.3098 0.0416565H12.2239V0.914325C12.2239 1.0029 12.2801 1.04227 12.3396 1.04227H12.4156V0.136797C12.4156 0.0810251 12.3561 0.0416565 12.3098 0.0416565Z" fill="black"/>
  <path d="M13.4822 0.461781C13.6144 0.4585 13.6111 0.2715 13.4822 0.268219C13.3565 0.268219 13.3565 0.4585 13.4822 0.461781Z" fill="black"/>
  <path d="M16.639 0.0390625H16.5761V0.750977C16.5761 0.826433 16.5464 0.869082 16.4704 0.875643H16.315C16.2852 0.632871 16.1596 0.337607 15.872 0.337607C15.5878 0.340888 15.601 0.44587 15.601 0.596783C15.6737 0.527888 15.7398 0.504923 15.8357 0.504923C16.0373 0.504923 16.1167 0.770661 16.1431 0.878924H15.4621C15.4026 0.878924 15.3597 0.849398 15.3564 0.773941C15.3564 0.668959 15.353 0.659117 15.353 0.521327C15.353 0.393379 15.2638 0.386818 15.158 0.393379V0.757538C15.158 0.832994 15.1283 0.872363 15.0291 0.882205C14.9564 0.882205 14.9167 0.869082 14.8936 0.836275C14.9068 0.770661 14.9068 0.606625 14.9068 0.521327C14.9068 0.39666 14.8208 0.386818 14.7151 0.393379V0.757538C14.7151 0.832994 14.6853 0.872363 14.606 0.882205H14.4605V0.48852C14.4605 0.432748 14.401 0.393379 14.3547 0.393379H14.2688V0.882205C14.1895 0.878924 14.0043 0.895328 13.9548 0.846117C13.9581 0.754257 13.9548 0.688643 13.9548 0.609906C13.9548 0.481958 13.8688 0.475397 13.763 0.478678V0.741134C13.763 1.09545 13.6308 1.19715 13.4358 1.19715C13.1482 1.19387 13.0391 0.81331 13.2275 0.623029H13.168C13.049 0.623029 12.9895 0.728012 12.9895 0.872363C12.9961 1.47273 13.806 1.53835 13.9283 1.01999C13.9779 1.04624 14.0341 1.04952 14.0771 1.04952H14.5663C14.6688 1.04952 14.7613 1.0364 14.8076 0.990468C14.9035 1.05608 15.0324 1.04952 15.0655 1.04952C15.1382 1.04624 15.234 1.02656 15.2803 0.977346C15.3266 1.02984 15.396 1.04952 15.4721 1.04952H16.4836C16.6753 1.04296 16.7712 0.924854 16.7712 0.76738V0.176852C16.7712 0.0849925 16.7282 0.0390625 16.639 0.0390625Z" fill="black"/>
  <path d="M17.0442 0.0416565H16.9583V0.914325C16.9583 1.0029 17.0144 1.04227 17.074 1.04227H17.15V0.136797C17.15 0.0810251 17.0938 0.0416565 17.0442 0.0416565Z" fill="black"/>
  <path d="M18.1685 0.213719C18.2941 0.210438 18.2974 0.0267182 18.1685 0.0234375C18.0395 0.0267182 18.0428 0.210438 18.1685 0.213719Z" fill="black"/>
  <path d="M17.9419 0.213719C18.0708 0.210438 18.0741 0.0267182 17.9419 0.0234375C17.8162 0.0267182 17.8195 0.210438 17.9419 0.213719Z" fill="black"/>
  <path d="M19.9783 0.900906C19.8759 0.900906 19.823 0.818889 19.823 0.700783C19.823 0.559713 19.8759 0.477695 19.9949 0.477695C20.0973 0.477695 20.1502 0.562993 20.1502 0.681099C20.1469 0.818889 20.0973 0.900906 19.9783 0.900906ZM19.0528 0.759836C18.9701 0.713906 18.9007 0.622046 18.8147 0.579397C18.9205 0.507221 19.0726 0.444888 19.2544 0.540028C19.185 0.631888 19.1288 0.697502 19.0528 0.759836ZM18.2263 0.877941C18.1173 0.874661 17.8925 0.900906 17.8925 0.681099C17.8925 0.562993 17.9454 0.477695 18.0478 0.477695C18.2594 0.474414 18.2263 0.727029 18.2263 0.877941ZM19.9783 0.336624C19.78 0.336624 19.6544 0.497379 19.6544 0.674537C19.6544 0.841853 19.5883 0.884503 19.4263 0.877941C19.4098 0.874661 19.2346 0.897626 19.1751 0.851696C19.2908 0.756555 19.3932 0.5958 19.4296 0.510502C19.3536 0.467853 19.2379 0.343186 19.0428 0.343186C18.9701 0.343186 18.8544 0.385835 18.8478 0.398958C18.7751 0.438326 18.6891 0.490818 18.6462 0.507221C18.6462 0.553151 18.6395 0.622046 18.6395 0.648292C18.7156 0.667976 18.8247 0.740152 18.904 0.848415C18.8809 0.87138 18.8346 0.874661 18.785 0.874661H18.3916V0.730309C18.3949 0.536748 18.2991 0.333344 18.0611 0.333344C17.8429 0.333344 17.7239 0.497379 17.7239 0.697502C17.7239 0.996047 17.9949 1.03542 18.1999 1.0387C18.3024 1.03542 18.5966 1.0387 18.5867 1.0387H18.7354C18.8676 1.0387 18.9899 0.979643 19.0263 0.950117C19.1618 1.04854 19.3436 1.0387 19.4197 1.0387H19.499C19.6081 1.03542 19.694 1.00261 19.7502 0.940275C19.975 1.15024 20.3188 1.00261 20.3155 0.697502C20.3155 0.50066 20.1965 0.336624 19.9783 0.336624Z" fill="black"/>
  <path d="M21.1083 0.33692C20.8273 0.340201 20.8372 0.445184 20.8372 0.599377C20.9099 0.530482 20.976 0.507517 21.0686 0.507517C21.2702 0.507517 21.3529 0.773255 21.376 0.878238H20.7479C20.6818 0.871676 20.6488 0.838869 20.6422 0.783097V0.136797C20.6422 0.0777444 20.586 0.0416565 20.5364 0.0416565H20.4504V0.763413C20.4504 0.920887 20.543 1.03899 20.738 1.04555H21.2868C21.4058 1.05212 21.5149 1.08492 21.5479 1.15054C21.5975 0.838869 21.4917 0.340201 21.1083 0.33692Z" fill="black"/>
  <path d="M21.1697 1.14584C21.044 1.14584 21.044 1.33612 21.1697 1.33612C21.2953 1.33284 21.2953 1.14912 21.1697 1.14584Z" fill="black"/>
  <path d="M1.30597 2.48768C1.30597 2.63203 1.25969 2.78294 1.12085 2.84856C0.929121 2.93386 0.694419 2.85512 0.644834 2.63859C0.611777 2.53689 0.631611 2.20226 0.625 2.094C0.704336 2.094 0.783672 2.08415 0.780366 2.18914V2.48768C0.783672 2.60579 0.793588 2.72389 0.89937 2.7731C1.08449 2.83544 1.1506 2.65172 1.14729 2.48768V2.094C1.22663 2.094 1.30597 2.08415 1.30597 2.18914" fill="black"/>
  <path d="M2.09771 2.86962C2.06796 2.86962 2.01838 2.8729 1.99193 2.86306C1.92251 2.84009 1.88946 2.804 1.84318 2.73511C1.75062 2.59076 1.65476 2.44969 1.5622 2.29878V2.86962C1.48617 2.8729 1.41675 2.8729 1.41675 2.77448V2.09209C1.4465 2.09209 1.49278 2.08881 1.52253 2.09865C1.59195 2.12162 1.625 2.16099 1.67459 2.22988C1.76715 2.37423 1.86301 2.51202 1.95557 2.66293V2.09209C2.0316 2.08881 2.10102 2.08881 2.09771 2.18723" fill="black"/>
  <path d="M2.36688 2.86962C2.29085 2.8729 2.22144 2.8729 2.22144 2.77448V2.09209C2.29747 2.08881 2.36688 2.08881 2.36358 2.18723" fill="black"/>
  <path d="M2.80596 2.71211C2.89521 2.51527 2.97124 2.29218 3.01421 2.08878C3.08694 2.08878 3.1828 2.07893 3.15636 2.18392C3.09355 2.42997 3.0043 2.65962 2.88529 2.86631C2.81587 2.87615 2.72662 2.86959 2.69026 2.80069C2.67704 2.77445 2.66051 2.74164 2.64067 2.69899C2.5944 2.60385 2.55473 2.49559 2.51506 2.38732C2.49192 2.32499 2.47539 2.25609 2.45556 2.18392C2.44895 2.15111 2.44564 2.12815 2.46548 2.10846C2.49523 2.07893 2.55803 2.09206 2.5944 2.08878C2.64067 2.29218 2.7134 2.51527 2.80596 2.71211Z" fill="black"/>
  <path d="M3.79407 2.76978C3.79737 2.83211 3.76432 2.87476 3.6982 2.87148H3.57259C3.47342 2.87148 3.39078 2.86492 3.31805 2.82227C3.26186 2.78618 3.24533 2.73369 3.24533 2.66808V2.21862C3.23872 2.12676 3.30483 2.09067 3.38747 2.09395H3.76762C3.77093 2.15629 3.73787 2.19894 3.67176 2.19566H3.39078V2.40562H3.70482C3.70812 2.46795 3.67506 2.5106 3.60895 2.50732H3.39078V2.6648C3.37756 2.7665 3.47673 2.77306 3.56598 2.77306" fill="black"/>
  <path d="M4.03545 2.4538C4.09826 2.45052 4.25032 2.4702 4.28999 2.42099C4.32635 2.38818 4.33296 2.30616 4.31313 2.26352C4.26354 2.15853 4.13793 2.17822 4.03545 2.1979V2.4538ZM4.44536 2.65064C4.48172 2.71953 4.52139 2.79827 4.55775 2.87045H4.45527C4.40569 2.87373 4.36602 2.83436 4.3528 2.79171C4.32635 2.7425 4.29991 2.68345 4.27677 2.62767C4.25693 2.57518 4.21065 2.56206 4.16107 2.55878H4.03876V2.86717C3.96273 2.87045 3.89331 2.87045 3.89331 2.77203V2.12573C3.92306 2.11916 3.95281 2.10932 3.98587 2.10276C4.12471 2.08308 4.32635 2.06011 4.43544 2.16509C4.55444 2.28648 4.49494 2.4702 4.33627 2.52925C4.38585 2.5555 4.41891 2.60143 4.44536 2.65064Z" fill="black"/>
  <path d="M5.23204 2.66728C5.18907 2.9363 4.80561 2.90021 4.61719 2.82148C4.6238 2.68697 4.76594 2.78211 4.85189 2.77883C4.94114 2.78867 5.05684 2.76242 5.07006 2.664C5.07667 2.59183 5.01717 2.56558 4.95767 2.53933C4.83536 2.48684 4.61388 2.4606 4.64033 2.28016C4.6833 2.03082 5.02378 2.07675 5.19898 2.14565C5.19237 2.28016 5.04692 2.18502 4.96428 2.1883C4.90478 2.18502 4.83206 2.18502 4.79239 2.23423C4.76925 2.26704 4.77916 2.31625 4.82214 2.33593C4.96759 2.41795 5.26179 2.43107 5.23204 2.66728Z" fill="black"/>
  <path d="M5.4787 2.86962C5.40267 2.8729 5.33325 2.8729 5.33325 2.77448V2.09209C5.40928 2.08881 5.4787 2.08881 5.4754 2.18723" fill="black"/>
  <path d="M6.18447 2.09393C6.18778 2.15626 6.15472 2.19891 6.08861 2.19563H5.93985V2.87474C5.86382 2.87802 5.7944 2.87802 5.7944 2.7796V2.19563H5.54979C5.54648 2.1333 5.57954 2.09065 5.64565 2.09393" fill="black"/>
  <path d="M6.67114 1.86686C6.7009 1.89966 6.67114 1.93575 6.63809 1.95872C6.58189 1.9948 6.50256 2.01121 6.42653 2.00793C6.47942 1.97184 6.59842 1.8078 6.67114 1.86686ZM6.80668 2.76905C6.80998 2.83139 6.77693 2.87403 6.71081 2.87075H6.5852C6.48603 2.87075 6.40339 2.86419 6.33066 2.82154C6.27447 2.78546 6.25794 2.73296 6.25794 2.66735V2.21789C6.25463 2.12603 6.31744 2.08994 6.40008 2.09323H6.78023C6.78354 2.15556 6.75048 2.19821 6.68437 2.19493H6.40339V2.40489H6.71742C6.72073 2.46723 6.68767 2.50988 6.62156 2.50659H6.40339V2.66407C6.39016 2.76577 6.48603 2.77233 6.57859 2.77233" fill="black"/>
  <path d="M7.83359 2.86962C7.75756 2.8729 7.68814 2.8729 7.68814 2.77448V2.50218H7.32782V2.86962C7.25179 2.8729 7.18237 2.8729 7.18237 2.77448V2.09209C7.2584 2.08881 7.32782 2.08881 7.32452 2.18723V2.40376H7.68483V2.09209C7.76086 2.08881 7.83028 2.08881 7.82698 2.18723" fill="black"/>
  <path d="M8.41164 2.57771C8.38188 2.48257 8.34883 2.39071 8.31908 2.30869C8.30585 2.26932 8.28933 2.23651 8.2761 2.20699C8.26288 2.23651 8.24635 2.26932 8.23313 2.30869C8.20007 2.38742 8.16371 2.48257 8.13727 2.57771H8.41164ZM8.6265 2.77455C8.65295 2.88281 8.55708 2.86969 8.48436 2.86969C8.47114 2.80408 8.45791 2.74174 8.44139 2.67941H8.10751C8.09099 2.74174 8.07776 2.80408 8.06454 2.86969C8.02487 2.86641 7.96537 2.87953 7.93562 2.85C7.91579 2.83032 7.91579 2.80408 7.9257 2.77455C7.94223 2.70237 7.96207 2.63348 7.98521 2.57114C8.02157 2.4596 8.06454 2.35462 8.11082 2.25948C8.13065 2.22011 8.14718 2.1873 8.16041 2.15778C8.19677 2.08888 8.28602 2.08232 8.35544 2.09216C8.47114 2.29885 8.5637 2.52521 8.6265 2.77455Z" fill="black"/>
  <path d="M9.30504 2.6666C9.26868 2.90937 8.94142 2.90281 8.7596 2.84704C8.73316 2.84047 8.71002 2.83063 8.69019 2.82407C8.6968 2.68956 8.83894 2.7847 8.92489 2.78142C9.01414 2.79126 9.12984 2.76502 9.14306 2.6666C9.14967 2.59442 9.09017 2.56817 9.03067 2.54193C8.90836 2.48944 8.68688 2.46319 8.71333 2.28275C8.7563 2.03342 9.10009 2.07935 9.27198 2.14824C9.26537 2.28275 9.11992 2.18761 9.03728 2.19089C8.96786 2.18433 8.84886 2.19089 8.85216 2.28275C8.86208 2.34181 8.92819 2.35165 8.98439 2.37461C9.12323 2.42054 9.33479 2.47631 9.30504 2.6666Z" fill="black"/>
  <path d="M9.99498 2.66728C9.95201 2.9363 9.56855 2.90021 9.38013 2.82148C9.38674 2.68697 9.52888 2.78211 9.61483 2.77883C9.70078 2.78867 9.81978 2.76242 9.833 2.664C9.83961 2.59183 9.78011 2.56558 9.72061 2.53933C9.5983 2.48684 9.37682 2.4606 9.40327 2.28016C9.44624 2.03082 9.78672 2.07675 9.96192 2.14565C9.95862 2.17518 9.95201 2.19486 9.93878 2.2047C9.87928 2.24079 9.79664 2.18502 9.72722 2.18502C9.6578 2.17846 9.5388 2.18502 9.54211 2.27688C9.55202 2.33593 9.61814 2.34577 9.67433 2.36874C9.81317 2.42123 10.0214 2.477 9.99498 2.66728Z" fill="black"/>
  <path d="M10.5556 2.57771C10.5258 2.48257 10.4928 2.39071 10.463 2.30869C10.4498 2.26932 10.4333 2.23651 10.42 2.20699C10.4068 2.23651 10.3903 2.26932 10.3771 2.30869C10.344 2.38742 10.3109 2.48257 10.2812 2.57771H10.5556ZM10.7671 2.77455C10.7936 2.88281 10.6977 2.86969 10.625 2.86969C10.6118 2.80408 10.5985 2.74174 10.582 2.67941H10.2481C10.2316 2.74174 10.2184 2.80408 10.2052 2.86969C10.1655 2.86641 10.106 2.87953 10.0762 2.85C10.0564 2.83032 10.0564 2.80408 10.0663 2.77455C10.0829 2.70237 10.1027 2.63348 10.1258 2.57114C10.1622 2.4596 10.2052 2.35462 10.2514 2.25948C10.2713 2.22011 10.2878 2.1873 10.301 2.15778C10.3374 2.08888 10.4266 2.08232 10.4961 2.09216C10.6118 2.29885 10.7043 2.52521 10.7671 2.77455Z" fill="black"/>
  <path d="M11.5403 2.86962C11.5106 2.86962 11.461 2.8729 11.4346 2.86306C11.3651 2.84009 11.3321 2.804 11.2858 2.73511C11.1932 2.59076 11.0974 2.44969 11.0048 2.29878V2.86962C10.9288 2.8729 10.8594 2.8729 10.8594 2.77448V2.09209C10.8891 2.09209 10.9354 2.08881 10.9652 2.09865C11.0346 2.12162 11.0676 2.16099 11.1172 2.22988C11.2098 2.37423 11.3056 2.51202 11.3982 2.66293V2.09209C11.4742 2.08881 11.5403 2.08881 11.5403 2.18723" fill="black"/>
  <path d="M12.0881 2.86962C12.012 2.8729 11.9426 2.8729 11.9426 2.77448V2.09209C12.0187 2.08881 12.0881 2.08881 12.0848 2.18723" fill="black"/>
  <path d="M12.3537 2.86962C12.2777 2.8729 12.2083 2.8729 12.2083 2.77448V2.09209C12.2843 2.08881 12.3537 2.08881 12.3504 2.18723" fill="black"/>
  <path d="M13.076 2.78094C13.2743 2.77438 13.3173 2.54473 13.2842 2.38398C13.2545 2.21994 13.0958 2.15761 12.9437 2.19369C12.9272 2.19697 12.9107 2.20354 12.9008 2.2101V2.67268C12.8875 2.77438 12.9801 2.7875 13.076 2.78094ZM13.0826 2.09199C13.5916 2.11496 13.5916 2.8564 13.0826 2.87936C12.9272 2.8892 12.7487 2.8564 12.7553 2.67596V2.13136C12.7851 2.1248 12.8148 2.11496 12.8512 2.1084C12.9206 2.09527 13.0032 2.08871 13.0826 2.09199Z" fill="black"/>
  <path d="M14.1117 2.76978C14.115 2.83211 14.0819 2.87476 14.0158 2.87148H13.8902C13.791 2.87148 13.7084 2.86492 13.6357 2.82227C13.5795 2.78618 13.563 2.73369 13.563 2.66808V2.21862C13.5563 2.12676 13.6225 2.09067 13.7051 2.09395H14.0853C14.0886 2.15629 14.0555 2.19894 13.9894 2.19566H13.7084V2.40562H14.0224C14.0257 2.46795 13.9927 2.5106 13.9266 2.50732H13.7084V2.6648C13.6952 2.7665 13.7944 2.77306 13.8836 2.77306" fill="black"/>
  <path d="M14.6371 2.48694C14.6371 2.58536 14.6702 2.70019 14.7561 2.75596C14.8057 2.79205 14.8917 2.78548 14.9479 2.77564C15.014 2.76252 15.09 2.7494 15.0834 2.84126C14.2603 3.11027 14.2603 1.86032 15.0834 2.12934C15.09 2.2212 15.0173 2.21136 14.9479 2.19824C14.8917 2.18839 14.8057 2.18183 14.7561 2.21792C14.6702 2.27369 14.6371 2.38852 14.6371 2.48694Z" fill="black"/>
  <path d="M15.6266 2.57771C15.587 2.44648 15.544 2.32181 15.4878 2.21027C15.4746 2.23979 15.458 2.2726 15.4448 2.31197C15.4118 2.39071 15.3754 2.48585 15.3489 2.58099H15.6266V2.57771ZM15.8382 2.77455C15.8679 2.88281 15.7688 2.86969 15.696 2.86969C15.6828 2.80408 15.6696 2.74174 15.6531 2.67941H15.3192C15.3027 2.74174 15.2894 2.80408 15.2762 2.86969C15.2366 2.86641 15.1771 2.87953 15.1473 2.85C15.1275 2.83032 15.1275 2.80408 15.1341 2.77455C15.1506 2.70237 15.1704 2.63348 15.1936 2.57114C15.2299 2.4596 15.2729 2.35462 15.3192 2.25948C15.339 2.22011 15.3556 2.1873 15.3688 2.15778C15.4051 2.08888 15.4944 2.08232 15.5638 2.09216C15.6828 2.29885 15.7754 2.52521 15.8382 2.77455Z" fill="black"/>
  <path d="M16.5184 2.66728C16.4754 2.9363 16.092 2.90021 15.9036 2.82148C15.9102 2.68697 16.0523 2.78211 16.1383 2.77883C16.2275 2.78867 16.3432 2.76242 16.3564 2.664C16.3631 2.59183 16.3036 2.56558 16.244 2.53933C16.1217 2.48684 15.9003 2.4606 15.9267 2.28016C15.9697 2.03082 16.3135 2.07675 16.4854 2.14565C16.4788 2.28016 16.3333 2.18502 16.2507 2.1883C16.1812 2.18174 16.0622 2.1883 16.0655 2.28016C16.0755 2.33921 16.1416 2.34905 16.1978 2.37202C16.3366 2.42123 16.5449 2.477 16.5184 2.66728Z" fill="black"/>
  <path d="M17.0766 2.57771C17.0369 2.44648 16.9939 2.32181 16.9377 2.21027C16.9245 2.23979 16.908 2.2726 16.8948 2.31197C16.8617 2.39071 16.8286 2.48585 16.7989 2.58099H17.0766V2.57771ZM17.2881 2.77455C17.3146 2.88281 17.2187 2.86969 17.146 2.86969C17.1328 2.80408 17.1195 2.74174 17.103 2.67941H16.7691C16.7526 2.74174 16.7394 2.80408 16.7262 2.86969C16.6865 2.86641 16.627 2.87953 16.5972 2.85C16.5774 2.83032 16.5774 2.80408 16.5873 2.77455C16.6039 2.70237 16.6237 2.63348 16.6468 2.57114C16.6832 2.4596 16.7262 2.35462 16.7724 2.25948C16.7923 2.22011 16.8088 2.1873 16.822 2.15778C16.8584 2.08888 16.9476 2.08232 17.0171 2.09216C17.1328 2.29885 17.2253 2.52521 17.2881 2.77455Z" fill="black"/>
  <path d="M17.7125 2.76023C17.7654 2.76023 17.8017 2.75038 17.8249 2.72742C17.8777 2.67165 17.8711 2.53386 17.7918 2.50105C17.7224 2.46824 17.6331 2.48793 17.5571 2.48137H17.5141V2.50761C17.5108 2.6618 17.5439 2.77007 17.7125 2.76023ZM17.762 2.27796C17.7455 2.16642 17.5935 2.18282 17.5141 2.21235V2.38294C17.5968 2.37638 17.772 2.41247 17.762 2.27796ZM17.6926 2.09424C17.8645 2.09424 17.9604 2.28452 17.8381 2.40919C18.0232 2.45512 18.0695 2.68805 17.9273 2.80944C17.8678 2.85865 17.7918 2.88161 17.7092 2.88161C17.567 2.88489 17.4315 2.8324 17.3885 2.68805C17.3455 2.58307 17.3687 2.25172 17.3654 2.13361C17.4711 2.10408 17.5802 2.09096 17.6926 2.09424Z" fill="black"/>
  <path d="M18.5439 2.82403C18.5307 2.85683 18.5043 2.87324 18.4613 2.87652C18.3125 2.8962 18.0911 2.86011 18.0911 2.67311V2.08915C18.1406 2.08915 18.2101 2.0793 18.2299 2.13836C18.2431 2.1318 18.2332 2.64687 18.2365 2.66327C18.2332 2.80434 18.4415 2.7781 18.5439 2.78138C18.5506 2.79778 18.5506 2.8109 18.5439 2.82403Z" fill="black"/>
  <path d="M19.094 2.57771C19.0543 2.44648 19.0114 2.32181 18.9552 2.21027C18.9419 2.23979 18.9254 2.2726 18.9122 2.31197C18.8791 2.39071 18.8428 2.48585 18.8163 2.58099H19.094V2.57771ZM19.3089 2.77455C19.3353 2.88281 19.2395 2.86969 19.1667 2.86969C19.1535 2.80408 19.1403 2.74174 19.1238 2.67941H18.7899C18.7734 2.74174 18.7601 2.80408 18.7469 2.86969C18.7072 2.86641 18.6477 2.87953 18.618 2.85C18.5982 2.83032 18.5982 2.80408 18.6081 2.77455C18.6246 2.70237 18.6444 2.63348 18.6676 2.57114C18.7039 2.4596 18.7469 2.35462 18.7932 2.25948C18.813 2.22011 18.8296 2.1873 18.8428 2.15778C18.8791 2.08888 18.9684 2.08232 19.0378 2.09216C19.1535 2.29885 19.2461 2.52521 19.3089 2.77455Z" fill="black"/>
  <path d="M20.0821 2.86941C20.0523 2.86941 20.0028 2.87269 19.9763 2.86285C19.9069 2.83989 19.8738 2.8038 19.8276 2.7349C19.735 2.59055 19.6391 2.44948 19.5466 2.29857V2.86941C19.4705 2.87269 19.4011 2.87269 19.4011 2.77427V2.09189C19.4309 2.09189 19.4772 2.0886 19.5069 2.09845C19.5763 2.12141 19.6094 2.16078 19.659 2.22967C19.7515 2.37403 19.8474 2.51182 19.9399 2.66273V2.09189C19.9763 2.09189 20.0259 2.08532 20.0556 2.11157C20.0788 2.13125 20.0821 2.1575 20.0821 2.19031" fill="black"/>
  <path d="M20.3481 2.48694C20.3481 2.58536 20.3811 2.70019 20.4671 2.75596C20.5167 2.79205 20.6026 2.78548 20.6588 2.77564C20.7249 2.76252 20.8009 2.7494 20.7943 2.84126C19.9712 3.11027 19.9712 1.86032 20.7943 2.12934C20.8009 2.2212 20.7282 2.21136 20.6588 2.19824C20.6026 2.18839 20.5167 2.18183 20.4671 2.21792C20.3811 2.27369 20.3514 2.38852 20.3481 2.48694Z" fill="black"/>
  <path d="M21.3402 2.57771C21.3006 2.44648 21.2576 2.32181 21.2014 2.21027C21.1882 2.23979 21.1717 2.2726 21.1584 2.31197C21.1254 2.39071 21.089 2.48585 21.0626 2.58099H21.3402V2.57771ZM21.5518 2.77455C21.5551 2.79423 21.5584 2.80736 21.5551 2.82048C21.5419 2.88609 21.4593 2.86641 21.4097 2.86969C21.3964 2.80408 21.3832 2.74174 21.3667 2.67941H21.0328C21.0163 2.74174 21.0031 2.80408 20.9898 2.86969C20.9502 2.86641 20.8907 2.87953 20.8609 2.85C20.8411 2.83032 20.8411 2.80408 20.8477 2.77455C20.8642 2.70237 20.8841 2.63348 20.9072 2.57114C20.9436 2.4596 20.9865 2.35462 21.0328 2.25948C21.0527 2.22011 21.0692 2.1873 21.0824 2.15778C21.1188 2.08888 21.208 2.08232 21.2774 2.09216C21.3964 2.29885 21.489 2.52521 21.5518 2.77455Z" fill="black"/>
</svg>