<svg width="54" height="42" viewBox="0 0 54 42" fill="none" xmlns="http://www.w3.org/2000/svg">
<path d="M39.792 22.3534C39.792 22.3534 40.9212 20.7979 43.9379 20.7979C43.9379 20.7979 42.1262 22.7214 42.0419 23.3151" fill="#004A81"/>
<path d="M35.0142 24.8795H38.0562C38.0562 24.8795 35.9748 18.2894 53.654 18.8999C53.654 18.8999 55.2635 10.194 47.1654 9.71729H35.0142V15.538H35.5029C35.5029 15.538 35.0394 12.6778 37.618 12.6778H45.6992C45.6992 12.6778 50.9406 12.1593 52.0108 15.7805C52.0108 15.7805 47.1317 15.8558 43.0616 16.6168C43.0532 16.6252 35.0142 17.2691 35.0142 24.8795Z" fill="#004A81"/>
<path d="M0.834961 10.3777V9.75049H9.65769V10.3777C9.65769 10.3777 6.91059 10.2606 6.91059 12.0252V20.7563C6.91059 20.7563 7.12126 24.0848 9.82623 25.1135C11.4441 25.7323 12.6829 25.5734 13.8289 25.2807C17.0142 24.4695 17.2586 20.7396 17.2586 20.7396L17.2838 12.2092C17.2838 12.2092 17.267 10.0766 14.4272 10.4446V9.75049H23.073V10.4112C23.073 10.4112 20.3259 10.1101 20.3259 12.1841V20.0454C20.3259 20.0454 20.3596 25.8661 14.4356 26.7025C14.4356 26.7025 10.9301 27.0035 10.02 26.7944C10.02 26.7944 3.98654 26.5519 3.79272 19.7444C3.64947 14.6513 3.79272 12.2761 3.79272 12.2761C3.79272 12.2761 3.75059 11.1973 3.00904 10.7541C2.25907 10.2941 0.834961 10.3777 0.834961 10.3777Z" fill="#004A81"/>
<path d="M3.91198 23.6997C3.91198 23.6997 4.6451 25.6483 6.65907 26.7271C6.85289 26.8275 6.65907 38.3936 6.65907 38.3936C6.65907 38.3936 6.4147 40.9444 9.55785 40.7019V41.0949H0.979492V40.7019C0.979492 40.7019 4.06366 41.0615 3.87827 38.4522C3.87827 38.4522 3.91198 24.2935 3.91198 23.6997Z" fill="#878787"/>
<path d="M20.1245 23.6997C20.1245 23.6997 19.3914 25.6483 17.369 26.7271C17.1752 26.8275 17.369 38.3936 17.369 38.3936C17.369 38.3936 17.6134 40.9444 14.4702 40.7019V41.0949H23.0486V40.7019C23.0486 40.7019 19.9644 41.0615 20.1498 38.4522C20.1582 38.4522 20.1245 24.2935 20.1245 23.6997Z" fill="#878787"/>
<path d="M8.04883 33.0166H15.9868V31.896H8.04883V33.0166Z" fill="#878787"/>
<path d="M24.7251 41.0116H27.5059V9.82568H24.7251V41.0116Z" fill="#878787"/>
<path d="M29.2002 41.0116H31.981V9.82568H29.2002V41.0116Z" fill="#878787"/>
<path d="M34.9717 41.1032H38.0137C38.0137 41.1032 35.9323 34.5131 53.6115 35.1236C53.6115 35.1236 55.221 26.4176 47.123 25.9409H34.9717V31.7616H35.452C35.452 31.7616 34.9885 28.9014 37.5671 28.9014H45.6483C45.6483 28.9014 50.8897 28.3829 51.9514 32.0042C51.9514 32.0042 47.0724 32.0878 43.0023 32.8405C43.0107 32.8405 34.9717 33.4928 34.9717 41.1032Z" fill="#878787"/>
<path d="M1.18937 2.04707C1.18937 1.746 1.32419 1.52856 1.58542 1.52856C1.7371 1.52856 2.09102 1.59546 2.22585 2.02198C2.26798 1.92162 2.33539 1.78781 2.33539 1.67909C2.26798 1.31948 1.92249 1.17731 1.62755 1.17731C0.894433 1.15222 0.582646 1.98853 0.87758 2.55722H0.574219V2.74957C0.574219 2.85829 0.675339 2.98373 0.818593 2.98373H2.23427C2.38596 2.98373 2.47865 2.85829 2.47865 2.74957V2.55722H1.38318C1.24835 2.46522 1.18937 2.2896 1.18937 2.04707Z" fill="black"/>
<path d="M5.52946 0.868359C5.84968 0.859996 5.8581 0.391664 5.52946 0.383301C5.20082 0.383301 5.20925 0.859996 5.52946 0.868359Z" fill="black"/>
<path d="M7.67815 3.23633C7.35793 3.24469 7.35793 3.71302 7.67815 3.72139C8.01522 3.71302 8.01522 3.25305 7.67815 3.23633Z" fill="black"/>
<path d="M7.13027 3.23633C6.80163 3.24469 6.80163 3.72139 7.13027 3.72139C7.45048 3.71302 7.45048 3.24469 7.13027 3.23633Z" fill="black"/>
<path d="M8.79069 3.20996C8.47048 3.20996 8.46205 3.68666 8.79069 3.69502C9.11091 3.68666 9.10248 3.21832 8.79069 3.20996Z" fill="black"/>
<path d="M6.12781 2.55745H4.5773C4.65314 2.23966 4.99863 1.67933 5.49581 1.6626C6.13624 1.68769 6.15309 2.14766 6.12781 2.55745ZM9.91982 0.416504H9.75971V2.23129C9.75971 2.42364 9.68387 2.53236 9.49005 2.54909C9.16984 2.54909 9.05187 2.42364 9.03501 2.12257C9.03501 1.83823 9.08557 1.53716 8.69795 1.53716H8.54627V2.23966C8.54627 2.43201 8.47043 2.54073 8.26819 2.55745C7.93954 2.57418 7.77944 2.4571 7.76258 2.13094C7.76258 1.84659 7.81315 1.54552 7.43394 1.54552H7.28226V2.24802C7.28226 2.44037 7.20642 2.54909 7.00418 2.56582H6.55757C6.62498 1.13573 5.31042 0.633944 4.50989 1.9804C4.52674 1.56225 4.41719 1.5957 4.08013 1.5957V2.57418H3.65879C3.49026 2.55745 3.40599 2.47382 3.38914 2.33165V0.667396C3.38914 0.516861 3.24588 0.424867 3.11948 0.424867H2.90039V2.26475C2.90039 2.65781 3.13634 2.95888 3.60823 2.98397H7.03789C7.27384 2.97561 7.4508 2.90034 7.56877 2.78326C7.69517 2.89198 7.87213 2.95888 8.0828 2.97561V2.98397C8.43672 2.98397 8.66424 2.94215 8.8412 2.78326C8.99288 2.91707 9.21197 2.99233 9.48163 2.98397H9.53219C10.0209 2.96724 10.2653 2.65781 10.2653 2.26475V0.75939C10.2569 0.533587 10.1473 0.416504 9.91982 0.416504Z" fill="black"/>
<path d="M10.9476 0.425781H10.7285V2.65036C10.7285 2.87616 10.8718 2.97652 11.0234 2.97652H11.2173V0.668311C11.2173 0.526138 11.074 0.425781 10.9476 0.425781Z" fill="black"/>
<path d="M13.3492 1.53027H13.1638V2.55893C13.1722 3.11926 13.1806 3.37851 12.6919 3.28652V3.46214C12.6919 3.62941 12.8351 3.7214 13.0458 3.7214C13.4082 3.7214 13.661 3.44542 13.661 3.14435V1.87316C13.661 1.63063 13.5851 1.53027 13.3492 1.53027Z" fill="black"/>
<path d="M14.3436 0.425781H14.1245V2.65036C14.1245 2.87616 14.2678 2.97652 14.4194 2.97652H14.6133V0.668311C14.6217 0.526138 14.47 0.425781 14.3436 0.425781Z" fill="black"/>
<path d="M17.6723 0.416504H17.5122V2.23129C17.5122 2.42364 17.4364 2.53236 17.2426 2.54909C16.8381 2.55745 16.7707 2.524 16.6611 2.15602C16.5768 1.84659 16.4083 1.64588 16.3662 1.58733C16.1892 1.37826 15.9196 1.31135 15.9111 1.31135C15.5572 1.21936 15.414 1.3699 15.2539 1.65424C15.4898 1.62079 15.6836 1.62915 15.8943 1.76296C15.9111 1.77132 16.2735 2.00549 16.2735 2.54073H15.0938V2.70799C15.0938 2.83343 15.1696 2.95888 15.3297 2.95888H16.3409C16.4757 2.95888 16.5684 2.86689 16.6527 2.79162C16.7959 2.92543 16.9223 2.95888 17.133 2.95888H17.2847C17.7734 2.94215 18.0178 2.64108 18.0178 2.23966V0.734301C18.0094 0.533587 17.8998 0.416504 17.6723 0.416504Z" fill="black"/>
<path d="M19.8879 1.53807H19.7278V2.24057C19.7278 2.43292 19.6519 2.54164 19.4581 2.55837H19.1632C18.9947 2.54164 18.9104 2.45801 18.8935 2.31584V0.668311C18.8935 0.517775 18.7503 0.425781 18.6239 0.425781H18.4048V2.26566C18.4048 2.65872 18.6407 2.95979 19.1126 2.98488H19.5087C19.9974 2.96816 20.2334 2.65872 20.2334 2.26566V1.87259C20.2165 1.64679 20.107 1.53807 19.8879 1.53807Z" fill="black"/>
<path d="M19.779 3.20996C19.4588 3.21832 19.4672 3.69502 19.779 3.69502C19.9054 3.69502 20.0318 3.5863 20.0234 3.45249C20.0234 3.31868 19.9054 3.20996 19.779 3.20996Z" fill="black"/>
<path d="M23.0138 3.87061C22.6852 3.87897 22.6936 4.3473 23.0138 4.35566C23.3425 4.33894 23.3509 3.87061 23.0138 3.87061Z" fill="black"/>
<path d="M22.4577 3.87061C22.129 3.87061 22.1375 4.3473 22.4577 4.35566C22.7863 4.33894 22.7948 3.87897 22.4577 3.87061Z" fill="black"/>
<path d="M26.1657 1.26973C26.4859 1.253 26.4943 0.793031 26.1657 0.784668C25.8371 0.784668 25.8455 1.26136 26.1657 1.26973Z" fill="black"/>
<path d="M26.0998 1.53786H25.9397V2.24036C25.9397 2.43271 25.8638 2.54143 25.67 2.55816H25.038V1.17825H24.6419C22.6364 1.16989 23.8667 3.2272 22.9313 3.24393C22.2066 3.24393 22.1308 2.90941 22.1308 2.50798C22.1308 2.00619 22.4763 1.84729 22.4763 1.84729L22.2572 1.82221C21.937 1.82221 21.7432 2.09819 21.7432 2.54143C21.7432 3.26066 22.1392 3.64536 22.906 3.64536C23.6139 3.64536 23.7319 3.21884 23.774 2.6167C23.8246 2.0731 23.892 1.61313 24.6167 1.60477V2.96795H25.7121C26.2009 2.95122 26.4368 2.64179 26.4368 2.24872V1.85566C26.4284 1.64658 26.3104 1.53786 26.0998 1.53786Z" fill="black"/>
<path d="M28.2559 0.761114C28.5508 0.744388 28.5508 0.334597 28.2559 0.317871C27.9694 0.326234 27.9694 0.761114 28.2559 0.761114Z" fill="black"/>
<path d="M28.29 1.01903C28.2985 1.33683 28.7704 1.33683 28.7788 1.01903C28.7788 0.692874 28.2985 0.692874 28.29 1.01903Z" fill="black"/>
<path d="M27.9784 1.26143C28.2986 1.25306 28.2986 0.78473 27.9784 0.776367C27.6498 0.776367 27.6498 1.25306 27.9784 1.26143Z" fill="black"/>
<path d="M29.3934 0.416504H29.2333V2.23129C29.2333 2.42364 29.1574 2.53236 28.9636 2.54909H28.9552C28.635 2.54073 28.5254 2.41528 28.5086 2.12257C28.5086 1.83823 28.5591 1.53716 28.1715 1.53716H28.0198V2.23966C28.0198 2.43201 27.944 2.54073 27.7417 2.55745H27.6153C27.4468 2.54073 27.3625 2.4571 27.3457 2.31492V0.667396C27.3457 0.516861 27.2024 0.424867 27.076 0.424867H26.8569V2.26474C26.8569 2.65781 27.0929 2.95888 27.5648 2.98397H27.7839C28.0198 2.97561 28.1968 2.90034 28.3147 2.78326C28.4496 2.90034 28.6265 2.96724 28.8456 2.97561H28.9973C29.4861 2.95888 29.7304 2.65781 29.7304 2.25638V0.751027C29.7304 0.533587 29.6209 0.416504 29.3934 0.416504Z" fill="black"/>
<path d="M30.4212 0.425781H30.2021V2.65036C30.2021 2.87616 30.3454 2.97652 30.4971 2.97652H30.6909V0.668311C30.6909 0.526138 30.5392 0.425781 30.4212 0.425781Z" fill="black"/>
<path d="M33.4135 1.49537C33.7506 1.48701 33.7421 1.01032 33.4135 1.00195C33.0933 1.00195 33.0933 1.48701 33.4135 1.49537Z" fill="black"/>
<path d="M41.4608 0.416504H41.3007V2.23129C41.3007 2.42364 41.2248 2.53236 41.031 2.54909H40.635C40.5591 1.93022 40.2389 1.17754 39.5058 1.17754C38.7811 1.18591 38.8148 1.45353 38.8148 1.83823C39.0002 1.6626 39.1687 1.60406 39.4131 1.60406C39.9271 1.60406 40.1294 2.28147 40.1968 2.55745H38.4609C38.3092 2.55745 38.1996 2.48218 38.1912 2.28983C38.1912 2.02222 38.1828 1.99713 38.1828 1.64588C38.1828 1.31972 37.9553 1.30299 37.6856 1.31972V2.24802C37.6856 2.44037 37.6098 2.54073 37.357 2.56582C37.1716 2.56582 37.0705 2.53236 37.0115 2.44873C37.0452 2.28147 37.0452 1.86332 37.0452 1.64588C37.0452 1.32808 36.8261 1.30299 36.5564 1.31972V2.24802C36.5564 2.44037 36.4806 2.54073 36.2784 2.56582H35.9076V1.56225C35.9076 1.42007 35.7559 1.31972 35.6379 1.31972H35.4188V2.56582C35.2166 2.55745 34.7447 2.59927 34.6183 2.47382C34.6267 2.23966 34.6183 2.07239 34.6183 1.87168C34.6183 1.54552 34.3992 1.52879 34.1296 1.53716V2.2062C34.1296 3.10942 33.7925 3.36867 33.2953 3.36867C32.5622 3.36031 32.2841 2.39019 32.7644 1.90513H32.6128C32.3094 1.90513 32.1577 2.17275 32.1577 2.54073C32.1746 4.07117 34.2391 4.23843 34.5509 2.91706C34.6773 2.98397 34.8205 2.99233 34.9301 2.99233H36.1772C36.4385 2.99233 36.6744 2.95888 36.7924 2.8418C37.0368 3.00906 37.3654 2.99233 37.4497 2.99233C37.6351 2.98397 37.8794 2.93379 37.9974 2.80835C38.1154 2.94215 38.2923 2.99233 38.4861 2.99233H41.0647C41.5535 2.97561 41.7978 2.67454 41.7978 2.27311V0.767753C41.7978 0.533587 41.6883 0.416504 41.4608 0.416504Z" fill="black"/>
<path d="M42.4896 0.425781H42.2705V2.65036C42.2705 2.87616 42.4138 2.97652 42.5654 2.97652H42.7593V0.668311C42.7593 0.526138 42.616 0.425781 42.4896 0.425781Z" fill="black"/>
<path d="M45.3537 0.85957C45.6739 0.851207 45.6823 0.382875 45.3537 0.374512C45.025 0.382875 45.0335 0.851207 45.3537 0.85957Z" fill="black"/>
<path d="M44.781 0.85957C45.1096 0.851207 45.118 0.382875 44.781 0.374512C44.4607 0.382875 44.4692 0.851207 44.781 0.85957Z" fill="black"/>
<path d="M49.9716 2.61722C49.7104 2.61722 49.5756 2.40815 49.5756 2.10708C49.5756 1.74746 49.7104 1.53839 50.0137 1.53839C50.275 1.53839 50.4098 1.75583 50.4098 2.0569C50.4014 2.40815 50.275 2.61722 49.9716 2.61722ZM47.6121 2.25761C47.4015 2.14053 47.2245 1.90636 47.0054 1.79764C47.2751 1.61365 47.6627 1.45475 48.1262 1.69728C47.9492 1.93145 47.8059 2.09871 47.6121 2.25761ZM45.5055 2.55868C45.2274 2.55032 44.6544 2.61722 44.6544 2.0569C44.6544 1.75583 44.7892 1.53839 45.0504 1.53839C45.5897 1.53002 45.5055 2.17398 45.5055 2.55868ZM49.9716 1.17877C49.466 1.17877 49.1458 1.58856 49.1458 2.04017C49.1458 2.46669 48.9773 2.57541 48.5643 2.55868C48.5222 2.55032 48.0756 2.60886 47.9239 2.49178C48.2189 2.24925 48.4801 1.83946 48.5728 1.62202C48.379 1.5133 48.084 1.1955 47.5869 1.1955C47.4015 1.1955 47.1065 1.30422 47.0897 1.33767C46.9043 1.43803 46.6852 1.57184 46.5756 1.61365C46.5756 1.73074 46.5588 1.90636 46.5588 1.97327C46.7526 2.02344 47.0307 2.20743 47.2329 2.48341C47.1739 2.54196 47.056 2.55032 46.9296 2.55032H45.9268V2.18234C45.9352 1.68892 45.6909 1.17041 45.0841 1.17041C44.528 1.17041 44.2246 1.58856 44.2246 2.09871C44.2246 2.85975 44.9156 2.96011 45.438 2.96847C45.6993 2.96011 46.4493 2.96847 46.424 2.96847H46.8032C47.1402 2.96847 47.452 2.81794 47.5447 2.74267C47.8902 2.99356 48.3537 2.96847 48.5475 2.96847H48.7497C49.0278 2.96011 49.2469 2.87648 49.3902 2.71758C49.9632 3.25282 50.8395 2.87648 50.8311 2.09871C50.8311 1.59693 50.5278 1.17877 49.9716 1.17877Z" fill="black"/>
<path d="M52.8532 1.17846C52.1369 1.18682 52.1622 1.45444 52.1622 1.84751C52.3476 1.67188 52.5161 1.61334 52.7521 1.61334C53.2661 1.61334 53.4768 2.29075 53.5357 2.55837H51.9347C51.7661 2.54164 51.6819 2.45801 51.665 2.31584V0.668311C51.665 0.517775 51.5218 0.425781 51.3954 0.425781H51.1763V2.26566C51.1763 2.66709 51.4122 2.96816 51.9094 2.98488H53.3082C53.6116 3.00161 53.8897 3.08524 53.9739 3.2525C54.1003 2.45801 53.8307 1.18682 52.8532 1.17846Z" fill="black"/>
<path d="M53.0048 3.23633C52.6846 3.23633 52.6846 3.72139 53.0048 3.72139C53.325 3.71302 53.325 3.24469 53.0048 3.23633Z" fill="black"/>
<path d="M2.3692 6.65556C2.3692 7.02354 2.25122 7.40824 1.8973 7.5755C1.40856 7.79294 0.810261 7.59223 0.683861 7.04026C0.599594 6.78101 0.650154 5.92797 0.633301 5.65199C0.835541 5.65199 1.03778 5.6269 1.02935 5.89452V6.65556C1.03778 6.95663 1.06306 7.2577 1.33271 7.38315C1.80461 7.54205 1.97314 7.07372 1.96472 6.65556V5.65199C2.16696 5.65199 2.3692 5.6269 2.3692 5.89452" fill="black"/>
<path d="M4.39215 7.63434C4.31631 7.63434 4.18991 7.6427 4.12249 7.61761C3.94553 7.55907 3.86127 7.46707 3.74329 7.29145C3.50735 6.92347 3.26297 6.56386 3.02702 6.17916V7.63434C2.83321 7.6427 2.65625 7.6427 2.65625 7.39181V5.65229C2.73209 5.65229 2.85006 5.64392 2.9259 5.66901C3.10287 5.72755 3.18713 5.82791 3.31353 6.00353C3.54948 6.37151 3.79385 6.72276 4.0298 7.10746V5.65229C4.22361 5.64392 4.40057 5.64392 4.39215 5.89481" fill="black"/>
<path d="M5.0739 7.63434C4.88009 7.6427 4.70312 7.6427 4.70312 7.39181V5.65229C4.89694 5.64392 5.0739 5.64392 5.06547 5.89481" fill="black"/>
<path d="M6.19485 7.23414C6.42237 6.73236 6.61618 6.16367 6.72573 5.64516C6.91112 5.64516 7.15549 5.62007 7.08808 5.88769C6.92797 6.51492 6.70045 7.10033 6.39709 7.62721C6.22013 7.6523 5.99261 7.63557 5.89992 7.45994C5.86621 7.39304 5.82408 7.30941 5.77352 7.20069C5.65554 6.95816 5.55442 6.68218 5.4533 6.4062C5.39432 6.2473 5.35218 6.07167 5.30162 5.88769C5.28477 5.80406 5.27634 5.74551 5.3269 5.69534C5.40274 5.62007 5.56285 5.65352 5.65554 5.64516C5.77352 6.16367 5.9589 6.73236 6.19485 7.23414Z" fill="black"/>
<path d="M8.71445 7.37468C8.72287 7.53358 8.6386 7.6423 8.47007 7.63394H8.14986C7.89706 7.63394 7.68639 7.61721 7.501 7.50849C7.35775 7.4165 7.31562 7.28269 7.31562 7.11543V5.96968C7.29876 5.73552 7.4673 5.64352 7.67796 5.65189H8.64703C8.65546 5.81079 8.57119 5.91951 8.40266 5.91114H7.68639V6.44638H8.48693C8.49535 6.60528 8.41108 6.714 8.24255 6.70563H7.68639V7.10706C7.65268 7.36632 7.90548 7.38304 8.133 7.38304" fill="black"/>
<path d="M9.32963 6.5725C9.48974 6.56414 9.87737 6.61432 9.97849 6.48887C10.0712 6.40524 10.088 6.19616 10.0375 6.08744C9.91107 5.81982 9.59086 5.87 9.32963 5.92018V6.5725ZM10.3745 7.07429C10.4672 7.24991 10.5684 7.45062 10.661 7.63461H10.3998C10.2734 7.64297 10.1723 7.54262 10.1386 7.4339C10.0712 7.30845 10.0038 7.15792 9.94478 7.01574C9.89422 6.88193 9.77625 6.84848 9.64985 6.84012H9.33806V7.62625C9.14424 7.63461 8.96729 7.63461 8.96729 7.38372V5.73619C9.04313 5.71947 9.11897 5.69438 9.20323 5.67765C9.55715 5.62747 10.0712 5.56893 10.3493 5.83655C10.6526 6.14598 10.5009 6.61432 10.0965 6.76485C10.2229 6.83176 10.3071 6.94884 10.3745 7.07429Z" fill="black"/>
<path d="M12.3804 7.11562C12.2708 7.80139 11.2933 7.7094 10.813 7.50868C10.8298 7.16579 11.1922 7.40832 11.4113 7.39996C11.6388 7.42505 11.9337 7.35815 11.9674 7.10725C11.9843 6.92327 11.8326 6.85636 11.6809 6.78946C11.3691 6.65565 10.8046 6.58874 10.872 6.12877C10.9815 5.49318 11.8495 5.61026 12.2961 5.78589C12.2792 6.12877 11.9085 5.88624 11.6978 5.89461C11.5461 5.88624 11.3607 5.88624 11.2596 6.01169C11.2006 6.09532 11.2259 6.22077 11.3354 6.27095C11.7062 6.48002 12.4562 6.51347 12.3804 7.11562Z" fill="black"/>
<path d="M13.0036 7.63434C12.8098 7.6427 12.6328 7.6427 12.6328 7.39181V5.65229C12.8266 5.64392 13.0036 5.64392 12.9952 5.89481" fill="black"/>
<path d="M14.8065 5.65182C14.8149 5.81072 14.7306 5.91944 14.5621 5.91107H14.1829V7.64223C13.9891 7.65059 13.8121 7.65059 13.8121 7.3997V5.91107H13.1886C13.1801 5.75218 13.2644 5.64346 13.4329 5.65182" fill="black"/>
<path d="M16.0458 5.07534C16.1217 5.15897 16.0458 5.25097 15.9616 5.30951C15.8183 5.4015 15.6161 5.44332 15.4223 5.43496C15.5571 5.34296 15.8605 4.92481 16.0458 5.07534ZM16.3913 7.37519C16.3998 7.53409 16.3155 7.64281 16.147 7.63445H15.8267C15.5739 7.63445 15.3633 7.61772 15.1779 7.509C15.0346 7.41701 14.9925 7.2832 14.9925 7.11593V5.97019C14.9841 5.73603 15.1442 5.64403 15.3549 5.6524H16.3239C16.3323 5.81129 16.2481 5.92001 16.0795 5.91165H15.3633V6.44689H16.1638C16.1722 6.60579 16.088 6.71451 15.9194 6.70614H15.3633V7.10757C15.3296 7.36683 15.5739 7.38355 15.8099 7.38355" fill="black"/>
<path d="M19.0121 7.63434C18.8183 7.6427 18.6413 7.6427 18.6413 7.39181V6.69767H17.7228V7.63434C17.529 7.6427 17.3521 7.6427 17.3521 7.39181V5.65229C17.5459 5.64392 17.7228 5.64392 17.7144 5.89481V6.44678H18.6329V5.65229C18.8267 5.64392 19.0037 5.64392 18.9953 5.89481" fill="black"/>
<path d="M20.4858 6.89054C20.41 6.64801 20.3257 6.41385 20.2499 6.20477C20.2161 6.10441 20.174 6.02078 20.1403 5.94551C20.1066 6.02078 20.0645 6.10441 20.0308 6.20477C19.9465 6.40548 19.8538 6.64801 19.7864 6.89054H20.4858ZM21.0335 7.39233C21.1009 7.66831 20.8566 7.63486 20.6712 7.63486C20.6375 7.46759 20.6038 7.3087 20.5616 7.1498H19.7105C19.6684 7.3087 19.6347 7.46759 19.601 7.63486C19.4999 7.62649 19.3482 7.65995 19.2724 7.58468C19.2218 7.5345 19.2218 7.4676 19.2471 7.39233C19.2892 7.20834 19.3398 7.03271 19.3988 6.87382C19.4914 6.58947 19.601 6.32185 19.719 6.07932C19.7695 5.97897 19.8117 5.89534 19.8454 5.82007C19.9381 5.64444 20.1656 5.62772 20.3425 5.65281C20.6375 6.17968 20.8734 6.75673 21.0335 7.39233Z" fill="black"/>
<path d="M22.7617 7.11653C22.669 7.7354 21.8348 7.71867 21.3713 7.5765C21.3039 7.55977 21.2449 7.53469 21.1943 7.51796C21.2112 7.17507 21.5735 7.4176 21.7926 7.40924C22.0202 7.43433 22.3151 7.36742 22.3488 7.11653C22.3656 6.93254 22.214 6.86564 22.0623 6.79873C21.7505 6.66492 21.1859 6.59802 21.2533 6.13805C21.3629 5.50246 22.2392 5.61954 22.6774 5.79516C22.6606 6.13805 22.2898 5.89552 22.0791 5.90388C21.9022 5.88716 21.5988 5.90388 21.6072 6.13805C21.6325 6.28859 21.8011 6.31368 21.9443 6.37222C22.2982 6.4893 22.8375 6.63147 22.7617 7.11653Z" fill="black"/>
<path d="M24.5229 7.11562C24.4134 7.80139 23.4359 7.7094 22.9556 7.50868C22.9724 7.16579 23.3348 7.40832 23.5539 7.39996C23.773 7.42505 24.0763 7.35815 24.11 7.10725C24.1269 6.92327 23.9752 6.85636 23.8235 6.78946C23.5117 6.65565 22.9471 6.58874 23.0146 6.12877C23.1241 5.49318 23.992 5.61026 24.4387 5.78589C24.4302 5.86115 24.4134 5.91133 24.3797 5.93642C24.228 6.02842 24.0173 5.88624 23.8404 5.88624C23.6634 5.86952 23.36 5.88624 23.3685 6.12041C23.3938 6.27095 23.5623 6.29603 23.7055 6.35458C24.0595 6.48839 24.5903 6.63056 24.5229 7.11562Z" fill="black"/>
<path d="M25.9469 6.89054C25.871 6.64801 25.7868 6.41385 25.7109 6.20477C25.6772 6.10441 25.6351 6.02078 25.6014 5.94551C25.5677 6.02078 25.5255 6.10441 25.4918 6.20477C25.4076 6.40548 25.3233 6.64801 25.2474 6.89054H25.9469ZM26.4862 7.39233C26.5536 7.66831 26.3092 7.63486 26.1238 7.63486C26.0901 7.46759 26.0564 7.3087 26.0143 7.1498H25.1632C25.121 7.3087 25.0873 7.46759 25.0536 7.63486C24.9525 7.62649 24.8008 7.65995 24.725 7.58468C24.6744 7.5345 24.6744 7.4676 24.6997 7.39233C24.7418 7.20834 24.7924 7.03271 24.8514 6.87382C24.9441 6.58947 25.0536 6.32185 25.1716 6.07932C25.2222 5.97897 25.2643 5.89534 25.298 5.82007C25.3907 5.64444 25.6182 5.62772 25.7952 5.65281C26.0901 6.17968 26.3261 6.75673 26.4862 7.39233Z" fill="black"/>
<path d="M28.4586 7.63434C28.3827 7.63434 28.2563 7.6427 28.1889 7.61761C28.0119 7.55907 27.9277 7.46707 27.8097 7.29145C27.5738 6.92347 27.3294 6.56386 27.0934 6.17916V7.63434C26.8996 7.6427 26.7227 7.6427 26.7227 7.39181V5.65229C26.7985 5.65229 26.9165 5.64392 26.9923 5.66901C27.1693 5.72755 27.2535 5.82791 27.3799 6.00353C27.6159 6.37151 27.8603 6.72276 28.0962 7.10746V5.65229C28.29 5.64392 28.4586 5.64392 28.4586 5.89481" fill="black"/>
<path d="M29.8566 7.63434C29.6628 7.6427 29.4858 7.6427 29.4858 7.39181V5.65229C29.6797 5.64392 29.8566 5.64392 29.8482 5.89481" fill="black"/>
<path d="M30.5309 7.63434C30.3371 7.6427 30.1602 7.6427 30.1602 7.39181V5.65229C30.354 5.64392 30.5309 5.64392 30.5225 5.89481" fill="black"/>
<path d="M32.3769 7.40828C32.8825 7.39155 32.9921 6.80614 32.9078 6.39635C32.832 5.97819 32.4275 5.81929 32.0399 5.91129C31.9977 5.91965 31.9556 5.93638 31.9303 5.9531V7.1323C31.8966 7.39155 32.1326 7.42501 32.3769 7.40828ZM32.3938 5.65203C33.6915 5.71058 33.6915 7.60063 32.3938 7.65917C31.9977 7.68426 31.5427 7.60063 31.5595 7.14066V5.75239C31.6354 5.73566 31.7112 5.71058 31.8039 5.69385C31.9809 5.6604 32.1915 5.64367 32.3938 5.65203Z" fill="black"/>
<path d="M35.0147 7.37468C35.0232 7.53358 34.9389 7.6423 34.7704 7.63394H34.4502C34.1974 7.63394 33.9867 7.61721 33.8013 7.50849C33.658 7.4165 33.6159 7.28269 33.6159 7.11543V5.96968C33.5991 5.73552 33.7676 5.64352 33.9783 5.65189H34.9473C34.9558 5.81079 34.8715 5.91951 34.703 5.91114H33.9867V6.44638H34.7872C34.7956 6.60528 34.7114 6.714 34.5428 6.70563H33.9867V7.10706C33.953 7.36632 34.2058 7.38304 34.4333 7.38304" fill="black"/>
<path d="M36.3545 6.65589C36.3545 6.90678 36.4388 7.19949 36.6579 7.34166C36.7843 7.43366 37.0034 7.41693 37.1466 7.39184C37.3152 7.35839 37.509 7.32494 37.4921 7.5591C35.3939 8.24488 35.3939 5.05854 37.4921 5.74432C37.509 5.97848 37.3236 5.95339 37.1466 5.91994C37.0034 5.89485 36.7843 5.87812 36.6579 5.97012C36.4388 6.11229 36.3545 6.405 36.3545 6.65589Z" fill="black"/>
<path d="M38.8736 6.89054C38.7724 6.55602 38.6629 6.23822 38.5196 5.95388C38.4859 6.02915 38.4438 6.11278 38.4101 6.21313C38.3258 6.41385 38.2331 6.65638 38.1657 6.89891H38.8736V6.89054ZM39.4129 7.39233C39.4887 7.66831 39.2359 7.63486 39.0505 7.63486C39.0168 7.46759 38.9831 7.3087 38.941 7.1498H38.0899C38.0478 7.3087 38.014 7.46759 37.9803 7.63486C37.8792 7.62649 37.7275 7.65995 37.6517 7.58468C37.6011 7.5345 37.6011 7.4676 37.618 7.39233C37.6601 7.20834 37.7107 7.03271 37.7697 6.87382C37.8624 6.58947 37.9719 6.32185 38.0899 6.07932C38.1404 5.97897 38.1826 5.89534 38.2163 5.82007C38.309 5.64444 38.5365 5.62772 38.7135 5.65281C39.0168 6.17968 39.2528 6.75673 39.4129 7.39233Z" fill="black"/>
<path d="M41.1484 7.11562C41.0389 7.80139 40.0614 7.7094 39.5811 7.50868C39.5979 7.16579 39.9603 7.40832 40.1794 7.39996C40.4069 7.42505 40.7018 7.35815 40.7355 7.10725C40.7524 6.92327 40.6007 6.85636 40.449 6.78946C40.1372 6.65565 39.5726 6.58874 39.64 6.12877C39.7496 5.49318 40.626 5.61026 41.0642 5.78589C41.0473 6.12877 40.6765 5.88624 40.4659 5.89461C40.2889 5.87788 39.9855 5.89461 39.994 6.12877C40.0192 6.27931 40.1878 6.3044 40.331 6.36294C40.685 6.48839 41.2158 6.63056 41.1484 7.11562Z" fill="black"/>
<path d="M42.5728 6.89054C42.4717 6.55602 42.3622 6.23822 42.2189 5.95388C42.1852 6.02915 42.1431 6.11278 42.1094 6.21313C42.0251 6.41385 41.9408 6.65638 41.865 6.89891H42.5728V6.89054ZM43.1121 7.39233C43.1796 7.66831 42.9352 7.63486 42.7498 7.63486C42.7161 7.46759 42.6824 7.3087 42.6403 7.1498H41.7892C41.747 7.3087 41.7133 7.46759 41.6796 7.63486C41.5785 7.62649 41.4268 7.65995 41.351 7.58468C41.3004 7.5345 41.3004 7.4676 41.3257 7.39233C41.3678 7.20834 41.4184 7.03271 41.4774 6.87382C41.5701 6.58947 41.6796 6.32185 41.7976 6.07932C41.8481 5.97897 41.8903 5.89534 41.924 5.82007C42.0167 5.64444 42.2442 5.62772 42.4212 5.65281C42.7161 6.17968 42.952 6.75673 43.1121 7.39233Z" fill="black"/>
<path d="M44.1901 7.35033C44.3249 7.35033 44.4176 7.32524 44.4766 7.2667C44.6114 7.12452 44.5946 6.77327 44.3923 6.68964C44.2154 6.60601 43.9879 6.65619 43.794 6.63947H43.6845V6.70637C43.6761 7.09943 43.7603 7.37542 44.1901 7.35033ZM44.3165 6.12095C44.2744 5.83661 43.8867 5.87842 43.6845 5.95369V6.38857C43.8952 6.37185 44.3418 6.46384 44.3165 6.12095ZM44.1395 5.65262C44.5777 5.65262 44.8221 6.13768 44.5103 6.45548C44.9822 6.57256 45.1002 7.16634 44.7378 7.47577C44.5862 7.60122 44.3923 7.65976 44.1817 7.65976C43.8193 7.66812 43.4738 7.53431 43.3643 7.16634C43.2547 6.89872 43.3137 6.05405 43.3053 5.75298C43.575 5.67771 43.853 5.64426 44.1395 5.65262Z" fill="black"/>
<path d="M46.3146 7.51796C46.2809 7.6016 46.2135 7.64341 46.1039 7.65177C45.7247 7.70195 45.1602 7.60996 45.1602 7.13326V5.64463C45.2866 5.64463 45.4635 5.61955 45.5141 5.77008C45.5478 5.75335 45.5225 7.06636 45.5309 7.10817C45.5225 7.46779 46.0534 7.40088 46.3146 7.40924C46.3315 7.45106 46.3315 7.48451 46.3146 7.51796Z" fill="black"/>
<path d="M47.7133 6.89054C47.6122 6.55602 47.5027 6.23822 47.3594 5.95388C47.3257 6.02915 47.2836 6.11278 47.2499 6.21313C47.1656 6.41385 47.0729 6.65638 47.0055 6.89891H47.7133V6.89054ZM48.2611 7.39233C48.3285 7.66831 48.0841 7.63486 47.8987 7.63486C47.865 7.46759 47.8313 7.3087 47.7892 7.1498H46.9381C46.8959 7.3087 46.8622 7.46759 46.8285 7.63486C46.7274 7.62649 46.5757 7.65995 46.4999 7.58468C46.4493 7.5345 46.4493 7.4676 46.4746 7.39233C46.5167 7.20834 46.5673 7.03271 46.6263 6.87382C46.719 6.58947 46.8285 6.32185 46.9465 6.07932C46.9971 5.97897 47.0392 5.89534 47.0729 5.82007C47.1656 5.64444 47.3931 5.62772 47.5701 5.65281C47.865 6.17968 48.101 6.75673 48.2611 7.39233Z" fill="black"/>
<path d="M50.2339 7.63479C50.1581 7.63479 50.0317 7.64315 49.9643 7.61806C49.7873 7.55952 49.7031 7.46753 49.5851 7.2919C49.3491 6.92392 49.1048 6.56431 48.8688 6.17961V7.63479C48.675 7.64315 48.498 7.64315 48.498 7.39226V5.65274C48.5739 5.65274 48.6919 5.64437 48.7677 5.66946C48.9447 5.728 49.0289 5.82836 49.1553 6.00399C49.3913 6.37196 49.6356 6.72321 49.8716 7.10791V5.65274C49.9643 5.65274 50.0907 5.63601 50.1665 5.70292C50.2255 5.75309 50.2339 5.82 50.2339 5.90363" fill="black"/>
<path d="M50.9146 6.65589C50.9146 6.90678 50.9989 7.19949 51.218 7.34166C51.3444 7.43366 51.5635 7.41693 51.7067 7.39184C51.8752 7.35839 52.0691 7.32494 52.0522 7.5591C49.954 8.24488 49.954 5.05854 52.0522 5.74432C52.0691 5.97848 51.8837 5.95339 51.7067 5.91994C51.5635 5.89485 51.3444 5.87812 51.218 5.97012C50.9989 6.11229 50.923 6.405 50.9146 6.65589Z" fill="black"/>
<path d="M53.4429 6.89054C53.3418 6.55602 53.2322 6.23822 53.089 5.95388C53.0553 6.02915 53.0131 6.11278 52.9794 6.21313C52.8952 6.41385 52.8025 6.65638 52.7351 6.89891H53.4429V6.89054ZM53.9822 7.39233C53.9906 7.44251 53.9991 7.47596 53.9906 7.50941C53.9569 7.67667 53.7463 7.62649 53.6199 7.63486C53.5862 7.46759 53.5524 7.3087 53.5103 7.1498H52.6592C52.6171 7.3087 52.5834 7.46759 52.5497 7.63486C52.4486 7.62649 52.2969 7.65995 52.221 7.58468C52.1705 7.5345 52.1705 7.4676 52.1873 7.39233C52.2295 7.20834 52.28 7.03271 52.339 6.87382C52.4317 6.58947 52.5412 6.32185 52.6592 6.07932C52.7098 5.97897 52.7519 5.89534 52.7856 5.82007C52.8783 5.64444 53.1058 5.62772 53.2828 5.65281C53.5862 6.17968 53.8221 6.75673 53.9822 7.39233Z" fill="black"/>
</svg>
